<?xml version="1.0" encoding="UTF-8" standalone="no"?>
<!-- Created with Inkscape (http://www.inkscape.org/) -->

<svg
   xmlns:dc="http://purl.org/dc/elements/1.1/"
   xmlns:cc="http://creativecommons.org/ns#"
   xmlns:rdf="http://www.w3.org/1999/02/22-rdf-syntax-ns#"
   xmlns:svg="http://www.w3.org/2000/svg"
   xmlns="http://www.w3.org/2000/svg"
   xmlns:sodipodi="http://sodipodi.sourceforge.net/DTD/sodipodi-0.dtd"
   xmlns:inkscape="http://www.inkscape.org/namespaces/inkscape"
   width="99.551003"
   height="114.099"
   viewBox="0 0 99.551004 114.099"
   id="svg2"
   version="1.1"
   inkscape:version="0.91 r13725"
   sodipodi:docname="Dignitas.svg">
  <defs
     id="defs4">
    <linearGradient
       x1="0"
       y1="0"
       x2="1"
       y2="0"
       gradientUnits="userSpaceOnUse"
       gradientTransform="matrix(-11.174515,57.595261,60.171783,12.856628,106.10254,463.7002)"
       spreadMethod="pad"
       id="linearGradient364">
      <stop
         style="stop-opacity:1;stop-color:#fbc707"
         offset="0"
         id="stop366" />
      <stop
         style="stop-opacity:1;stop-color:#fbc707"
         offset="0.0786591"
         id="stop368" />
      <stop
         style="stop-opacity:1;stop-color:#f4c10a"
         offset="0.331467"
         id="stop370" />
      <stop
         style="stop-opacity:1;stop-color:#8c6a1e"
         offset="0.51123"
         id="stop372" />
      <stop
         style="stop-opacity:1;stop-color:#1b0f02"
         offset="0.69533224"
         id="stop374" />
      <stop
         style="stop-opacity:1;stop-color:#1b0f02"
         offset="0.747192"
         id="stop376" />
      <stop
         style="stop-opacity:1;stop-color:#1b0f02"
         offset="1"
         id="stop378" />
    </linearGradient>
    <linearGradient
       x1="0"
       y1="0"
       x2="1"
       y2="0"
       gradientUnits="userSpaceOnUse"
       gradientTransform="matrix(-24.95871,-19.71347,-21.433868,21.314224,116.28809,504.77637)"
       spreadMethod="pad"
       id="linearGradient394">
      <stop
         style="stop-opacity:1;stop-color:#dfa917"
         offset="0"
         id="stop396" />
      <stop
         style="stop-opacity:1;stop-color:#dfa917"
         offset="0"
         id="stop398" />
      <stop
         style="stop-opacity:1;stop-color:#f2e4b6"
         offset="0.00561523"
         id="stop400" />
      <stop
         style="stop-opacity:1;stop-color:#f3b713"
         offset="0.29776"
         id="stop402" />
      <stop
         style="stop-opacity:1;stop-color:#f3b713"
         offset="0.35267853"
         id="stop404" />
      <stop
         style="stop-opacity:1;stop-color:#1b0f02"
         offset="0.887634"
         id="stop406" />
      <stop
         style="stop-opacity:1;stop-color:#1b0f02"
         offset="1"
         id="stop408" />
    </linearGradient>
    <clipPath
       clipPathUnits="userSpaceOnUse"
       id="clipPath416">
      <path
         d="m 0,851.89 605.28,0 L 605.28,0 0,0 0,851.89 Z"
         id="path418"
         inkscape:connector-curvature="0" />
    </clipPath>
    <radialGradient
       fx="0"
       fy="0"
       cx="0"
       cy="0"
       r="1"
       gradientUnits="userSpaceOnUse"
       gradientTransform="matrix(42.317474,0,0,-43.013138,128.37451,503.76758)"
       spreadMethod="pad"
       id="radialGradient436">
      <stop
         style="stop-opacity:1;stop-color:#ffffff"
         offset="0"
         id="stop438" />
      <stop
         style="stop-opacity:1;stop-color:#ffffff"
         offset="0.00561523"
         id="stop440" />
      <stop
         style="stop-opacity:1;stop-color:#ffffff"
         offset="0.07898337"
         id="stop442" />
      <stop
         style="stop-opacity:1;stop-color:#ffffff"
         offset="0.370789"
         id="stop444" />
      <stop
         style="stop-opacity:1;stop-color:#ffffff"
         offset="0.60861882"
         id="stop446" />
      <stop
         style="stop-opacity:1;stop-color:#475d69"
         offset="0.943817"
         id="stop448" />
      <stop
         style="stop-opacity:1;stop-color:#475d69"
         offset="0.98871211"
         id="stop450" />
      <stop
         style="stop-opacity:1;stop-color:#475d69"
         offset="1"
         id="stop452" />
    </radialGradient>
    <linearGradient
       x1="0"
       y1="0"
       x2="1"
       y2="0"
       gradientUnits="userSpaceOnUse"
       gradientTransform="matrix(38.608292,32.170364,35.331818,-40.28067,116.02832,477.52002)"
       spreadMethod="pad"
       id="linearGradient468">
      <stop
         style="stop-opacity:1;stop-color:#f5e5c5"
         offset="0"
         id="stop470" />
      <stop
         style="stop-opacity:1;stop-color:#f5e5c5"
         offset="0.00561523"
         id="stop472" />
      <stop
         style="stop-opacity:1;stop-color:#f9c507"
         offset="0.140442"
         id="stop474" />
      <stop
         style="stop-opacity:1;stop-color:#916f1f"
         offset="0.443817"
         id="stop476" />
      <stop
         style="stop-opacity:1;stop-color:#1b0f02"
         offset="0.85821096"
         id="stop478" />
      <stop
         style="stop-opacity:1;stop-color:#1b0f02"
         offset="1"
         id="stop480" />
    </linearGradient>
    <linearGradient
       x1="0"
       y1="0"
       x2="1"
       y2="0"
       gradientUnits="userSpaceOnUse"
       gradientTransform="matrix(10.15712,-27.359558,-26.89653,-7.3013306,128.11768,504.31006)"
       spreadMethod="pad"
       id="linearGradient496">
      <stop
         style="stop-opacity:1;stop-color:#f2e4b6"
         offset="0"
         id="stop498" />
      <stop
         style="stop-opacity:1;stop-color:#f3b713"
         offset="0.331467"
         id="stop500" />
      <stop
         style="stop-opacity:1;stop-color:#f3b713"
         offset="0.38402962"
         id="stop502" />
      <stop
         style="stop-opacity:1;stop-color:#916f1f"
         offset="0.573029"
         id="stop504" />
      <stop
         style="stop-opacity:1;stop-color:#1b0f02"
         offset="0.80743101"
         id="stop506" />
      <stop
         style="stop-opacity:1;stop-color:#1b0f02"
         offset="0.887634"
         id="stop508" />
      <stop
         style="stop-opacity:1;stop-color:#1b0f02"
         offset="1"
         id="stop510" />
    </linearGradient>
    <clipPath
       clipPathUnits="userSpaceOnUse"
       id="clipPath416-4">
      <path
         d="m 0,851.89 605.28,0 L 605.28,0 0,0 0,851.89 Z"
         id="path418-4"
         inkscape:connector-curvature="0" />
    </clipPath>
    <radialGradient
       fx="0"
       fy="0"
       cx="0"
       cy="0"
       r="1"
       gradientUnits="userSpaceOnUse"
       gradientTransform="matrix(42.317474,0,0,-43.013138,128.37451,503.76758)"
       spreadMethod="pad"
       id="radialGradient436-8">
      <stop
         style="stop-opacity:1;stop-color:#ffffff"
         offset="0"
         id="stop438-6" />
      <stop
         style="stop-opacity:1;stop-color:#ffffff"
         offset="0.00561523"
         id="stop440-6" />
      <stop
         style="stop-opacity:1;stop-color:#ffffff"
         offset="0.07898337"
         id="stop442-2" />
      <stop
         style="stop-opacity:1;stop-color:#ffffff"
         offset="0.370789"
         id="stop444-1" />
      <stop
         style="stop-opacity:1;stop-color:#ffffff"
         offset="0.60861882"
         id="stop446-9" />
      <stop
         style="stop-opacity:1;stop-color:#475d69"
         offset="0.943817"
         id="stop448-9" />
      <stop
         style="stop-opacity:1;stop-color:#475d69"
         offset="0.98871211"
         id="stop450-2" />
      <stop
         style="stop-opacity:1;stop-color:#475d69"
         offset="1"
         id="stop452-4" />
    </radialGradient>
  </defs>
  <sodipodi:namedview
     id="base"
     pagecolor="#ffffff"
     bordercolor="#666666"
     borderopacity="1.0"
     inkscape:pageopacity="0.0"
     inkscape:pageshadow="2"
     inkscape:zoom="3.5846999"
     inkscape:cx="37.984469"
     inkscape:cy="96.853887"
     inkscape:document-units="px"
     inkscape:current-layer="layer1"
     showgrid="false"
     units="px"
     inkscape:window-width="1920"
     inkscape:window-height="1137"
     inkscape:window-x="-4"
     inkscape:window-y="-4"
     inkscape:window-maximized="1" />
  <metadata
     id="metadata7">
    <rdf:RDF>
      <cc:Work
         rdf:about="">
        <dc:format>image/svg+xml</dc:format>
        <dc:type
           rdf:resource="http://purl.org/dc/dcmitype/StillImage" />
        <dc:title></dc:title>
      </cc:Work>
    </rdf:RDF>
  </metadata>
  <g
     inkscape:label="Taso 1"
     inkscape:groupmode="layer"
     id="layer1"
     transform="translate(0,-938.26316)">
    <g
       id="g5490"
       transform="matrix(1.25,0,0,-1.25,-110.37276,1625.0222)">
      <g
         id="g352">
        <g
           id="g354">
          <g
             id="g360">
            <g
               id="g362">
              <path
                 inkscape:connector-curvature="0"
                 id="path380"
                 style="fill:url(#linearGradient364);stroke:none"
                 d="m 93.532,515.282 c -4.577,-6.396 -7.795,-18.446 -2.461,-31.527 l 0,0 c 5.333,-13.078 15.53,-21.259 22.775,-18.265 l 0,0 c 7.244,2.993 -1.297,14.796 -6.632,27.876 l 0,0 c -3.376,8.28 1.786,24.538 -3.283,28.851 l 0,0 c -0.485,0.413 -1.025,0.593 -1.6,0.593 l 0,0 c -3.014,0 -6.97,-4.971 -8.799,-7.528" />
            </g>
          </g>
        </g>
      </g>
      <g
         id="g382">
        <g
           id="g384">
          <g
             id="g390">
            <g
               id="g392">
              <path
                 inkscape:connector-curvature="0"
                 id="path410"
                 style="fill:url(#linearGradient394);stroke:none"
                 d="M 103.062,516.019 C 96.713,515.098 90.419,503.396 91.961,492.608 l 0,0 c 1.545,-10.789 7.941,-18.791 14.289,-17.872 l 0,0 c 6.348,0.921 1.757,10.107 0.214,20.898 l 0,0 c -1.48,10.346 2.588,20.441 -2.674,20.441 l 0,0 c -0.225,0 -0.468,-0.019 -0.728,-0.056" />
            </g>
          </g>
        </g>
      </g>
      <g
         id="g412">
        <g
           clip-path="url(#clipPath416-4)"
           id="g414">
          <g
             transform="translate(101.1235,494.0547)"
             id="g420">
            <path
               inkscape:connector-curvature="0"
               id="path422"
               style="fill:#ffffff;fill-opacity:1;fill-rule:nonzero;stroke:none"
               d="M 0,0 C 0.292,-1.417 -0.097,-2.695 -0.868,-2.856 -1.639,-3.018 -2.501,-2 -2.794,-0.583 -3.086,0.834 -2.697,2.115 -1.926,2.276 -1.153,2.436 -0.292,1.417 0,0" />
          </g>
        </g>
      </g>
      <g
         id="g424">
        <g
           id="g426">
          <g
             id="g432">
            <g
               id="g434">
              <path
                 inkscape:connector-curvature="0"
                 id="path454"
                 style="fill:url(#radialGradient436-8);stroke:none"
                 d="m 134.062,538.249 c -2.1,0.336 -4.255,0.513 -6.451,0.513 l 0,0 c -15.471,0 -28.908,-8.71 -35.672,-21.493 l 0,0 -0.004,-0.049 c 5.07,-0.629 10.408,-6.848 12.746,-15.402 l 0,0 c 2.739,-10.019 0.255,-19.07 -5.461,-20.685 l 0,0 c -3.146,-0.887 -7.387,2.743 -10.346,6.086 l 0,0 -0.065,-0.013 c 0.035,-0.095 0.889,-2.539 0.924,-2.633 l 0,0 c 5.656,-15.435 20.481,-26.445 37.878,-26.445 l 0,0 c 22.273,0 40.328,18.049 40.328,40.316 l 0,0 c 0,10.969 -4.38,20.915 -11.488,28.184 l 0,0 c -0.037,0.037 -0.111,0.058 -0.109,0.11 l 0,0 c 0.654,19.064 -11.352,22.669 -11.352,22.669 l 0,0 c 6.24,-10.985 -10.928,-11.158 -10.928,-11.158" />
            </g>
          </g>
        </g>
      </g>
      <g
         id="g456">
        <g
           id="g458">
          <g
             id="g464">
            <g
               id="g466">
              <path
                 inkscape:connector-curvature="0"
                 id="path482"
                 style="fill:url(#linearGradient468);stroke:none"
                 d="m 124.124,502.633 c -8.73,-10.982 -10.791,-23.924 -4.599,-28.911 l 0,0 c 6.191,-4.986 18.286,-0.122 27.016,10.858 l 0,0 c 8.731,10.981 10.791,23.923 4.6,28.91 l 0,0 c -1.65,1.328 -3.72,1.957 -6.034,1.957 l 0,0 c -6.366,0 -14.579,-4.761 -20.983,-12.814" />
            </g>
          </g>
        </g>
      </g>
      <g
         id="g484">
        <g
           id="g486">
          <g
             id="g492">
            <g
               id="g494">
              <path
                 inkscape:connector-curvature="0"
                 id="path512"
                 style="fill:url(#linearGradient496);stroke:none"
                 d="m 124.639,498.034 c -7.06,-8.266 -8.954,-18.282 -4.228,-22.37 l 0,0 c 4.726,-4.089 14.28,-0.703 21.341,7.563 l 0,0 c 7.06,8.266 8.955,18.281 4.23,22.371 l 0,0 c -1.361,1.177 -3.121,1.734 -5.108,1.734 l 0,0 c -4.913,0 -11.206,-3.412 -16.235,-9.298" />
            </g>
          </g>
        </g>
      </g>
      <g
         transform="translate(132.0537,486.6035)"
         id="g522">
        <path
           inkscape:connector-curvature="0"
           id="path524"
           style="fill:#ffffff;fill-opacity:1;fill-rule:nonzero;stroke:none"
           d="M 0,0 C -1.966,-2.109 -4.283,-3.131 -5.179,-2.286 -6.073,-1.44 -5.205,0.953 -3.241,3.061 -1.276,5.167 1.042,6.19 1.937,5.346 2.833,4.499 1.964,2.106 0,0" />
      </g>
    </g>
  </g>
</svg>
