<svg xmlns="http://www.w3.org/2000/svg" viewBox="0 0 710 434"><g fill="none" stroke-width="2"><path stroke="#918080" d="M106.3 0c-6.92 1.98-14.41 4.73-20.84 5.93q-9.41 1.75-20.27 1.95c-7.37.13-38.7 2.47-41.44 11.62q-2.04 6.83-3.77 15.75c-.75 3.84-1.5 7-4.5 9.89C9.06 51.3.94 58.17 0 68.41" vector-effect="non-scaling-stroke"/><path stroke="#2b080b" d="m155.3 0 3.32.26q.29.02.2.28l-.1.31q-.12.37.15.65l.27.26q.44.44-.09.78c-2.95 1.84-2.79 6.63-5.02 9.74-2.08 2.88-5.8 5.99-7.99 10.14-1.07 2.02-2.44 3.28-3.76 5.06-2.21 3-2.66 6.76-5.26 10.02-1.67 2.09-2.85 4.39-4.61 6.38-2.08 2.34-1.23 5.39-2.95 8.19q-2.75 4.49-4.04 9.65-.03.13.07.22l.19.2q.32.32-.1.5l-5.37 2.18" vector-effect="non-scaling-stroke"/><path stroke="#918080" d="m120.21 64.82-18.54-1.65q-.51-.04-.57.46c-4.2 33.08-3.82 70.93 8.26 102.45a.19.19 0 0 1-.32.2c-24.29-25.34-34.25-64.39-33.09-98.6a.98.98 0 0 0-1.18-1q-20.26 4.16-40.94 4.24-.5 0-.56.5c-3.67 31.9-2.14 68.33 12.45 98.78a.03.02 18.8 0 1-.05.02q-12.31-18.16-22.22-37.91C15.08 115.65 7.67 97.22 9.32 78.9a.47.45-83.1 0 0-.37-.49C4.12 77.57.54 75.61 0 69.93" vector-effect="non-scaling-stroke"/><path stroke="#99888a" d="m234.56 0-15.22 8.36a.27.27 0 0 0 .07.5l25.58 5.23" vector-effect="non-scaling-stroke"/><path stroke="#3c1518" d="m244.99 14.09-4.42 2.5q-.44.25-.65.71-2.23 5.01-4.87 6.48-7.87 4.39-13.45 11.34c-4.16 5.18-13.03 10.05-15.37 15.9q-2.02 5.07-5.71 9.01c-3.93 4.2-8.79 12.69-9.68 17.97q-.07.42-.47.58-.93.38-1.4 1.61" vector-effect="non-scaling-stroke"/><path stroke="#99888a" d="M188.97 80.19q-33.16-11.26-68.76-15.37" vector-effect="non-scaling-stroke"/><path stroke="#a28d8e" d="M317.06 0q-2.47.66-4.77 1.77-17.2 8.33-33.53 18.26c-1.1.67-2.36.54-3.53.3q-15.42-3.2-30.24-6.24" vector-effect="non-scaling-stroke"/><path stroke="#330d0f" d="M568.06 0q-1.74.34.7.58.5.05.06.29c-2.7 1.5-1.26 3.85.31 5.71q1.53 1.8 2.25 4.08c.82 2.61 2.13 3.74 4.18 5.17a1.73 1.72-83.2 0 1 .62.79q.92 2.46 3.34 3.36a.02.02 0 0 1-.01.03q-.14-.01-.28-.01a.24.24 0 0 0-.25.27l.07.54" vector-effect="non-scaling-stroke"/><path stroke="#a28d8e" d="m579.05 20.81-40.8 14.89q-.77.28.03.45 32.18 6.65 60.52 21.39" vector-effect="non-scaling-stroke"/><path stroke="#330d0f" d="M598.8 57.54q1.16 2.39.73 3.32-.2.44.18.74l.73.6q.4.32.51.82c.92 3.95 3.4 7.26 4.42 10.58 1.53 4.89 2.37 9.77 4.23 14.65 1.12 2.93 1.78 6.17 3.25 8.92q.63 1.17.94 2.27c2.53 8.85 5.21 20.77 5.68 32.07.11 2.48-1.15 4.43-.2 7.81" vector-effect="non-scaling-stroke"/><path stroke="#a28d8e" d="m619.27 139.32-33.74 8.71" vector-effect="non-scaling-stroke"/><path stroke="#4c1f20" d="M585.53 148.03q-.65-7.91-5.18-14.29a10.2 10.1 15.4 0 1-.96-1.67c-6.23-13.88-15.19-25.93-24.47-38.81-4.37-6.07-10.08-9.72-15-14.91q-6.31-6.67-12.89-11.64c-2.26-1.71-3.74-3.5-6.03-4.87q-3.8-2.27-9.07-6.53c-3.43-2.77-9.16-4.7-12.5-6.47-6.46-3.41-12.17-6.91-19.19-9.32q-6.86-2.35-13.63-4.92c-5.15-1.95-11-2.25-16.41-4.02-4.04-1.32-7.54-1.37-11.59-1.82-1.82-.2-3.67.48-5.64.24-4.32-.51-8.36-.53-12.7-.57-3.26-.03-7.12-.9-10.78-.76-6.76.26-14.75-.57-21.28.65-6.87 1.29-14.25 3.49-21.46 4.86-11.74 2.25-23.58 6.73-34.68 11.13q-2.92 1.15-6.73 3.65-5.64 3.7-12 6.06c-3.56 1.33-5.1 3.32-7.46 5.97-3.83 4.31-8.12 7.37-12.19 11.22-2.49 2.35-7.13 5.69-9.88 9.71q-.29.41-.77.57c-5.09 1.6-6.3 4.85-9.86 7.95q-.38.33-.59.78-.99 2.19-4.1 4.48-2.96 2.19-4.77 8.04c-1.98 6.4-10.56 13.01-11 20.78q-.02.5-.52.46l-1.92-.14" vector-effect="non-scaling-stroke"/><path stroke="#a28d8e" d="M250.28 123.84c-13.73-22.48-37.04-35.07-61.31-43.65" vector-effect="non-scaling-stroke"/><path stroke="#918080" d="m635.5 0-56.45 20.81" vector-effect="non-scaling-stroke"/><path stroke="#d9898d" d="M707.43 434q.39-.31 1.08-.26.52.04.49-.47c-1.33-29.77-29.67-26.84-50.97-26.19q-1.01.03-1.73.75-10.88 10.84-21.83 21.89-1.31 1.33-1.48 3.24a.66.65-80.9 0 0 .5.7l1.47.34M583.93 434l3.48-.23q.67-.04.58-.71-.17-1.23.52-2.27.47-.71 1.31-.72l35.71-.68q.48-.01.81-.35l20.71-20.74q1.3-1.3-.54-1.3h-56.99a3.41 3.4-67.6 0 0-2.42 1.01l-22.86 23.27a1.52 1.52 0 0 0 .92 2.58l1.31.14M552.36 434l26.36-26.69q.55-.56-.23-.56h-24.94q-.62 0-1.05.43l-26.24 25.89q-.44.44.12.68l.59.25M515.64 434l.03-26.44q0-.63-.45-.18L489.08 434M477.73 434l.05-25.77a.82.82 0 0 0-.8-.82l-21.18-.5q-.53-.01-.53.52l.03 26.57M445.67 434l.72-.27q.48-.18.29-.66c-7.7-19.74-26.27-29.45-46.87-27.23q-26.88 2.9-36.98 28.16M354.42 434l.96-.33q.45-.16.36-.64c-5.45-28.65-31.44-26.73-54.26-25.92a1.3 1.3 0 0 0-.87.38q-11.1 11.08-22.11 22.26-1.26 1.28-1.67 3.08a.65.65 0 0 0 .5.78l1.89.39" vector-effect="non-scaling-stroke"/><path stroke="#918f90" d="m265.06 434 26.36-26.41a.21.21 0 0 0-.15-.36l-28.75.01a2.59 2.55 22 0 0-1.83.76l-25.72 26M226.9 434l.03-26.23q0-.66-.67-.67l-22.23-.14q-.64-.01-.64.63l-.01 26.41M195.4 434l.03-26.09q0-.66-.66-.66H172.5q-.53 0-.53.53l-.11 26.22M149.49 434l-.01-26.25q0-.47-.46-.47l-22.61-.1q-.54 0-.54.54l-.02 26.28M119.4 434q-.59-19.89-16.8-25.03-5.26-1.67-18.93-1.72-19.58-.06-39.25.03-.55 0-.55.55L43.84 434" vector-effect="non-scaling-stroke"/><path stroke="#a99191" d="M250.28 123.84q5.27 10.37 6.22 19.91 1.93 19.16-.76 40.83c-3.83 30.81-16.53 58.67-42.84 75.87" vector-effect="non-scaling-stroke"/><path stroke="#99888a" d="M212.9 260.45q-23.25 13.76-49.98 12.29c-9.61-.53-18.01-5.33-24.14-10.77q-22.2-19.72-38.88-44.01a.32.32 0 0 0-.57.28q18.22 57.2 53.67 105.51 6.93 9.44 11.55 13.03c12.36 9.61 31.07 10.48 46.05 7.94 12.84-2.19 22.2-10.94 33.62-20.93" vector-effect="non-scaling-stroke"/><path stroke="#a99191" d="m244.22 323.79 38.81-31.95" vector-effect="non-scaling-stroke"/><path stroke="#b29594" d="M283.03 291.84c25.8-20.5 40.11-32 62.2-46.09" vector-effect="non-scaling-stroke"/><path stroke="#ba9694" d="M345.23 245.75c55.38-33.86 116.74-59.49 178.29-79.25" vector-effect="non-scaling-stroke"/><path stroke="#b29594" d="m523.52 166.5 42.46-12.99" vector-effect="non-scaling-stroke"/><path stroke="#a99191" d="m565.98 153.51 19.55-5.48" vector-effect="non-scaling-stroke"/><path stroke="#918080" d="m619.27 139.32 77.57-17.19a.68.68 0 0 0 .17-1.26q-42.33-22.51-79.99-51.9-6.2-4.85-18.22-11.43" vector-effect="non-scaling-stroke"/><path stroke="#a28d8e" d="m614.2 156.62-37.69 10.69" vector-effect="non-scaling-stroke"/><path stroke="#ba9694" d="M576.51 167.31c-84.84 25.09-170.06 60.18-242.55 111.65-22.94 16.28-44.89 34.74-62.97 56.37q-1.25 1.5.55.77 65.78-26.52 135.8-38.05a.16.15-64.5 0 1 .1.29c-19.36 11.29-38.24 24.69-54.3 40.44a.32.32 0 0 0 .32.54q36.83-11.31 74.36-18.31" vector-effect="non-scaling-stroke"/><path stroke="#c49492" d="M427.82 321.01q39.83-7.38 80.24-9.5 4.01-.21.16.93c-20.29 6.04-41.98 15.19-59.98 27.51a.3.3 0 0 0 .22.54q43.78-8.18 88.56-8.67" vector-effect="non-scaling-stroke"/><path stroke="#ba9694" d="m537.02 331.82 5.71-.1" vector-effect="non-scaling-stroke"/><path stroke="#b29594" d="m542.73 331.72 16.63.43" vector-effect="non-scaling-stroke"/><path stroke="#99888a" d="m559.36 332.15 8.13.36" vector-effect="non-scaling-stroke"/><path stroke="#918080" d="m567.49 332.51 13.34 1.2a1.11 1.1-64.1 0 0 .88-.31c11.39-11.22 26.02-18.95 41.38-25.3q24.09-9.95 48.51-15.69 2.27-.53-.06-.58-42.51-.87-84.1 3.91" vector-effect="non-scaling-stroke"/><path stroke="#99888a" d="m587.44 295.74-2.42.28" vector-effect="non-scaling-stroke"/><path stroke="#b29594" d="m585.02 296.02-19.88 2.8a.38.37-72.1 0 1-.32-.63q15.51-16.07 34.24-28.96" vector-effect="non-scaling-stroke"/><path stroke="#918080" d="M599.06 269.23q41.55-27.79 88.74-45a.19.19 0 0 0-.08-.37q-39.03 1.91-78.03 7.59" vector-effect="non-scaling-stroke"/><path stroke="#b29594" d="M609.69 231.45q-23.28 3.35-48.15 8.73" vector-effect="non-scaling-stroke"/><path stroke="#ba9694" d="m561.54 240.18-7.72 1.68a.33.32 15.3 0 1-.31-.54q15.86-16.71 33.57-31.18" vector-effect="non-scaling-stroke"/><path stroke="#a28d8e" d="M587.08 210.14q15.36-12.57 31.41-23.88" vector-effect="non-scaling-stroke"/><path stroke="#918080" d="M618.49 186.26q39.08-27.23 81.11-49.3a.1.1 0 0 0-.07-.18q-43.05 8.7-85.33 19.84" vector-effect="non-scaling-stroke"/><path stroke="#330d0f" d="M618.49 186.26q-1.52-2.01-1.52-3.26.04-11.2-1.12-24.07-.14-1.46-1.65-2.31" vector-effect="non-scaling-stroke"/><path stroke="#5d2322" d="M587.08 210.14q-1.46-9.81-2.86-19.34c-.67-4.53-3.16-8.28-3.51-12.62-.21-2.61-2.15-4.46-2.65-6.37q-.49-1.84-.49-3.77 0-.34-.33-.29-.47.07-.73-.44" vector-effect="non-scaling-stroke"/><path stroke="#6d2b28" d="m561.54 240.18 5.53 14.95q.29.79-.54.76-.72-.01-1.41.4a1.83 1.83 0 0 0-.85 1.95c2 9.21.84 17.01-.1 26q-.04.4.27.65.55.46.34 1.37-1.27 5.45-1.43 11.06-.01.48-.4.77-1.88 1.4-2.74 4.16-1.58 5.11-5.02 11.18-.2.35-.62.54a1.26 1.22-88.2 0 0-.6.58c-2.21 4.37-5.43 11.8-10.38 15.26q-.41.28-.45.77-.06.66-.41 1.14" vector-effect="non-scaling-stroke"/><path stroke="#7f2b26" d="M537.02 331.82q1.71-2.6 4.6-3.67.48-.18.74-.62c2.91-5.15 7.12-12.32 7.92-18.17.89-6.5 2.36-11.66 1.72-18.95-.28-3.18-1.45-7.07-1.67-10.82q-.04-.59-.63-.59h-.7q-.49 0-.49-.5l-.02-4.89a1.06 1.03-70.8 0 0-.38-.81q-1.24-1.02-1.68-2.51-.12-.42.08-.81c2.12-3.89-8.45-14.73-10.66-16.69-2.08-1.84-3.68-3.97-5.72-5.85-7.49-6.91-11.2-15.29-20.84-16.95q-5.11-.89-10.2-2.04-.41-.09-.02-.26l4.01-1.74q.86-.38-.06-.59c-9.66-2.2-16.71-1.35-26.6.18-2.9.44-6.21 2.2-10.13 1.47q-.49-.09-.95.08c-5.05 1.91-10.61 2.52-15.01 5.12q-5.49 3.25-9.95 7.8c-2.03 2.07-5.32 4.47-6.72 6.66q-3.67 5.75-12.64 21.84-1.58 2.83-2.03 5.83-1.81 12.08-1.22 24.3c.22 4.46 3.41 9.66 4.79 14.04q.92 2.9 5.26 8.33" vector-effect="non-scaling-stroke"/><path stroke="#4c1d1e" d="M585.02 296.02q-3.14 5.39-7.21 10.13-1.42 1.65-2.45 3.71c-1.92 3.86-5.24 6.61-7.55 10.13q-2.1 3.19-4.31 5.97-2.31 2.89-4.14 6.19" vector-effect="non-scaling-stroke"/><path stroke="#441515" d="M599.06 269.23q-.47-3.38.21-4.74 5.14-10.3 5.8-13.73 1.4-7.28 4.38-14.01c.86-1.94.61-3.34.24-5.3" vector-effect="non-scaling-stroke"/><path stroke="#2b080b" d="M567.49 332.51q-1.65-.55-2.15-2.36-.15-.55.22-1l6.46-7.88q.19-.22.21-.51.02-.22.17-.39 5.33-5.86 9.17-12.8c1.96-3.56 5.33-6.13 5.87-11.83" vector-effect="non-scaling-stroke"/><path stroke="#d9898d" d="M27.222 407.46a.48.48 0 0 0-.48-.48l-22.78.04a.48.48 0 0 0-.48.48l.036 20.68a.48.48 0 0 0 .48.48l22.78-.04a.48.48 0 0 0 .48-.48l-.036-20.68" vector-effect="non-scaling-stroke"/><path stroke="#5c2726" d="M565.98 153.51q.14-1.1 2.15-1.3.58-.06.4-.61-1.6-4.99-5.54-8.22c-5.04-4.14-8.2-9.04-11.16-14.78a1.96 1.88 3.2 0 0-.69-.74q-2.1-1.27-2.78-3.54-.09-.3-.4-.3-.18-.01-.35-.03-.28-.03-.53-.26c-5.6-5.23-11.49-11.65-16.38-16.05q-9.99-9.01-21.19-16.43c-9.79-6.48-20.65-10.36-31.84-13.87-.9-.28-2.02-.1-2.79-.35-12.53-4.07-23.66-4.77-38.62-5.3-13.65-.48-25.36-.42-36.63 1.19q-3.69.52-5.4.68c-5.07.47-9.59 1.98-14.89 2.82q-8.35 1.34-16.07 7.35c-3.76 2.94-10.4 4.69-14.47 6.55-5.79 2.64-10.59 4.6-15.42 9.88-1.92 2.11-3.99 3.78-6.04 5.65q-.93.84-3.13 3.82-2.42 3.27-6.94 5.52-1.26.62-1.5 2.54-.06.49-.38.86-1.35 1.57-4.73 4.82c-5.29 5.1-10.31 11.93-13.31 19.01q-2.18 5.15-2.89 6.38-2.24 3.9-4.39 7.83c-3.93 7.17-7.76 14.95-9.61 22.97-2.11 9.09-7.68 16.44-8.08 26.1-.45 11.31-1.79 23.8-1.46 33.99.31 9.23.75 20.42 4.13 29.1 1.87 4.8 3.18 8.89 6.45 13.54a1.2 1.17-67 0 1 .2.51l1.33 9" vector-effect="non-scaling-stroke"/><path stroke="#431a1c" d="M244.22 323.79q-1.79-1.8-2.86-3.67c-3.27-5.73-6.85-11.1-9.77-17.05-.86-1.74-2.36-3.16-3.07-5.03q-3.46-9.06-8.37-17.44a2.1 2.1 0 0 1-.27-1.03q-.01-3.55-1.09-6.94-.16-.49-.52-.86-1.85-1.85-2-4.52-.03-.53-.37-.93-1.54-1.8-1.67-4.19-.02-.5-.39-.83l-.94-.85" vector-effect="non-scaling-stroke"/><path stroke="#6d2b28" d="M523.52 166.5q-.43-.41.34-.97a.38.38 0 0 0-.29-.68q-1.03.19-.59-.85a.75.74-71.8 0 0-.5-1l-1.37-.34q-.46-.11-.72-.51-2.88-4.44-7.58-6.19c-7.51-2.8-12.67-6.84-20.6-9.78-9.31-3.46-21.07-5.2-30.4-3.59-2.43.42-5.03-.08-7.56.29-4.26.6-7.53.61-11.2 1.36-3.78.76-7.08-.14-10.98 1.12q-1.23.4-3.38-.52-.45-.19-.93-.09c-5.23 1.12-10.98 1.3-15.8 3.01-6.42 2.26-12.18 6.97-17.84 10.72-8.91 5.91-16.69 13.09-24.87 19.88-2.34 1.96-5.7 4.25-8.15 7.11a.49.33 79.1 0 0-.06.14l-.37 1.91q-.08.41-.12 0-.06-.53-.19-.41-.54.47-.67 1.11a.1.1 0 0 1-.19-.02v-.43a.18.18 0 0 0-.34-.09l-2.27 4.27q-.21.39-.2.84.02.56-.52.77-.47.19-.63.67-1.78 5.27-4.32 10.23c-.75 1.47-.69 3.87-1.68 5.84-2.68 5.31-3.21 10.65-4.37 15.75-.91 3.99-3.01 9.21-1.04 13.07q.23.44.3.93l.8 5.7" vector-effect="non-scaling-stroke"/><path stroke="#d9898d" d="M419.94 434q-15.52-11.6-31.15 0M327.11 434q-3.09-4.17-7.11-4.22-9.09-.11-18.3-.33a.66.66 0 0 0-.68.66l-.03 2.9a.72.72 0 0 1-.59.71l-1.48.28M683.65 434c-3.8-6.32-17.92-4.64-25.88-4.01q-.52.04-.52.56v1.83a1.39 1.39 0 0 1-1.34 1.39l-5.49.23" vector-effect="non-scaling-stroke"/><path stroke="#918f90" d="M96.59 434q-.96-4.4-5.91-4.45-11.05-.13-22.27-.02-.55.01-.61.55l-.43 3.92" vector-effect="non-scaling-stroke"/></g><path fill="#fff" d="M0 0h106.3c-6.92 1.98-14.41 4.73-20.84 5.93q-9.41 1.75-20.27 1.95c-7.37.13-38.7 2.47-41.44 11.62q-2.04 6.83-3.77 15.75c-.75 3.84-1.5 7-4.5 9.89C9.06 51.3.94 58.17 0 68.41V0Z"/><path fill="#220001" d="M106.3 0h49l3.32.26q.29.02.2.28l-.1.31q-.12.37.15.65l.27.26q.44.44-.09.78c-2.95 1.84-2.79 6.63-5.02 9.74-2.08 2.88-5.8 5.99-7.99 10.14-1.07 2.02-2.44 3.28-3.76 5.06-2.21 3-2.66 6.76-5.26 10.02-1.67 2.09-2.85 4.39-4.61 6.38-2.08 2.34-1.23 5.39-2.95 8.19q-2.75 4.49-4.04 9.65-.03.13.07.22l.19.2q.32.32-.1.5l-5.37 2.18-18.54-1.65q-.51-.04-.57.46c-4.2 33.08-3.82 70.93 8.26 102.45a.19.19 0 0 1-.32.2c-24.29-25.34-34.25-64.39-33.09-98.6a.98.98 0 0 0-1.18-1q-20.26 4.16-40.94 4.24-.5 0-.56.5c-3.67 31.9-2.14 68.33 12.45 98.78a.03.02 18.8 0 1-.05.02q-12.31-18.16-22.22-37.91C15.08 115.65 7.67 97.22 9.32 78.9a.47.45-83.1 0 0-.37-.49C4.12 77.57.54 75.61 0 69.93v-1.52C.94 58.17 9.06 51.3 15.48 45.14c3-2.89 3.75-6.05 4.5-9.89q1.73-8.92 3.77-15.75c2.74-9.15 34.07-11.49 41.44-11.62q10.86-.2 20.27-1.95C91.89 4.73 99.38 1.98 106.3 0Z"/><path fill="#331014" d="M155.3 0h79.26l-15.22 8.36a.27.27 0 0 0 .07.5l25.58 5.23-4.42 2.5q-.44.25-.65.71-2.23 5.01-4.87 6.48-7.87 4.39-13.45 11.34c-4.16 5.18-13.03 10.05-15.37 15.9q-2.02 5.07-5.71 9.01c-3.93 4.2-8.79 12.69-9.68 17.97q-.07.42-.47.58-.93.38-1.4 1.61-33.16-11.26-68.76-15.37l5.37-2.18q.42-.18.1-.5l-.19-.2q-.1-.09-.07-.22 1.29-5.16 4.04-9.65c1.72-2.8.87-5.85 2.95-8.19 1.76-1.99 2.94-4.29 4.61-6.38 2.6-3.26 3.05-7.02 5.26-10.02 1.32-1.78 2.69-3.04 3.76-5.06 2.19-4.15 5.91-7.26 7.99-10.14 2.23-3.11 2.07-7.9 5.02-9.74q.53-.34.09-.78l-.27-.26q-.27-.28-.15-.65l.1-.31q.09-.26-.2-.28L155.3 0Z"/><path fill="#fff" d="M234.56 0h82.5q-2.47.66-4.77 1.77-17.2 8.33-33.53 18.26c-1.1.67-2.36.54-3.53.3q-15.42-3.2-30.24-6.24l-25.58-5.23a.27.27 0 0 1-.07-.5L234.56 0Z"/><path fill="#441a1c" d="M317.06 0h251q-1.74.34.7.58.5.05.06.29c-2.7 1.5-1.26 3.85.31 5.71q1.53 1.8 2.25 4.08c.82 2.61 2.13 3.74 4.18 5.17a1.73 1.72-83.2 0 1 .62.79q.92 2.46 3.34 3.36a.02.02 0 0 1-.01.03q-.14-.01-.28-.01a.24.24 0 0 0-.25.27l.07.54-40.8 14.89q-.77.28.03.45 32.18 6.65 60.52 21.39 1.16 2.39.73 3.32-.2.44.18.74l.73.6q.4.32.51.82c.92 3.95 3.4 7.26 4.42 10.58 1.53 4.89 2.37 9.77 4.23 14.65 1.12 2.93 1.78 6.17 3.25 8.92q.63 1.17.94 2.27c2.53 8.85 5.21 20.77 5.68 32.07.11 2.48-1.15 4.43-.2 7.81l-33.74 8.71q-.65-7.91-5.18-14.29a10.2 10.1 15.4 0 1-.96-1.67c-6.23-13.88-15.19-25.93-24.47-38.81-4.37-6.07-10.08-9.72-15-14.91q-6.31-6.67-12.89-11.64c-2.26-1.71-3.74-3.5-6.03-4.87q-3.8-2.27-9.07-6.53c-3.43-2.77-9.16-4.7-12.5-6.47-6.46-3.41-12.17-6.91-19.19-9.32q-6.86-2.35-13.63-4.92c-5.15-1.95-11-2.25-16.41-4.02-4.04-1.32-7.54-1.37-11.59-1.82-1.82-.2-3.67.48-5.64.24-4.32-.51-8.36-.53-12.7-.57-3.26-.03-7.12-.9-10.78-.76-6.76.26-14.75-.57-21.28.65-6.87 1.29-14.25 3.49-21.46 4.86-11.74 2.25-23.58 6.73-34.68 11.13q-2.92 1.15-6.73 3.65-5.64 3.7-12 6.06c-3.56 1.33-5.1 3.32-7.46 5.97-3.83 4.31-8.12 7.37-12.19 11.22-2.49 2.35-7.13 5.69-9.88 9.71q-.29.41-.77.57c-5.09 1.6-6.3 4.85-9.86 7.95q-.38.33-.59.78-.99 2.19-4.1 4.48-2.96 2.19-4.77 8.04c-1.98 6.4-10.56 13.01-11 20.78q-.02.5-.52.46l-1.92-.14c-13.73-22.48-37.04-35.07-61.31-43.65q.47-1.23 1.4-1.61.4-.16.47-.58c.89-5.28 5.75-13.77 9.68-17.97q3.69-3.94 5.71-9.01c2.34-5.85 11.21-10.72 15.37-15.9q5.58-6.95 13.45-11.34 2.64-1.47 4.87-6.48.21-.46.65-.71l4.42-2.5q14.82 3.04 30.24 6.24c1.17.24 2.43.37 3.53-.3q16.33-9.93 33.53-18.26 2.3-1.11 4.77-1.77Z"/><path fill="#220001" d="M568.06 0h67.44l-56.45 20.81-.07-.54a.24.24 0 0 1 .25-.27q.14 0 .28.01a.02.02 0 0 0 .01-.03q-2.42-.9-3.34-3.36a1.73 1.72-83.2 0 0-.62-.79c-2.05-1.43-3.36-2.56-4.18-5.17q-.72-2.28-2.25-4.08c-1.57-1.86-3.01-4.21-.31-5.71q.44-.24-.06-.29-2.44-.24-.7-.58Z"/><path fill="#fff" d="M635.5 0H710v434h-2.57q.39-.31 1.08-.26.52.04.49-.47c-1.33-29.77-29.67-26.84-50.97-26.19q-1.01.03-1.73.75-10.88 10.84-21.83 21.89-1.31 1.33-1.48 3.24a.66.65-80.9 0 0 .5.7l1.47.34h-51.03l3.48-.23q.67-.04.58-.71-.17-1.23.52-2.27.47-.71 1.31-.72l35.71-.68q.48-.01.81-.35l20.71-20.74q1.3-1.3-.54-1.3h-56.99a3.41 3.4-67.6 0 0-2.42 1.01l-22.86 23.27a1.52 1.52 0 0 0 .92 2.58l1.31.14h-14.11l26.36-26.69q.55-.56-.23-.56h-24.94q-.62 0-1.05.43l-26.24 25.89q-.44.44.12.68l.59.25h-11.33l.03-26.44q0-.63-.45-.18L489.08 434h-11.35l.05-25.77a.82.82 0 0 0-.8-.82l-21.18-.5q-.53-.01-.53.52l.03 26.57h-9.63l.72-.27q.48-.18.29-.66c-7.7-19.74-26.27-29.45-46.87-27.23q-26.88 2.9-36.98 28.16h-8.41l.96-.33q.45-.16.36-.64c-5.45-28.65-31.44-26.73-54.26-25.92a1.3 1.3 0 0 0-.87.38q-11.1 11.08-22.11 22.26-1.26 1.28-1.67 3.08a.65.65 0 0 0 .5.78l1.89.39h-14.16l26.36-26.41a.21.21 0 0 0-.15-.36l-28.75.01a2.59 2.55 22 0 0-1.83.76l-25.72 26h-8.07l.03-26.23q0-.66-.67-.67l-22.23-.14q-.64-.01-.64.63l-.01 26.41h-7.98l.03-26.09q0-.66-.66-.66H172.5q-.53 0-.53.53l-.11 26.22h-22.37l-.01-26.25q0-.47-.46-.47l-22.61-.1q-.54 0-.54.54l-.02 26.28h-6.45q-.59-19.89-16.8-25.03-5.26-1.67-18.93-1.72-19.58-.06-39.25.03-.55 0-.55.55L43.84 434H0V69.93c.54 5.68 4.12 7.64 8.95 8.48a.47.45-83.1 0 1 .37.49c-1.65 18.32 5.76 36.75 14.13 53.41q9.91 19.75 22.22 37.91a.03.02 18.8 0 0 .05-.02c-14.59-30.45-16.12-66.88-12.45-98.78q.06-.5.56-.5 20.68-.08 40.94-4.24a.98.98 0 0 1 1.18 1c-1.16 34.21 8.8 73.26 33.09 98.6a.19.19 0 0 0 .32-.2C97.28 134.56 96.9 96.71 101.1 63.63q.06-.5.57-.46l18.54 1.65q35.6 4.11 68.76 15.37c24.27 8.58 47.58 21.17 61.31 43.65q5.27 10.37 6.22 19.91 1.93 19.16-.76 40.83c-3.83 30.81-16.53 58.67-42.84 75.87q-23.25 13.76-49.98 12.29c-9.61-.53-18.01-5.33-24.14-10.77q-22.2-19.72-38.88-44.01a.32.32 0 0 0-.57.28q18.22 57.2 53.67 105.51 6.93 9.44 11.55 13.03c12.36 9.61 31.07 10.48 46.05 7.94 12.84-2.19 22.2-10.94 33.62-20.93l38.81-31.95c25.8-20.5 40.11-32 62.2-46.09 55.38-33.86 116.74-59.49 178.29-79.25l42.46-12.99 19.55-5.48 33.74-8.71 77.57-17.19a.68.68 0 0 0 .17-1.26q-42.33-22.51-79.99-51.9-6.2-4.85-18.22-11.43-28.34-14.74-60.52-21.39-.8-.17-.03-.45l40.8-14.89L635.5 0Zm-21.3 156.62-37.69 10.69c-84.84 25.09-170.06 60.18-242.55 111.65-22.94 16.28-44.89 34.74-62.97 56.37q-1.25 1.5.55.77 65.78-26.52 135.8-38.05a.16.15-64.5 0 1 .1.29c-19.36 11.29-38.24 24.69-54.3 40.44a.32.32 0 0 0 .32.54q36.83-11.31 74.36-18.31 39.83-7.38 80.24-9.5 4.01-.21.16.93c-20.29 6.04-41.98 15.19-59.98 27.51a.3.3 0 0 0 .22.54q43.78-8.18 88.56-8.67l5.71-.1 16.63.43 8.13.36 13.34 1.2a1.11 1.1-64.1 0 0 .88-.31c11.39-11.22 26.02-18.95 41.38-25.3q24.09-9.95 48.51-15.69 2.27-.53-.06-.58-42.51-.87-84.1 3.91l-2.42.28-19.88 2.8a.38.37-72.1 0 1-.32-.63q15.51-16.07 34.24-28.96 41.55-27.79 88.74-45a.19.19 0 0 0-.08-.37q-39.03 1.91-78.03 7.59-23.28 3.35-48.15 8.73l-7.72 1.68a.33.32 15.3 0 1-.31-.54q15.86-16.71 33.57-31.18 15.36-12.57 31.41-23.88 39.08-27.23 81.11-49.3a.1.1 0 0 0-.07-.18q-43.05 8.7-85.33 19.84ZM27.222 407.46a.48.48 0 0 0-.48-.48l-22.78.04a.48.48 0 0 0-.48.48l.036 20.68a.48.48 0 0 0 .48.48l22.78-.04a.48.48 0 0 0 .48-.48l-.036-20.68Z"/><path fill="#532323" d="m585.53 148.03-19.55 5.48q.14-1.1 2.15-1.3.58-.06.4-.61-1.6-4.99-5.54-8.22c-5.04-4.14-8.2-9.04-11.16-14.78a1.96 1.88 3.2 0 0-.69-.74q-2.1-1.27-2.78-3.54-.09-.3-.4-.3-.18-.01-.35-.03-.28-.03-.53-.26c-5.6-5.23-11.49-11.65-16.38-16.05q-9.99-9.01-21.19-16.43c-9.79-6.48-20.65-10.36-31.84-13.87-.9-.28-2.02-.1-2.79-.35-12.53-4.07-23.66-4.77-38.62-5.3-13.65-.48-25.36-.42-36.63 1.19q-3.69.52-5.4.68c-5.07.47-9.59 1.98-14.89 2.82q-8.35 1.34-16.07 7.35c-3.76 2.94-10.4 4.69-14.47 6.55-5.79 2.64-10.59 4.6-15.42 9.88-1.92 2.11-3.99 3.78-6.04 5.65q-.93.84-3.13 3.82-2.42 3.27-6.94 5.52-1.26.62-1.5 2.54-.06.49-.38.86-1.35 1.57-4.73 4.82c-5.29 5.1-10.31 11.93-13.31 19.01q-2.18 5.15-2.89 6.38-2.24 3.9-4.39 7.83c-3.93 7.17-7.76 14.95-9.61 22.97-2.11 9.09-7.68 16.44-8.08 26.1-.45 11.31-1.79 23.8-1.46 33.99.31 9.23.75 20.42 4.13 29.1 1.87 4.8 3.18 8.89 6.45 13.54a1.2 1.17-67 0 1 .2.51l1.33 9-38.81 31.95q-1.79-1.8-2.86-3.67c-3.27-5.73-6.85-11.1-9.77-17.05-.86-1.74-2.36-3.16-3.07-5.03q-3.46-9.06-8.37-17.44a2.1 2.1 0 0 1-.27-1.03q-.01-3.55-1.09-6.94-.16-.49-.52-.86-1.85-1.85-2-4.52-.03-.53-.37-.93-1.54-1.8-1.67-4.19-.02-.5-.39-.83l-.94-.85c26.31-17.2 39.01-45.06 42.84-75.87q2.69-21.67.76-40.83-.95-9.54-6.22-19.91l1.92.14q.5.04.52-.46c.44-7.77 9.02-14.38 11-20.78q1.81-5.85 4.77-8.04 3.11-2.29 4.1-4.48.21-.45.59-.78c3.56-3.1 4.77-6.35 9.86-7.95q.48-.16.77-.57c2.75-4.02 7.39-7.36 9.88-9.71 4.07-3.85 8.36-6.91 12.19-11.22 2.36-2.65 3.9-4.64 7.46-5.97q6.36-2.36 12-6.06 3.81-2.5 6.73-3.65c11.1-4.4 22.94-8.88 34.68-11.13 7.21-1.37 14.59-3.57 21.46-4.86 6.53-1.22 14.52-.39 21.28-.65 3.66-.14 7.52.73 10.78.76 4.34.04 8.38.06 12.7.57 1.97.24 3.82-.44 5.64-.24 4.05.45 7.55.5 11.59 1.82 5.41 1.77 11.26 2.07 16.41 4.02q6.77 2.57 13.63 4.92c7.02 2.41 12.73 5.91 19.19 9.32 3.34 1.77 9.07 3.7 12.5 6.47q5.27 4.26 9.07 6.53c2.29 1.37 3.77 3.16 6.03 4.87q6.58 4.97 12.89 11.64c4.92 5.19 10.63 8.84 15 14.91 9.28 12.88 18.24 24.93 24.47 38.81a10.2 10.1 15.4 0 0 .96 1.67q4.53 6.38 5.18 14.29Z"/><path fill="#220001" d="M598.8 57.54q12.02 6.58 18.22 11.43 37.66 29.39 79.99 51.9a.68.68 0 0 1-.17 1.26l-77.57 17.19c-.95-3.38.31-5.33.2-7.81-.47-11.3-3.15-23.22-5.68-32.07q-.31-1.1-.94-2.27c-1.47-2.75-2.13-5.99-3.25-8.92-1.86-4.88-2.7-9.76-4.23-14.65-1.02-3.32-3.5-6.63-4.42-10.58q-.11-.5-.51-.82l-.73-.6q-.38-.3-.18-.74.43-.93-.73-3.32Z"/><path fill="#652a28" d="m565.98 153.51-42.46 12.99q-.43-.41.34-.97a.38.38 0 0 0-.29-.68q-1.03.19-.59-.85a.75.74-71.8 0 0-.5-1l-1.37-.34q-.46-.11-.72-.51-2.88-4.44-7.58-6.19c-7.51-2.8-12.67-6.84-20.6-9.78-9.31-3.46-21.07-5.2-30.4-3.59-2.43.42-5.03-.08-7.56.29-4.26.6-7.53.61-11.2 1.36-3.78.76-7.08-.14-10.98 1.12q-1.23.4-3.38-.52-.45-.19-.93-.09c-5.23 1.12-10.98 1.3-15.8 3.01-6.42 2.26-12.18 6.97-17.84 10.72-8.91 5.91-16.69 13.09-24.87 19.88-2.34 1.96-5.7 4.25-8.15 7.11a.49.33 79.1 0 0-.06.14l-.37 1.91q-.08.41-.12 0-.06-.53-.19-.41-.54.47-.67 1.11a.1.1 0 0 1-.19-.02v-.43a.18.18 0 0 0-.34-.09l-2.27 4.27q-.21.39-.2.84.02.56-.52.77-.47.19-.63.67-1.78 5.27-4.32 10.23c-.75 1.47-.69 3.87-1.68 5.84-2.68 5.31-3.21 10.65-4.37 15.75-.91 3.99-3.01 9.21-1.04 13.07q.23.44.3.93l.8 5.7c-22.09 14.09-36.4 25.59-62.2 46.09l-1.33-9a1.2 1.17-67 0 0-.2-.51c-3.27-4.65-4.58-8.74-6.45-13.54-3.38-8.68-3.82-19.87-4.13-29.1-.33-10.19 1.01-22.68 1.46-33.99.4-9.66 5.97-17.01 8.08-26.1 1.85-8.02 5.68-15.8 9.61-22.97q2.15-3.93 4.39-7.83.71-1.23 2.89-6.38c3-7.08 8.02-13.91 13.31-19.01q3.38-3.25 4.73-4.82.32-.37.38-.86.24-1.92 1.5-2.54 4.52-2.25 6.94-5.52 2.2-2.98 3.13-3.82c2.05-1.87 4.12-3.54 6.04-5.65 4.83-5.28 9.63-7.24 15.42-9.88 4.07-1.86 10.71-3.61 14.47-6.55q7.72-6.01 16.07-7.35c5.3-.84 9.82-2.35 14.89-2.82q1.71-.16 5.4-.68c11.27-1.61 22.98-1.67 36.63-1.19 14.96.53 26.09 1.23 38.62 5.3.77.25 1.89.07 2.79.35 11.19 3.51 22.05 7.39 31.84 13.87q11.2 7.42 21.19 16.43c4.89 4.4 10.78 10.82 16.38 16.05q.25.23.53.26.17.02.35.03.31 0 .4.3.68 2.27 2.78 3.54a1.96 1.88 3.2 0 1 .69.74c2.96 5.74 6.12 10.64 11.16 14.78q3.94 3.23 5.54 8.22.18.55-.4.61-2.01.2-2.15 1.3Z"/><path fill="#220001" d="M618.49 186.26q-1.52-2.01-1.52-3.26.04-11.2-1.12-24.07-.14-1.46-1.65-2.31 42.28-11.14 85.33-19.84a.1.1 0 0 1 .07.18q-42.03 22.07-81.11 49.3Z"/><path fill="#752c28" d="M523.52 166.5c-61.55 19.76-122.91 45.39-178.29 79.25l-.8-5.7q-.07-.49-.3-.93c-1.97-3.86.13-9.08 1.04-13.07 1.16-5.1 1.69-10.44 4.37-15.75.99-1.97.93-4.37 1.68-5.84q2.54-4.96 4.32-10.23.16-.48.63-.67.54-.21.52-.77-.01-.45.2-.84l2.27-4.27a.18.18 0 0 1 .34.09v.43a.1.1 0 0 0 .19.02q.13-.64.67-1.11.13-.12.19.41.04.41.12 0l.37-1.91a.49.33 79.1 0 1 .06-.14c2.45-2.86 5.81-5.15 8.15-7.11 8.18-6.79 15.96-13.97 24.87-19.88 5.66-3.75 11.42-8.46 17.84-10.72 4.82-1.71 10.57-1.89 15.8-3.01q.48-.1.93.09 2.15.92 3.38.52c3.9-1.26 7.2-.36 10.98-1.12 3.67-.75 6.94-.76 11.2-1.36 2.53-.37 5.13.13 7.56-.29 9.33-1.61 21.09.13 30.4 3.59 7.93 2.94 13.09 6.98 20.6 9.78q4.7 1.75 7.58 6.19.26.4.72.51l1.37.34a.75.74-71.8 0 1 .5 1q-.44 1.04.59.85a.38.38 0 0 1 .29.68q-.77.56-.34.97Z"/><path fill="#441a1c" d="M614.2 156.62q1.51.85 1.65 2.31 1.16 12.87 1.12 24.07 0 1.25 1.52 3.26-16.05 11.31-31.41 23.88-1.46-9.81-2.86-19.34c-.67-4.53-3.16-8.28-3.51-12.62-.21-2.61-2.15-4.46-2.65-6.37q-.49-1.84-.49-3.77 0-.34-.33-.29-.47.07-.73-.44l37.69-10.69Z"/><path fill="#752c28" d="M576.51 167.31q.26.51.73.44.33-.05.33.29 0 1.93.49 3.77c.5 1.91 2.44 3.76 2.65 6.37.35 4.34 2.84 8.09 3.51 12.62q1.4 9.53 2.86 19.34-17.71 14.47-33.57 31.18a.33.32 15.3 0 0 .31.54l7.72-1.68 5.53 14.95q.29.79-.54.76-.72-.01-1.41.4a1.83 1.83 0 0 0-.85 1.95c2 9.21.84 17.01-.1 26q-.04.4.27.65.55.46.34 1.37-1.27 5.45-1.43 11.06-.01.48-.4.77-1.88 1.4-2.74 4.16-1.58 5.11-5.02 11.18-.2.35-.62.54a1.26 1.22-88.2 0 0-.6.58c-2.21 4.37-5.43 11.8-10.38 15.26q-.41.28-.45.77-.06.66-.41 1.14l-5.71.1q1.71-2.6 4.6-3.67.48-.18.74-.62c2.91-5.15 7.12-12.32 7.92-18.17.89-6.5 2.36-11.66 1.72-18.95-.28-3.18-1.45-7.07-1.67-10.82q-.04-.59-.63-.59h-.7q-.49 0-.49-.5l-.02-4.89a1.06 1.03-70.8 0 0-.38-.81q-1.24-1.02-1.68-2.51-.12-.42.08-.81c2.12-3.89-8.45-14.73-10.66-16.69-2.08-1.84-3.68-3.97-5.72-5.85-7.49-6.91-11.2-15.29-20.84-16.95q-5.11-.89-10.2-2.04-.41-.09-.02-.26l4.01-1.74q.86-.38-.06-.59c-9.66-2.2-16.71-1.35-26.6.18-2.9.44-6.21 2.2-10.13 1.47q-.49-.09-.95.08c-5.05 1.91-10.61 2.52-15.01 5.12q-5.49 3.25-9.95 7.8c-2.03 2.07-5.32 4.47-6.72 6.66q-3.67 5.75-12.64 21.84-1.58 2.83-2.03 5.83-1.81 12.08-1.22 24.3c.22 4.46 3.41 9.66 4.79 14.04q.92 2.9 5.26 8.33-37.53 7-74.36 18.31a.32.32 0 0 1-.32-.54c16.06-15.75 34.94-29.15 54.3-40.44a.16.15-64.5 0 0-.1-.29q-70.02 11.53-135.8 38.05-1.8.73-.55-.77c18.08-21.63 40.03-40.09 62.97-56.37 72.49-51.47 157.71-86.56 242.55-111.65Z"/><path fill="#331014" d="m212.9 260.45.94.85q.37.33.39.83.13 2.39 1.67 4.19.34.4.37.93.15 2.67 2 4.52.36.37.52.86 1.08 3.39 1.09 6.94a2.1 2.1 0 0 0 .27 1.03q4.91 8.38 8.37 17.44c.71 1.87 2.21 3.29 3.07 5.03 2.92 5.95 6.5 11.32 9.77 17.05q1.07 1.87 2.86 3.67c-11.42 9.99-20.78 18.74-33.62 20.93-14.98 2.54-33.69 1.67-46.05-7.94q-4.62-3.59-11.55-13.03-35.45-48.31-53.67-105.51a.32.32 0 0 1 .57-.28q16.68 24.29 38.88 44.01c6.13 5.44 14.53 10.24 24.14 10.77q26.73 1.47 49.98-12.29Z"/><path fill="#892924" d="M537.02 331.82q-44.78.49-88.56 8.67a.3.3 0 0 1-.22-.54c18-12.32 39.69-21.47 59.98-27.51q3.85-1.14-.16-.93-40.41 2.12-80.24 9.5-4.34-5.43-5.26-8.33c-1.38-4.38-4.57-9.58-4.79-14.04q-.59-12.22 1.22-24.3.45-3 2.03-5.83 8.97-16.09 12.64-21.84c1.4-2.19 4.69-4.59 6.72-6.66q4.46-4.55 9.95-7.8c4.4-2.6 9.96-3.21 15.01-5.12q.46-.17.95-.08c3.92.73 7.23-1.03 10.13-1.47 9.89-1.53 16.94-2.38 26.6-.18q.92.21.06.59l-4.01 1.74q-.39.17.02.26 5.09 1.15 10.2 2.04c9.64 1.66 13.35 10.04 20.84 16.95 2.04 1.88 3.64 4.01 5.72 5.85 2.21 1.96 12.78 12.8 10.66 16.69q-.2.39-.08.81.44 1.49 1.68 2.51a1.06 1.03-70.8 0 1 .38.81l.02 4.89q0 .5.49.5h.7q.59 0 .63.59c.22 3.75 1.39 7.64 1.67 10.82.64 7.29-.83 12.45-1.72 18.95-.8 5.85-5.01 13.02-7.92 18.17q-.26.44-.74.62-2.89 1.07-4.6 3.67Z"/><path fill="#220001" d="M599.06 269.23q-.47-3.38.21-4.74 5.14-10.3 5.8-13.73 1.4-7.28 4.38-14.01c.86-1.94.61-3.34.24-5.3q39-5.68 78.03-7.59a.19.19 0 0 1 .08.37q-47.19 17.21-88.74 45Z"/><path fill="#652a28" d="M609.69 231.45c.37 1.96.62 3.36-.24 5.3q-2.98 6.73-4.38 14.01-.66 3.43-5.8 13.73-.68 1.36-.21 4.74-18.73 12.89-34.24 28.96a.38.37-72.1 0 0 .32.63l19.88-2.8q-3.14 5.39-7.21 10.13-1.42 1.65-2.45 3.71c-1.92 3.86-5.24 6.61-7.55 10.13q-2.1 3.19-4.31 5.97-2.31 2.89-4.14 6.19l-16.63-.43q.35-.48.41-1.14.04-.49.45-.77c4.95-3.46 8.17-10.89 10.38-15.26a1.26 1.22-88.2 0 1 .6-.58q.42-.19.62-.54 3.44-6.07 5.02-11.18.86-2.76 2.74-4.16.39-.29.4-.77.16-5.61 1.43-11.06.21-.91-.34-1.37-.31-.25-.27-.65c.94-8.99 2.1-16.79.1-26a1.83 1.83 0 0 1 .85-1.95q.69-.41 1.41-.4.83.03.54-.76l-5.53-14.95q24.87-5.38 48.15-8.73Z"/><path fill="#220001" d="M567.49 332.51q-1.65-.55-2.15-2.36-.15-.55.22-1l6.46-7.88q.19-.22.21-.51.02-.22.17-.39 5.33-5.86 9.17-12.8c1.96-3.56 5.33-6.13 5.87-11.83q41.59-4.78 84.1-3.91 2.33.05.06.58-24.42 5.74-48.51 15.69c-15.36 6.35-29.99 14.08-41.38 25.3a1.11 1.1-64.1 0 1-.88.31l-13.34-1.2Z"/><path fill="#331014" d="M587.44 295.74c-.54 5.7-3.91 8.27-5.87 11.83q-3.84 6.94-9.17 12.8-.15.17-.17.39-.02.29-.21.51l-6.46 7.88q-.37.45-.22 1 .5 1.81 2.15 2.36l-8.13-.36q1.83-3.3 4.14-6.19 2.21-2.78 4.31-5.97c2.31-3.52 5.63-6.27 7.55-10.13q1.03-2.06 2.45-3.71 4.07-4.74 7.21-10.13l2.42-.28Z"/><path fill="#b3121b" d="M445.67 434h-25.73q-15.52-11.6-31.15 0h-25.96q10.1-25.26 36.98-28.16c20.6-2.22 39.17 7.49 46.87 27.23q.19.48-.29.66l-.72.27ZM552.36 434h-25.39l-.59-.25q-.56-.24-.12-.68l26.24-25.89q.43-.43 1.05-.43h24.94q.78 0 .23.56L552.36 434Z"/><rect width="23.74" height="21.64" x="-11.87" y="-10.82" fill="#b3121b" rx=".48" transform="rotate(-.1 239400.85 -8597.45)"/><path fill="#231f20" d="M149.49 434h-23.64l.02-26.28q0-.54.54-.54l22.61.1q.46 0 .46.47l.01 26.25ZM226.9 434h-23.52l.01-26.41q0-.64.64-.63l22.23.14q.67.01.67.67L226.9 434ZM265.06 434h-30.09l25.72-26a2.59 2.55 22 0 1 1.83-.76l28.75-.01a.21.21 0 0 1 .15.36L265.06 434Z"/><path fill="#b3121b" d="M354.42 434h-27.31q-3.09-4.17-7.11-4.22-9.09-.11-18.3-.33a.66.66 0 0 0-.68.66l-.03 2.9a.72.72 0 0 1-.59.71l-1.48.28h-19.7l-1.89-.39a.65.65 0 0 1-.5-.78q.41-1.8 1.67-3.08 11.01-11.18 22.11-22.26a1.3 1.3 0 0 1 .87-.38c22.82-.81 48.81-2.73 54.26 25.92q.09.48-.36.64l-.96.33ZM477.73 434H455.3l-.03-26.57q0-.53.53-.52l21.18.5a.82.82 0 0 1 .8.82l-.05 25.77ZM515.64 434h-26.56l26.14-26.62q.45-.45.45.18l-.03 26.44ZM583.93 434h-17.46l-1.31-.14a1.52 1.52 0 0 1-.92-2.58l22.86-23.27a3.41 3.4-67.6 0 1 2.42-1.01h56.99q1.84 0 .54 1.3l-20.71 20.74q-.33.34-.81.35l-35.71.68q-.84.01-1.31.72-.69 1.04-.52 2.27.09.67-.58.71l-3.48.23ZM707.43 434h-23.78c-3.8-6.32-17.92-4.64-25.88-4.01q-.52.04-.52.56v1.83a1.39 1.39 0 0 1-1.34 1.39l-5.49.23h-15.46l-1.47-.34a.66.65-80.9 0 1-.5-.7q.17-1.91 1.48-3.24 10.95-11.05 21.83-21.89.72-.72 1.73-.75c21.3-.65 49.64-3.58 50.97 26.19q.03.51-.49.47-.69-.05-1.08.26Z"/><path fill="#231f20" d="M119.4 434H96.59q-.96-4.4-5.91-4.45-11.05-.13-22.27-.02-.55.01-.61.55l-.43 3.92H43.84l.03-26.17q0-.55.55-.55 19.67-.09 39.25-.03 13.67.05 18.93 1.72 16.21 5.14 16.8 25.03ZM195.4 434h-23.54l.11-26.22q0-.53.53-.53h22.27q.66 0 .66.66L195.4 434Z"/><path fill="#fff" d="M419.94 434h-31.15q15.63-11.6 31.15 0ZM96.59 434H67.37l.43-3.92q.06-.54.61-.55 11.22-.11 22.27.02 4.95.05 5.91 4.45ZM327.11 434h-28.19l1.48-.28a.72.72 0 0 0 .59-.71l.03-2.9a.66.66 0 0 1 .68-.66q9.21.22 18.3.33 4.02.05 7.11 4.22ZM683.65 434h-33.23l5.49-.23a1.39 1.39 0 0 0 1.34-1.39v-1.83q0-.52.52-.56c7.96-.63 22.08-2.31 25.88 4.01Z"/></svg>