<svg xmlns="http://www.w3.org/2000/svg" id="Grupo_3598" data-name="Grupo 3598" width="564.323" height="263.763" viewBox="0 0 564.323 263.763"><path id="Trazado_2238" data-name="Trazado 2238" d="M43.037,93.5l4.674,7.346L44.418,102.2l.714,1.309,2.627-1.309,7.092,6.01-5.8,6.758-3.187-.436-.455.63,2.619,3.74,2.177-1.293,1.36,4.989h-3.4l-.455,2.717-2.267-.9-3.169,2.563-.738-1.053.854-8.391-.439-.878.526-.349-.114-.722-1.55-1.124-.648-4.105,1.825-.288-1.047-5.412,2.738-2.145-2.545,1.053-2.685-11.3,1.78-6.6,2.719,3.174v1.785l.511-.513h.9v2.005l1.357-.5.823,4.7Zm5.14,50.708,1.026,1.669L47.06,148l-1.28-1.418Zm-4.169-7-1.352.349-.973-5.031.984-.381-.807-4.185,8.182,1.3.04,2.328-.873,2.1.05,2.973,1.2.283.659,2.854-2.9,3.431.087.378-2.576,1.063Zm18.157,31.7.458-2.391h4.8v2.391Zm39.808-83.13-2.582.182-1,1.151,3.944,2.735Zm-12.409-4.8,2.365-.167,3.254,3.169,11.642-1.005.9,1.772h2.947l-1.722-2.129,5.827.614-1.87,1.516h1.214l-.455,2.719,3.2-1.452.479-3.021,8.171,1.167,3.309,3.309V90.81l.886.238.722-2.7,1.984,1.137,2.788,3.91,2.595,6.885-1,9.761-1.51.265.545,3.447-1.262.376-3.293,11.88-4.126.653-.656-4.134-1.219.2-.111-.709.373-.378h-3.367v1.524l1.915.6,1.37.426-.309.693,3.936,4.3-.373,7.758-2.891,3.836v.479l.6.3-.214,1.373-.386-.3-.013,6.563-3.632-.063,3.515,2.717L125.525,157l.156,1.606-5.565,5.547-.423-.767-1.293-.37-2.955,2.592-3.259-.936-.876-2.844-1.979-.566-3.018.846-1.055-3.711,1.651-3,1.159.413,2.174-3.957.111.037L110,150.563l-1.256.336.566-6.473-1.331,1.05.034,2.4-2.111.688-.029.772,1.045.532-1.934,1.772.463-.138.54,2.46-3.219.936-.537-2.457,2.5-.73-.1-.05.9-.791-.23-6.264-.876.283-.6-.3-.262-2.611,1.632-.529.267-.923,4.444,2.262.8-1.378-.2-6.055-1.762,2.82-.569,3.269-4.835-3.021-.585-8.549-4.465-2.791.272-3.092-2.952.958-1.577-1.1,1.262,1.8-10.771-.328-2.907-4.148v1.362l1.3,1.3,1.495,4.29v2.145h-1.86l3.2,3.812-4.42,3.709,1.4,1.674-.973,1.809,1.939,3.341-3.751,3.148.913,1.434-3.653-.029L71.8,156l.849,1.28-4.082,3.174,3.3,5.727,1.51-.376.249.995-8.42-1.1-.019-.074-2.788.7-.212-.844-.825.849v2.484H53.914v-2.613l2.658-2.746v-.37l-1.809.452L52.774,161,50.8,159.186l2.145-14.525,2.145.291-.717-2.5-.1.029,2.587-13.543-2.333-2.391,2.91-8.8,3.894-1.116-1.717-1.013-1.976-2.677,4.968-19.3,1.666-.558L66.106,94.6l-.637-2.436-1.674-.378,4.089-7.041,1.54-.846-2.582-.079-2.132,4.1L62.485,77.375l-2.9-2.045-.309.846.693.767-1.852-.672-6.269,2.92-.341.939,7.988-2.91.928,1,1.167-.042,1.672,3.949-.1,3.177-3.952,2L61.2,90.414l.735,3.674L59.273,97.6l-.386,2.2-4.865.5L50.592,99l-1.947-1.391-.569-.987-.738-.743V89.572l-.463.463-1.688-1.357V87.626l-.529.333L41.95,86.954l-1.3-6.129L42.222,76.5l.73-10.562,2.492-4.984,2.566-1.085-1.333-.381,2.375-3.669,3.182-.9L53.57,54.5l.645.614,1.368-1.3h2.169l1.066,1.016h.958l4.3,4.084v.423h-1.5L61.7,62.684l3.552-3.322,4.079,3.108,1.018-.27,6.888,6.192.873,5.449.566.727.6-4.275,10.25,9.644Zm-34.6,13.083.246.14,1.309-.915,2.616-.172,1.579.365-2.307-3.693-1.886-.643,1.68,3.426H54.967ZM48.944,80.555l.77.227,1.013-.37L49.7,80.039l-.645-.021Zm63.778,77.015-1.751-.307-.471.854ZM52.38,64.165l-.955,4.558,2.412-3.267-1.071-.8.9-.852-3.016-3.174-.828-.235Zm14.4,9.851-.955,4.153,3.182-3.277.056-.611ZM59.387,75.2l-1.622-1.143-.214.473ZM122.34,128.29l-2.325.429-5.587,5.764,4.941,2.852.19-.682-3.172-4.079,5.439-2.947Zm-10.181,4.88L111.4,130.6l-.275-9.591,5.719-14.9,1.259.484.36.807,3.14-5.2,1.714-.952-2.479-2.1-2.116,1.288,1.3,1.767-7.417,8.687.989,2.129-1.222,3.759-2,1.018-.86,2.648-8.446,2.74,6.489,1-1.36,2.947.883,2.955,2.114-1.669.783.489-.743,2.96-.574.132-.471.757-1.6-1-2.188.159,1.431.894-.455.73,1.473.923,2.082-.167,1.574.981-.056-1.746.585-1.013Zm2.553-9.835-.59,1.756,2.087.227,1.4-.563ZM103.966,96.154V98.6l1.209,1.211-.532.217,4.6,1.532Zm-12.951.275L90,93.389l-.368,3.166Zm-2.291-6.962-.611-2.172-.965,2.894Zm-.971-3.447-.4-1.428-1.616,1.19ZM115.624,149l-1.23,2.129,4.156-2.079ZM74.872,130.274H74.3l-.518.521H68.809l-.246,1.1,5.251-.706.119.13,1.055-.886Zm-2.418-14.736v.569h3.481l.807-1.8Zm9.755-2.619h1.711l-.153.5,3.6-8.163-1.383-2.717,1.841-1.458-.447-4.317,1.034-.1-2.579-2.243v14.189Zm.616,3.526-1.087,3.494,1.161-.606,2.706,3.865,1.338-.63-2.288-2.463ZM55.969,145.074l1.55.212,2.518-1.378Zm11.48-3.293,1.6,1.555,5.669,1.624-3.56-4.243Zm2.4,3.28L68.685,147l.415,1.674,1.013-3.531Zm-.5,4.6.053.214-.521,1.711.241.368.511-1.78Zm60.773-38.448.717,3.484,1.547-.675,1.415-3.457ZM78.052,98.27l-5.634-.376-4.441-1.748,5.174,4.267,3.836-1.87,1.066.878ZM79.091,81.4l2.336,1.786-.093-2.64Zm31.89,28.544-1.487-2.1-3.357,3.616,1.14.37ZM90.045,122.159l.786.516,1.227-.86.222-.68ZM56.435,84.34H54.171l1.188,2.426Zm24.807-6.47-.053-1.487-1.074.04Z" transform="translate(63.263 88.531)"></path><path id="Trazado_2239" data-name="Trazado 2239" d="M49.587,154.413v.637h.87l-.061-.637Zm3.777.548-.548-.341-2.251,1.717.063-.685-1.219.053-.238,2.6-.251.021-.1-.754-.9-.492-5.745,1.7-.918,1.312,2.262-.1,1.524.64.061-.048-.042,1.59,5.264-3.145.22-2.431,5.565.021.952-.794.14-3.418-.347-.6Zm-17.622,2.465.056-.04.005-.407.378.18-.529,1.074Zm-2.449-.648-.582-.738.5-.278.992.468-.579.661-1.087.325Zm9.446-9.771-4.933,5.039-.111-.106-2.264,1.807-.05-.085-5.2,2.844.272.783.635-.352.024.056-.05,1.079.664-.386.764.833.063,1.217.656-.439,1.048-.1.743.341-.4.807.91.106,1.423-2.7.288-.1.36.169.151-.347.349-.122-.13-.384.7-1.619-.22-.106.048-2.537-.55-.532,1.42-.468,4.812-4.759Zm2.772-3.336-.352.373.225.36.193.079-.413.442.587.238.045.058.209-.225.553-.119-.111-.053.682-.73-1.307-.526Zm1.368-1.352,1.278.463,3.148-2.965-.1.423-1.325,10.552,1.222.063,1.365-9.2.241-.931-.119-2.113.759-.714-.934-.841Zm3.912-6.2.145.4.95-.331-.087-.415Zm13.953,11.21-.069-.018.431.648-1.286,1.735.05,1.108-.846.561.3-.645-.569-.587-.616,1.346.349.246-.571.378-1.532,2.8H64.8l1.1.251.14-3.6,1.36-1.6-.357-2.061-.987-.241,2.907-12.216-1.214-.328ZM53.5,132.961l.135.764.7-.27-1.122,1.386.267-.029.717,1.526-1.013-1.026-.616.518,1.378,1.452.69-.5-.056-.056.68-.071.566-1.032-.143-1.333-1.317-.849.833-.32-.272-.712Zm3.981-.582.019.6-.082-.008-.1.8.222.6,0,.1.09.153.037.1-1.651,14.268.593.339,1.878-13.21.436.759.325-1.685.14-.108-.1-.122.061-.32.511-.7-.045-.278.452-.619-.341-.249.286-.392-.73-.534-.354.484-.915-.667Zm10.806-1.129-.341,2.508,1.074,1.42.995-3.679-.429-.3.024-.177-.5-.37Zm-16.744-3.484.8,1.807.8-.148-.082.108-.294.04-.267.8.391.675-.2.267.466.349.548.145-.034-.22.593-.786-.421-1.283-.241-.185-.891-2.021Zm7.121.13-.381,3.23,1.307-.754-.291-.511.384-.484-.4-1.1,1.235-.712-.246-.593Zm-8.253,4.566.391.677-.407,2.566,2.336-1.534-.116-.852L51.465,131.1l.288-.915-2.045-3.5Zm16.89-5.632.241.661.053.077.659.934-.063,1.045,1.005.984.558-.272.918-1.418-2.042-2.918Zm-8.658-2.867-.019,2.449,1.418-.079.021-2.452Zm-9.634-.762.532,3.013.471-.3-.495-2.8Zm16.792.963,1.024,1.717.23-.659,1.233.2-2.637-4.4Zm-16.538-2.227.9-.328-.505.865.669,1.659.862,2.254.2-.016.32-1.045.148-.079-.188-1.833-.569-.495L50.46,121.5l.378-.14-2.156-1ZM58.867,120v3.113h.759v-.286L60.5,120.1l-.037-.1Zm.093-1.743v.64h.865l-.056-.64Zm3.362.312,1.317.4.881,1.653.563-.288L63.5,117.354l-.558.294-1.164-2.143-1.13-.357Zm-4.087-7.38.238-.307,1.278.217-.042.3ZM46.355,107.3l2.182.36.029,1.778Zm4.714-.921,3.457,1.555-.421.5-1.14-.4-1.259.347Zm-19.635-1.214-.251-.119.19-.508.582.148-.436.669Zm10.581,2.14-1.9-2.629-1.328-.616-.272-.349.471-.447,6.219,6.007,5,1.955.6-.011-.878,1.122L48.439,111.1l-2.484-.434-2.629-2.193-1.206.2Zm1.643-4.481.27-.55,1.55.757-.167.788Zm-3.687-.487.878-.727.9.878-1.971.034Zm20.966-.156-.106-.846.688-.333,1.008.347-.841,1.074Zm-4.113.368-2.859-2.1L57,101.668l-.243.307,1.558,1.619-.09-.074-1.505,1.793Zm-5.073-2.084,1.214-.415.767.307-1.148.569Zm5.478-1.537.743,1.521-.741.934Zm-8.623-.19.241-.489L50.6,99.835ZM24.524,96.624l.336-.511V97.1ZM39.491,86.006l1.151.317-.177.09-.41-.132-.868.886.037.513-.931-.082-.63,6.557.577-.048-.167,2.32L39.6,97.917l-.2.407L36.8,97.957l.2.587-1.481.508-.249.513-.487-.627-4.037,3.254-2.952.1-.116.235-.048-.016-.087-.2v-.148l-.148-.2.675-.3.124-.325-.947.423-1.222-1.645V95.166l-1.172-.5v.05L24.193,93.3l.965-.675-.1.841,1.333-1.7.262-.185-.381-.73,1.153-4.809L26.04,84.953l-1.087,1.389-.413-.32-.183.238.384,1.378-.423,1.651,1.071,1.394-.019.153-2.531,1.772-.209,6.856L24.86,97.9v.889l-1.423,1.423,1.055,1.053h.518l-1.6,1.838,1.844,2.82,2.177,1.275,1.59.442.775-.124-.391-.876.653-.291.249.558.315-.175-.936,1.439,3.8.881-.048.965,5.69,1.878,5.293,3.063,1.809-.484.2.735-.5.778.167.148.484-.365.349,1.3,1.2.69.487,1.809.611-.148-.876-3.269-.611.161-.143-.529,1.188.235,2.092-2.682,5.528.2,1.534-1.965.632.989,1.333.138.675-1.008.582-.2-.042,1.13,2.7.257,1.717.4.394,1.793,1.172.574.161-.037.743-2.545L64.2,108.8l-1.159,1.238-1.391.518.177-.619L64,108.361l-5.084-4.267L62.6,106.21l.444-.235.093,1.32,3.648-.257.1.09-.251.349,2.1,2.5,2.817.582.074-.9,3.193.114,2.468,1.619.68.809.339-3.865-.939-2.164,0-.048L77,105.25l-.645-.058.119-1.365-.989-1.182-1.069-.093-.436-.521-3.933-1.59-.23.532-.153-.085-.077-1.071.46-.526-5.677-2.656-1.159.553.087,1.267-.511-.476L63.3,96.5l-.529-1.087-6.184-.952-.019,1.116-.841-.844-2,.082-1.476.873-.664-1.024-3.105,1.553-.823,1.645.2.468-.177-.053-1.2-.042-.127.6L43.1,97.243l-1.1.2.116-.468-1.071-.267.455-1.09-.8-2.479.22-1.973-1.071.206.177-1.894,1.2-.614.27-1.96-.2-.4.124-3.238L39.6,83.112ZM14.962,80.343l1.1.481.54-1.505-1.1-.481ZM40.1,75.534l-.188,2.616L39.6,81.673l.27.108,1.092-1.172.249-.011.931-2.534-.431-1.016.085-2.643ZM29.931,73.74l.989,1.288h.455V73.193Zm11.02-4.132-.8.719-.082.413.1,3.219.458.2.532-1.7,1.2.524.167-.116-.169-3.193-.3-.235-1.177-.3Zm-22.23,1.815.7,1.129-.46,1.053Zm.741-3.7L18.12,68.9l-.3,1.066.309.5-1.114.339-2.434,3.227-.455,1.3,1.2.312-1.225.106.794,3.992,1.473-2.542-.836-.3.794-.944-.087-.071.989.254,1.788-2.005L19,73.941l1.227-.22,3.576-2.33.894.111.23.571.717-.455.394.048.772.783-.093,1.407,1.262.537-.442,1.04,1.177.061.217-.936v2.6L27.8,79.084,26.426,80l.206,1.664L26.1,82.808l.209,1.706.717.344.913-.473,1.637-5.743-.312-.735.511-.209V73.074h-.495l.407-1.767-2.235-.947.159-.645-1.693-.72-.823.331-.32-1.148-1.407-.407-.193.852-1.151-1.169ZM31.629,68.8l.614-.608-.172.622Zm3.563-6.687.177.513H33.621l-.833,1.693v.518l-.27-.1-1.209,1.1.685,1.045-1.085-.508-1.592,1.9-.233,1.32.243,1.28.775-.042-.063,2.05,1.37-.034.915-2.82.555-.347,1.3-1.727,1.048.36,1.489-1.6-.466-.18H37.6l-.278-1.693h-.241l-.119-.159.632.045.2.571,1.01-.357.177.108-.315,1.373.881.55-.021.815.455.772,1.481-2.092-1.637-3.037-1.085-.677-.119-.341-2.362-.669Z" transform="translate(23.201 101.586)"></path><path id="Trazado_2240" data-name="Trazado 2240" d="M28.039,141.347l1.336,1.711,3.82-.085-1.09-1.4-.548.426-.624-.368-2.243-.669Zm17.68.362.955.5,1.349-.151-.516-.786-1.082-.91Zm-25.994-9.679,1.018.55,1.815-1.709-.754-.423-2.018-2.09Zm-2.92,4.751.238.476-1.111.886Zm-1.434-10.956.41,5.616-.333,2.426.272.524-.442-.2-1.1,4.4.59,2.275h1.172l.275-.4.653.68,2.571-.077,3.473-.045.077-.235-1.256-.812-.034-.206-2.571-.558-.947.45-1.328.082-.431-1.053.513.2.254-1.346.537,1.085,2.59-5.111-.7-1.307-2.41,2.838-.085-.04.042-2.071,1.643-1.791-.249-2.476.751-1.912-.2-.381-.59.381-1.8-1.947Zm26.251,14.141.275-.868.151,1Zm-1.246-3.8.582-4.648-.447-.138.175-1.079,1.545,1.378-1.333.809.024,3.783Zm-12.033-7.8,1.558.323-.854,1.976-2.534,1.775.333,3.185-.3.9-.209-1.344.066-5.338,1.254.542ZM30,127.84l2.545-1.452.365.376-.3-.151-2.23,1.563ZM43.566,125.3l.227.28-.381,1.632Zm-3.912-.783.349.259h2.153l-1.537,1.286Zm-20.715-1.51,4.026,1.008.008.143-3.738.13-.037-1.116-.516.019Zm5.428,1.174.257-1.034-.238-2.616-.548-.913.27-1.085.217.1.786,4.6,1.259-.8-.812,1.852.384.354Zm9.166-6.475.262-.3.558.114v.233l-.558.648Zm4.857,2.185h.1v-2.524l.447,1.077h2l.328.979.3-.656.135.3v.561l-3.272,1.286Zm7.6-1.91.291-1.645.233,1.106.931-.637.23.384-1.143.992Zm-20.633-1.59.238-.389,1.852-.328.217.611-.693.442Zm3.806.622-.611-1.725.476.05.362,1.857Zm15.4-2.534.627.228.087.328,1.148-.466-.238.7-3.928.7-.481-.921,1.968.354Zm-28.79,1.368-.606-1.7h2.412l-.5,2Zm3.83-1.116.145-.579h2.648l-.839,1.063Zm12.837-.9-.233-1,1.526.495-.669.928Zm12.028-1.756.167.608-1.669.5Zm-8.843.2-.077-.436.257.116,2.317,1.034-.452.817Zm-11.782-1.312,3.619,1.235-1.135.307.5,1.418Zm24.952-.4,1.153-.32.029-.46.336-.127.378.479-.378.825Zm-25.851-.5.521-.421-.394-.484.8.085-.167,1.571Zm-8.351,2.471.085-.468,2.862-3.666.008.069-2.9,4.232Zm12.726-3.925,1.013-.333.138.526Zm-5.975-2.222-.347.243.066-.378-2.238.275L14.427,109l-1.291,1.619-.466-.267-.955,1.354.347-1.717-2.476-2.576L6.88,109.261l.608.78.1.074,1.256.907.4,1.508,1.6.968-.309.391-.667-.384-.344,1.275.458,2.738,1.754,3.878,4.4,3.579.68-.474,3.079,2.431,2.365.934-.127.489,3.235,1.034.183.077-.518,3.73-1.825,3.96,1.579,1.053h-.5l-.481-.444-.778,2.031.926.926v1.116H27.4v-1.177l-1.172-1.169,2.058-.68,6.031-9.61-.4-1.947.481-1.264-.148-2.169-6.925-5.571-2.534-.926.063-.108,2.955.616.685.764-.22.323,3.317,2.047-.04.045,4.058,2.907,1.145-.357,1.336,1.336h.577v-1.074l.939.659-.309.056-.423,4.105-.37,3.037.8.791-.434,3.587,2.27,5.124.963-.722.124.833.487.368L41.4,141.5l.217.561,1.508.473,2.566-.815-.32-1.407-.891.333-.27,1.2-.685-.085.241-.172-.026-.206.505-.347-.921-3.661.243-.267.452-6.515-.915.558.058-.735,1.151-.431.061-3.616.571-.632.54-.6,1.574-1.733-.7-.1-.587-1.235L45,123.256l-.429.212V121.2l1.484.354.675,1.092,2.259-5.521-.582-.973.087-.061,4.962-.46-.106-.495-3.4.315-.537-.347.561-.267-.82-.952-.931.444-.468-.3,1.455-.593.7-1.746,1.161,1.079.238-.357.481.354-.32.489,2.087.2.987-1.407,1.219.45.28,1.479-.328.074-.108-.172-.307,1.333,1.182.14.809-.28.352-.815-.28-.45.148-.026-2.481-2.645-1.122-.376-.071-.288.942.357.061-1.032-1.926-1.6-.233-.267-.365-.1.021-.651.164-.3-.791-.439L50.153,107.6l.585.28-.447.376-.225-.019.058-.913-.468-.566-1.373,1.791.032,1.891-.9-.235.622-.381-.688-.857-3.333,1.907-2.33-.606-1.627.955-1.394-1.145-.582,1.32-.735-2.4-1.37-.249-1.045,1.9L33.5,109.382l.288-.415,1.614.749-.82-1.346L31.1,106.891l-.111.061-2.36-.093-.505-.587-4.685-.352Zm-16.89-2.018.455,2.5-.056-.008,1.262,1.053.193-1.373,2.285-.524,1-.833.272-.648-1.246-.69.008.317-.339.442-2.9-2.013ZM1.78,99.185l1.124,3.2,4.037-2.045,0-.8.272-.1.019-.944-1.645-.672ZM2.849,92.85l-1.807-.841L0,93.448l.812,3.59L1.5,95.564,4,96.728l.645-1.386-.169-.466.569-1.217-.669-.312.36-.775L3.293,91.9Zm-.836-7.266-1.251-.1.114,1.672L.463,88.319.55,89.586l4.5.476L4.486,87.8l.526-.235-.675-2.714Zm15.072-.831,1.854.161.119-1.365L17.331,83.4ZM3.632,80.29l1.143.463-1.719.394Zm-2.6-1.079.378.963-.093.222,1.286.854-1.365.315L.889,82.981l3.791.4L6.338,80.4l-.09.021,1.333-.947-1.592-.225-.653,1.238L5.256,79.4l-1.735-.159-2.312-.27Zm19.154-2.539.251-.14-.7.2.016.045-1.934.458,2.095,4.362-1.762-1.812.124,2.606.8-.156-.143,1.085.508.077.32-.233-.124.963,1.3,1.944,1.463-3.418-.709-6.333ZM4.018,74.738l1.643,1.987-.021.505,1.2.966,1.685-1.161.251.082L9.2,75.979,9.261,75l-.569.391-.447-.854L6.9,75.027l.042.587-.653.169,1.092-1.64L5.909,72.368Zm5.671-3.444.288,3.449,1.1.558v.3l.942.8.656-.021L13.8,75.2l-.5-.492,1.05-1.029.529-.127,3.388,1.582.421-2.166L18,71.1,16.226,72.72l-1.42.336-.111-.384-.659-.889-.243.124-.526-1Z" transform="translate(0 116.657)"></path><path id="Trazado_2241" data-name="Trazado 2241" d="M243.365,113.976,244.743,118l2.793-.624-1.233-3.6Zm15.025-5.1-3.182-.616.817-2.315-22.656-1.354-6.848,7.986,2.526.18,7.1-1.09,1.672,1.711,2.386.169,14.186-2.986.069-.2,2.415.468,2.568,3.2,2.513,5.507,2.91-1.272-2.743-6.01.463-2.233,5.624,1.09,2.143-.825-2.359-.458.4-1.947-3.235-.627-4.989,1.963L259.037,109l6.208-5.587-6.552-.341Zm-1-48.97,1.309,2.635,4.394-2.127-1.307-2.635ZM88.4,60.7l11.332.839,1.283-.831-2.981-4.56Zm80.348-10.02-4.605.783,1.135,1.735-4.158-.333-2.817,4.7L155.655,60.2l-5.169,6.827,2.915,5.2-.563,3.817-4.452-.466,1.164,4.745L165.7,89.45l-3.484-10.337-2.285-2.923,1.857-4.15,4.6-17.413,2.545,1.2-.955,3.851,1.219,1.807,5.169-2.949-4.206-3.214,1.489-5.674,5.235-3.933-.5-.775Zm60.876-4.113,1.9-1.741,1.407,3.113,1.5-.648,1.976-4.7-11.446-2.732ZM121.794,29.875,130.711,40.5l6.108,3.658,1.264.114,3.063,11.832-2.891-.349-3.939,1.01-1.468,1.042,3.941,2.709-.331.762.913.116.288-1.293-.741-1.976-.817-1.04,3.7.45,1.278.865-.926,5.01,5.523,5.444,4.521-1.968.153-1.487-3.132-8.436,1.362-1.267-.413-.138,1.423-6.616-1.344-.452-2.219,2.643-.505,1.264-3.51-9.451-.95-.37-1.28-7.9,1.241-.987-.868-1.275-2.293,1.733-1.719,4.306-6.367-3.209-.622-2.8-1.193-1.3-5.267-2.029Zm54.83,4.074-1.878,2.619-1.854.365-3.46-.844-2.381,2.6-2.624.759-.558.611-.693-7.491-2.814.312-9.316-3.7,3.7,7.213,2.066-1.434.979,3.238,1.537-.418.889-1.521,1.386,15,3.158-1.619-.492-5.312.291.1,11.618-5.4.484-.989,2.981.55-1.005,2.254L179.409,42l6.714,1.317-1.159-2.677-1.153.722-2.627-3.9,2.7-1.537-1.114-1.759-.69.4-2.5.161-1.349-3.275.619-6.542-1.376-.317Zm15.451,208.735.563-2.333,2.082.836.378.46-1.111,1.312Zm-82.988-13.834,4.256-3.084-3.711,4.968Zm89.648-4.15,12.4-12.2.243.291-4.047,6.169,9.639,5.957-6.415,3.558-4.314-8.483-7.568,4.846ZM153.9,203.622l8.258-1.555,1.505,5.29Zm-12.268-4.693,2.513-.709.672,1.928Zm82.472,1.026.3-2.854.788.085,2.643,3.1Zm-105.041-7.266,3.793-.005.2-.9,6.454-2.28-3.756,12.083-1.809.786-.034,1.992-1.153.907-.468-.138,3.428-12.808-7.936,4.328Zm16.181,3.8-.995-6.142.521-1.669,1.981,8.388ZM187.3,173.715l6.875-.2-1.264,6.274-1.36,1.135Zm21.3,10.93,5.478-.159V178.35l-1.479-1.362v-3.994l2.407-.066,2.934,12.533,6.425-9.221-3.344,12.544ZM215.99,172.9l.2-.008,2.217-2.166,2.008,4.83Zm-76.417,12.186.979-9.5-2.608-3.777,5.029-3.611-1.854,4.455,7.2,5.333-.78,2.439-5.121.145,2.206,6.269Zm15.715-18.056-.317,7.594-3.732,1.963Zm27.56-1.778-3.407,15.017-1.428,14.871-1.066.886-.775,7.319.944,1.132-.225,2.32,2.193,1.286.484-.675.754.9-2.423,2.018.881,4.447.145.172,2.066,13.866,7.581,13.366L163.078,238.5l.156-.9,1.524-1.055-3.283-19.836,2.574-8,2.434,8.549,5.766-1.156-3.492,9.882,1.2,8.658,6.253-.241,6.245,5.706-6.981-33.128-1.188,3.359-3.2-11.258,1.849-2.7.4-10.856-7.11-2.717,2.219-1.2,7.335,1.73,5.089-16.506.542.325Zm-20.461.558,4.026-7.705,6.11,3.687-9.168,6.248-7.727-1.82.963-2.27,2.992,2.217Zm-12.1-19.654,3.322-.479,2.635,3.508-5.513.7Zm56.97-1.87,1.315-.817,4.031,6.073-.132,1.719,5.521,9.787,4.51.183-1.891,4.306Zm-24.833,11.761L179.56,142.7l1.346-.788.717,6.444,1.309-1.434v9.586Zm-58.863-14.353,1.95.082,6.177,6.147,7.645-2.233.407,5.61-2.558.328,4.687,7.359Zm50.968-10.922-1.83-5.737,1.4-.473,3.166,8.335Zm-38.861-2.621-4.309-4.283,3.121-1.669,1.693,5.975Zm79.316-7.446-.648,3.706-6.605,9.023,3.111,5.515-3.912.513-3.783-2.076-7.065,3.164-6.15-1.278,1.18-1.286-1.7-3.785-6.5-6.52.1-1.984,6.063,3.83-.873,2.579,11.84,3.312Zm-88.236-8.642,3.373,10.575-2.666-2.65-6.772-.4.23-.233-4.164-5.772,6.171,2.563Zm11.046-.907,3.595-9.382.921,2.071-.96,9.867-3.381.09Zm26.412-8.785-.132-5.161,4.134,4.563-2.254,6.65,1.352,3.711-8.666-6.785,1.294.384Zm-30.221-6.28,3.145-1.8,1.077.32,1.992,4.484Zm42.085,3.1,1.674-2.106,3.314-4.3,5.986-3.986,15.847,18.847-3.965-1.1-4.912-9.007-4.64.4-.677,1.989-13.192.918Zm31.991-9.65,6.1-2.394,7.071,2.944-1.3,2.717.349-.008-1.7,1.561ZM190.643,86.4l3.933-.59,1.032,1.563-6.563.093Zm24.582-52.441.389.344,4.272,2.574L215.9,47.719l-1.36-4.013-3.423,7.772-.817.4.344.669L210,54.028l-1.214,1.079,5.2-13.382.981,1.8Zm-9.01-28.936,0,2.9-.331.436-5.642-.487-3.259,2.891,3.735,1.434,4.132-2.481.936,8.417.767,5.788,7.8,5.677-5.867,6.785-3.515-2.471-.2.267-4.007-4.161-.839-3.5-2.576,1.786,4.41,3.88,2.531,2.627-1.45,1.915,3.328,2.341L196.108,50.7l-2.717-1.912-1.574,1.635,3.251,2.285,2.423,5.446-2.3,3.267-.468-4.222-8.174,10.1-5.671,14.435-4.4,6.24-5.118,2.537v7.055l-1.6.823-5.7-6.288-2.177,1.8L133.415,70.447l-5.113-.114-3,4.161,5.515,7.7,1.212,8.629-1.955.537L123.08,73.277l9.248-6.88-34.7-13.559,1.881-3.957-25.19,7.393-8.229-4.015V49.986l-2.526.077v.656L61.73,53.253l3.666-.111.429,1.815-.95-.032L77.149,56.8l-6.777,2.754-4.939-1.41-1.172,3,.048.077L60.09,58.517l-2.283,2.725L63.349,64.8l-3.468,1.407-1.256,2.055,2.51-1.021,1.241,2.021,2.5-1.013,2.439,3.719,2.51-1.616-2.873-4.38,1.762-2.934,11.348-4.613-.108-1.193,1.01.156,4.211-4,3.4,2.677L95.8,53.084l.476.587.394,1.19.212-.444,9.546,11.753,3.986,1.968,2.354-3.508,1.182,5.259,6.74,3.325-2.539,5.132L128.344,98l.278,8.073-.188.429-5.478-10.113-6.973,1.68-2.8,5.174-.029-1.423-2.148-3.447-2.688,1.018-.368-.593,1.584-1.233L102.6,94.642,92.729,83.781l-.524.415-.4-.479-2.645-.233-5.372-14.9-2.865-1.069.727,1.214.772,8.346L78.955,73.83l-4.687,4.047,8.242.212.108,1.19-.965.177L78.707,82.21,70.583,83.7l-.5,1.791,6.2-.151,4,1.378,1.442-1.8-.37-1.915,1.539-.727.135,1.458-.6.206,7.618,12.313-.9-5.267,7.428,14.541,8.642,4.391-.7,2.026,5.669,1.891,6.2,10.076,1.928-1.947-.73,19.466,3.587.153-.421,10.644-4.32,7.515-3.486,14.657,4.6.45-.963,4.343-3.365-2.026-6.251,15.63-4.777,3.738,2.283,8.61-6.134,5.936-2.016,19.339,5.38,5.735-5.452,5.888,2.407,14.125,2.6-3.939,8.819,2.362,4-5.238,1.3,1.386-.6-2.3,11.977,7.237,19.4,1.188-6.5-16.966,1.344-.439,3.283,1.849,6.417-.077-4.991,9.232,11.872,6.7-2.188,3.388,2.024,1.145,10.554-4.261,13.39,1.479,10.091-9.39,9.919-.159,6.105,7.518,26.637-1.748L230.12,228.5l-2.592-3.74-5.444-9.221-1.206-3.989,9.049,7.832.9,11.38,5.208-2.484,1.709,1.01-3.359,10.538-1.457-.227,2.96,9.02,1.389-.463,3.531,5.666,2.859-2.23,2.23-1.656,8.234,2.812.942-2.968-2.166-5.06.161-.116-.447-.548-4.185-9.777.079-.28-.3-.241-.749-1.751.344-2.325-1.637-.331-.341-1.7,1.074-5.277-2.645-15.63-3.973-7.232-9.647-2.685,14.1,2.706L232.855,170.1l-6.965-11.544,2.238-2.465-3.5-38.876-3.087-2.965.135-.135-.254-1.312-12.755-3.547,3.563-3.031,11.718,6.891,14.416-26.859-6.425-2.767,3.7-6.692.958,2.537,4.806-3.74,4.759,1.786,1.661,2.936-.13-3.381.7-.019,1.786,2.5,1.161-.145,1.05-1.336,5.833,9.4-.632,2.137.4-.05,1.4-5.05-2.013.254-.635-1.222,2.529-3.219-2.071-3.515,2.632-.071,6.169-1.672-9.414-.569-1.309,1.018L252,73.322l3.246-2.161.545-9.869-4.73,9.134-7.042-.175-10.128,1.881,1.41,3.738-2.537.053L214.545,85.5l.286-15.749-8.2,0-.989,3.309-.008.455-.1,5.531-3.391,4.018.757,4.214-3.9.053-5.023-9.864,2.788-1.82-.026-.233,4.854.132,3.433-9.769,1.352,1.391,2.264-2.008,3.854,3.973,4.423-2.677.553-2.889.4.119,1.352-3.756-.463-3.076.085-.452-.278-.823-.074-.492L223.4,36.493l-1.341-1.108,2.846-2.764.608,2.785,9.853-1.881,8.533,4.515,1.481-1.193-12.141-6.661-2.873-4.074,7.269-11.057,2.592,1.185,5.645-8.5-10.205,4.814-.616,1.3-2.37.667-2.87-.111.124-.719.936-.082-.328-.894-1.455.386-1.656,1.68-.661,1.272-1.323-3.619.325-1.931-.434-1.182-2.756-1.283L222,8.216l2.381,6.523,2.172,2.315-2.061,2.685-2.756.516,3.571,6.65-1.45.9.511,2.336-9.092,1.791.045-1.627.571.418,5.629-4.7-7.478-1.875-3.058-2.227,1.7-2.148L207.239,9l2.889.016-.381-.508,2.542-5.409-1.246-1.664Zm-4.632,1.391,3.587.235L201.436.391,200.721,0Z" transform="translate(95.104)"></path><path id="Trazado_2242" data-name="Trazado 2242" d="M227.847,77.311v1.111l1.928,1.926,1.018-3.037Zm-9.054,48.129,1.828-1.825.526-2.973-3.351,3.01.69,1.238-3.225.928-.63,1.939-1.071,1.119.82,3.912,1.952,1.116,3.595-.352,1.987-1-.032-1.529-1.984-1.407,1.005-.6-.153-.1,3.41-2.568-4.7-.579,1.167,3.06-3.074-2.106,1.135-1.479Zm23.913-13.752,1.111,3.029-.6.206.6,1.741.632-.217.415,1.13.709-.3,5.552-.487.045-2.656,2.243-.772.1-1.984-6.727,2.317.87-1.193-2.672-1.3,4.521-.96,3.076-1.574.95-2.383-7.063.82-1.418,1.264-3.714.958.759,2.489Zm6.2,11.917,1.785-1.333-.836-1.238.056-.05,2.378-.68-.844-.495,3.055-.645-.4-.714-4.306.4-.934-.339-.632.13-.317-.468-2.151.227Zm-80.155-7.145-.333-.955.857,0L169,114.085l-3.132-.005V115.5h.722l-.069.275-.548.331.249.169.714-.026.013.373.3.278.376-.4Zm-3.24,5.9.389-2.227.32-.426-.836-.627,1.976.066.029-.846-1.42-1.524-.8,2.14-.085-.063-1.532,2.032Zm-3.24-1.727.235,2.873,1.257-.243.22-.328-.725-.487.511-.37Zm-1.934,2.214.992-2.227-.336.13-1.862-2.206-1.106.423-.376,1.542.648,1.688Zm5.531-9.872.958-.145,2.1.518.37-2.121-.69-.233.262-1.5.36.018.156-2.722-1.719.235-.14,2.4.22.013-2.254.4v.979l.381.873Zm1.772-6.274,1.825-2.05-.272-1.233h-1.616v-.741h-1.291v.6h-.6v.95l-.283.246v1.077h2.235Zm-3.111-6.177,4.764,1.545.653-2.066-.558-.513-1.291,1.085-1.058-.894-.7.23-.447-.534Zm8.174,11.8-3.563,6.11.063.148-.674-.005-.934,1.331,1.3,7.584,2.415-2.415-1.246-.873.339-.487,2.444,2.034-2.27.114,2.674,3.068-1.677.315-.936-.566-.64,3.5,1.836,1.2.36,1.791,5.087-.958-.352.537,3.105-.421.553-.852-1.259-1.756-1.383-.2-.928-.2.143.645-2.061-1.346-.394-1.96-.526.1-.037-4.2,1.96-1.957-3.828-1.558,1.317-1.886-.775-.542-2.108-.021,2.129-1.41-.032-1.344,1.177-.5Zm-.746,9.179.918,1.584-1.812-.3Zm-2.8-23.137.807-1.516-.032-.632-1.323-.14-.947.3-1.153-.122-.764-.082-.19,1.812Zm91.944,33.7.14-1.1,1.666.058,1.344-.6.048-1.41-1.682-1.349.008-.188-1.315-.265-.106,3.016-.675-1.659-1.775-.682-1.7,1.447-.865-.508,2.352-2.111-1.619-.2-1.555-2.383-1.161.407-1.553-.868.19,4.888,1.825,1.632.251-.225.13,1.053ZM175.716,112.1l.4-6.179,2.333.585.524-1.227-1.865-1.981,2.492-2.116-.2-.439-.762.336-1.151-2.582-2.576,1.148-.071,8.324-.759.466Zm78.486-7.626.333-4.73-5.063,4.4Zm-33.348,14.313,2.33,2.3-1.751,3.441.656-.27,2.465,1.817,2.873-3.33.175-1.458-.976-1.193-5.073-2.624ZM201.348,81.324l-.566,2.3-.667.479-.3-1.04Zm1.558,2.248-.614-.846,1.1-.8Zm.971-3.325-1.016-1.8.926-2.148-5.084.77L198.6,79l-1.317-.727-1.788-.138,1.749-1-6.018-.251.066.931-4.854-.373-15.781,5.433.46,1.333,1.375.672-.757.511.447,1.161-.606.489-.4,1.18-.378.3-.868-4.082-3.441,5.3,3.8-.809-.4.325.352,1.587-.421,1.717-.14-.085-.283-1.1-1.01-.442-.55-.746h-.2v.339H166.5v1.137l3.061,1.4.034.151-2.949-.574-.272,1.5,3.976.772.508-1.288.373-.206-1.032-.624.995-.423,1.764-3.309.672.593-.024,1.174,2.047,4.708,4.88,6.171,3.645,1.711-1.706.053-.156,4.031-4.055,4.071.463.447-3.709,2.248-.473,1.9,3.846,6.549.873-.68-.122,2.624-.429.386.434.484.759,1.711,2.8-1.735.235.825-3.1,1.791,1.37,2.373,1.942,1.3,1.558-.9.005.325-1.362.852,4.145,1.291.841-.526.672.675,1.688-1.354v-1.828l-.91-1.317h-.849l.071-.124-2.952-2.01L185.405,128l.085-.717.257-.145-.63-1.674.05-.048-1.746-6.095,2.4-3.756-1.407-.9.479-1.352,2.008,3.224L197.11,111l3.222-5.727,1.074-4.15-.36-2.01-2.264,1.055L198,98.483l1.447-.675-2.267-3.886,1.212-.717.632.518-1.061.3.468,1.635,2.077,2.941,1.272.706.365,1.275-.27-.119-1.2,5.759.783,1.569,1.069-.77,1.947-.558.336,2.114,6.245-2.894-1.812,2.4,1.278,1.841,1.116-1.854,2.079,1.46,2.658-2.227,1.775,1.246.053,1.934,4.4-1.01-.778-3.952-2.791-1.96-.812.96-2.775-2.24,4.872,1.6,5.632-4.5.518-1.209.815.36-2.595,3.346.579,2.164-2.079-.442-.632,2.976.63.979-1.635,7.348,1.981,1.748,4.007-.4.717,1.164-1.4.175-.524.466,2.166,3.336,3.873-7.2-3.365-1.36-1.029.439L228.72,115l-4.37-1.619,5.6-2.333.349.164.635,1.577,1.338-.653,1.177.55.294-1.267.159-.077.947-1.693,4.841-3.587-1.767-3.455-4.214,2.055.164-.775-.275-.058,3.008-1.222.31.217.336-.481.373-.153,3.415,1.122L241.5,105l5.666-2.029,1.748-2.071.3,1.04,5.206-3.415,1.7-.489,4.931.921-1.381.463L261.33,103l1.778.717,1.013-2.788,1.635,1.381,1.989-3.455.148-.032.061.04-.791,1.865,3.42-1.042.675.315.841-1.8-.78-.365-.566-3.14,2.119,3.825.619-.077-.383,1.029-.733-.569-1.037,1.315,1.51,1.172.09.415.656.518.857,1.3.971-.241.585,1.167.772-.235,1.074-2.005,1.188-.989,1.481-1.058-.04-.145.19-.161.09.251.7-.291.923-.762.119-1.021-3.3-5.975-.614-3.095-.643-.64-.831-.066-.005-.426-1.256-.876-.556.391-.238-.278.4-.545-.664-.743-.286.354-1.161-.907.68-.331-.635-.659-1.373.537-.674-.608,1.066-.854V81.3l-1.05-1.516h-1.378l-1.106,3.174h-.421l.148.148-.852-.235.783-1.315-2.939.516-4.415-2.235.1.529-1.96,1.119-.212-1.7-2.188-.841.452-.725-3.587-.307-.153-.656-4.47-1.939-1.32.3-.05-.735-2.391-.992-.1,2.315-1.021.233-.521.836.053-.275-.264-3.076-1.085-.254-1.674,5.3.143,4.645,2.106-2.606.259-1.338.548,2.373h-1l-.563.561-2.127,3.92-.106-1.161.254-.772-1.23-.55.741-1.637,1.167-7.359-.622-.1-2.534,1.838-.209,1.333.688,2-.291,1.841-1.2-1.264.3-3.775-1.2.381-.36,4.537-.042.18-.743-.566-.651-.069.783-3.23-3.169-.968-.706.783,1.018,2.674-1.315.513,1.746,6.989,1.434-5.909.122-.008.809,2.788-.011.045-.013.153-.675-.177-1.349,3.8-1.145.479.153.415-1.495-.846.878-.839.185-1.323-2.83-5.825-.77-.108-.423,7.473-.632-1.275-.034-5.055-1.518,1.934-.812,6.9-1.423-3.079.352-4.38,2.209-3.121.2-2.481-1.341-.183V76.171l-.791.886-.349,4.325-1.738-.238L220,82.7l1.622,2.6-.421,5.216.992-.392.056,2.259-.677.111-1.735-3.515,1.132-3.013-1.955-.315-1.211-1.6,2.219-2.37-.452-1.651,1.3-.981-2.518-3.341-2.523,8.655,2.246,2.976L216.42,92.5l-1.391.987,1.9-5.068-.854-.725-1.42,2.407-1.629-1.764,2.132-1.563-.458-2.026-2.217.479.452-1.426,2.156-1.167.439-2.415,1.288-1.566-.1-.423-.7.169-.55-2.476-2.378.569-1.434,7.34-.722.28.307,1.381-.542.119-.529.915-1.6.458.259-2.775.8.183,1.481-1.2-1.622-2.005.8-5.095-1.555.474-.907,6.153-2.209,1.849-.138,1.677-2.2-.349-.394.286-.175-1.249.145-.127,1.783.873,2.648-9.062-2.238-.389Zm32.893,2.725.243.016.966-.77-.315,1.989Zm-38.035,4.2-.151,1.386-.712-1.5Zm3.825,4.126-.63-2.854,1.092-1.13.775,1.066-.764.526Zm15.749,1.738-.971,5.938-.455-2.153Zm2.1,5.253-.778-1.436.9-.209Zm7.06-5.132-.526-1.04,1.635-1.566Zm10.367-5.431,1.352.6-.4.741-.466-.008Zm-32.679,4.24.984-3.735.468.772.069-.037-1.01,2.852Zm5.42,1.217,1.51,1.264-.772,1.309ZM198.422,82.361l-1.545,2.632.265,1.328-1.82-.481Zm67.347,3.862,1.2.6-1.241.659.955,2.047-.894,1.148-.28-4.007Zm1.725.854,2.748,1.368-.291.712-1.209.074.7-.325-1.987-1.534Zm4.722-.669-.058-.495.606-.3v.762Zm-8.676,11.71-.854.286-.175-.608.725-1.362Zm-50.589,3.341,1.042.341-2.288,3.031-4.193-1.862,2.653-.762.27.942,2.772-.8Zm19.622-9.607.9,2.473L233,94.5l-.68-1.762Zm-3.037,9.705.55,1.516-1.309.754.333.19-.976.635-.111-.026-.563-2.106Zm12.975-6.4-1.561-3.9,1.659-.447-.3-1.254h1.235l-.971,5.589Zm-49.888,1.468,2.005-1.19-.778,1.7-1.172-.336Zm1.627-9.586.64,3.095-.968-.455-.484-1.73Zm-2.775,4.507-.331,1.233-2.119-5.521,1.51-2.928-.664,4.084,1.291,3.209Zm55.11,7.19,2.479-5.317V92.41l.071-.021.77,2.685-2.14,1.807.468,1.632-.913,1.3Zm3.981-9.8,1.3-1.391.27.939Zm2.873-3.063.529-.563.389,1.352,1.42.616-1.868.534Zm-.41-3.833h-2.365l3.185-2.894.415,2-1.45.153Zm-5.936,0h-2.23l1.878-.717Zm-63.3,4.068.487,0,1.54-1.9.164-2.135-.085-.069.339-.116.553,2.912-1.579,1.381-.741,1.661Zm7.764-4.825-.995-.883,1.714-.59Zm-6.542,7.959,2.357.574.034.093-2.119.029Zm-3.555,32.583-.265.238-1.23-.063-.27-.3,1.061-.825Zm92.952-29.473.984-.172,1.619.952-.751-.169.1.825-1.653-.9ZM264.737,93.6l.291,1.606-1.283.265Zm-1.785-4.637-1.733,1.994-.484-.762-.767-2.613,1.6,1.83Zm-1.764,4.219.217-.034,1.682.825-1.439.217.116.7-.079.013Zm17.969,2.545-1.2-1.124.27-.767.325.188Zm-92.3,11.679.365.78-2.272,1.058-.114-.794,1.944-.5ZM176.369,86.847l.4.114.349.172-.593,2.074-1.383-.4ZM182,115.177l.8,2.791-1.434.41-.384-4.185Z" transform="translate(259.355 121.208)"></path><path id="Trazado_2243" data-name="Trazado 2243" d="M216.859,116.278l-1.394.378.825.635,3.843-.058.444-.484-.09-.492-1.029-.41-.8.138-1-.4Zm11.956-6.862-.283-.183-.106.164.328.87-.182,1.1.772.841-.056,1.823.889-1.37-.275-.235.5-3.344-.96-.622Zm-.016-.5,1.484-1.391-.518-.362.719-.505-.227-.325-1.264-.222Zm.968-10.843-1.225.021.013.791-.788.817.013.762,1.45-.024-.085.378-1.278-.27-.455,1.074,1.05,2.177.222-1.045.1.021-.034.5-.069.958-.381.548-.077,1.1.508.116,1.349-.439.185-2.46.183.037.209-.981-.177-.27.183-.865-.471-.1.116-.55-.291-.061-.011-.6.592-.614-.532-1.312Zm-28.359,17.448.495-.132-.056.452Zm13.5-.011.267-.177.027.294Zm12.417.817-.169-.087.278-.823-.063-.2.5.8-.46.415Zm-24.4-1.209.013,0,.508.071-.209.339Zm.958-1.2.37-.907-.019-1.01-.812-.132.127-.106,1.169-.362-.825,3.047Zm.246-4.534-.074-.722.473-.145-.5-1.119.712.709.288.955.056,1.04Zm1.751-1.767-.124-.415.627.381,0,.058Zm9.594-.249-.4-.844.849.569-.027.143-.145.175Zm-10.12-1.508.738.862-.36.4Zm1.254-.325.87-.016-.37.2-.056-.05-.436.476Zm1.823-4.034.878-.013-.812.439.138.23-.19,0Zm15-.534.122,1.275-.778.675Zm-18.405-.339.669-.354.54.518-.439.516Zm4.441-1.368.852-.016-.561.622Zm4.928-2.32.831-.86.791.836-1.614.587Zm7.978,1.262,1.547-2.127-.635,1.629.447.566-.381-.093-.18.111.011.119Zm-12.739-3.584.056-.429.606-.254-.354.743Zm3.69-1.96.78-.328-.376.928Zm6.2,6.166.786-1.971-1.085-1.286.28-.852-.727-.608.2-.243,1.413-1.682-.148-.124,1.436-.669.585,1.254-.029.037-1.132-.106-.8,1.1L220.8,95.2l-.315.436-.333.042.862,2.185-.717-.183-.09.365.3.947-.458.185Zm10.909-5.891-.058-1.606.36-.484.127-.407.227,1.169-.423,1.4Zm-14.242-2.169-.019-.955.783.032.011.558.709-.013-.468.561Zm3.637.944,1.034-2.643.394-.323.384.019-1.606,3.116ZM227,88.927l.093-.227.169.315-.249.661Zm.384-.936.508-.008-.275.243-.4.183Zm-4.933-.373,1.447.074-1.508.378Zm9.748-.447.27-.741.217.669.257.241-.045.111Zm-7.925-.68-.209-.648.77.307.011.431Zm6.407-2.024.36.339-.029.034-.331.032Zm-1.891-.8.439,1.375-.4.063.217,1.376-.1.145-.119-.106-.045-2.674-.6.011-1.2.415-.505.635-.619.011-1.934-.529.008,1.045-.386-1.2-3.418.495-1.743.7L214.8,87.689l-.479.764,1.047-.058-.119.865-.431-.045,0,.114-1.1.019-.011-.635-.418.008-1.151,1.426-2.151.873-.571,2.084-3.05,2.045,1.68-.143-.41.772-.317-.333-1.193.085-1.648,1.931-.384,2.534.257.227-.709,1.693.429-.029.027.37-.9.82.016,4.153-2.108,2.566.537,1.793-.881-.143.346,1.812-.421.167.349,1.823-.135-.1-.418.3.008.7.444.648.918.063.011-.063,2.434.013.942.415.161-.656.757-.286.825.968.608-.566.59.508.614-.529-.825-1.391-2.3-.082-.23-.392-1.185.45-.048.108-.307-.415-.008-.471.77-.1.973-3.579,2.325-.526-.106-1.955.532-.114-.077-1.4-.455-.4,1.669-.9.209,0v-.185l.608-3.793.2.1.119,1.008,4.333.434,1.114-.222-.963.418-1.682-.077-.087-.185-1.148.757.138,1.026-.418-.008-.005.257.915.749.532,1.352,1.362.4.167.291-.206.016-.31.272-.682.8.013.331,1.719.637.063.91-.4-.169-.622,1.566.648.14.307.733-.921.849.357.86-.693.3.249.275-.058-.024L214.3,117.1l1.365-.622.22-.582-.529-.206,1.23-.347-.18-.616-.529.151,1.254-.825-.169-.4,1.558-.024-.013-.645.537-.545-.479-1.167-.278.262-1.106.019.011.706-.571.582-.124-.3.376-.241-.407-.971,2.555-.852.347-1.825-.034-.643-.013-.019-.394-.511-.495-4.341-.693-.622.167-.034.354.132,2.624-2.415.085.265-.2.831.431,2.27.352-.217.246.423.495.05-1.764,1.13.762.1.286,1.495,1.238.254-.206,2.235.4.979-.05.085.251.41.616,1.518.193-.212,1.063,1.719-.32.463.156,2.68-.667-.741-.389.55-.7-.357-.645.913.177.611,1.325.675,1.505-.127.106-.153,1.087.212-.063-.217.037-.005.151.22.373-.336.087-.016.114-.164,1.492-1.341-.45-4.872-.235.212-.532-.8.193-.825-.545-.582,1.159-1.8-1.656-1.759-.124-.352-.59.958-.561-.032,1.555-1.368-.616-.923.5-1.807-.18-3.076.963-.164-.812-.537.484-1.82-1.267-.971,1.492-2.471.087-1.431.426.132-.778,2.8-.571.537,1.2.727-.283,1.016,2.859-.873-1.069-1.8.087-1.005-.6-.6.037.011,1.045.331.143-.061-.148,1.026.64,1.294-.111,1.153.212-.09,1.6.27,1.6-.529.434-.9-.254-.582-.68-.048.481-.071-.09-1.434-.138-.278.122-.479-.309-.63-.545-.177.074-.288-.286-.312-.016-.005-.468-.516.651.188.41-.966.349.14.376-.931-.124-.3.331-.82-.1-.042.1-.1-.294-.447.048-.122-.172-.069-1.122-1.706.079-.212-1.129-1.151-.225.227-1.635-.63Z" transform="translate(329.837 137.642)"></path><path id="Trazado_2244" data-name="Trazado 2244" d="M224.859,81.875l3.788-.376,1.368-4.507L226.4,75.921l-2.188,1.465Zm-17.442,66.672-1.137,1.881,2.915,1.92,1.135-1.883ZM179.629,77.68l-2.137-.556.283-.185-.156-3.962,1.016-.569,5.193,3.254-2.28,2.709,3.428.8-6.56,3.211Zm-19.408-4.216-.86-.161-.317.265-1.267.188,1.6-2.561,1.849.883Zm-5.528.751-6.88,1.024-5.849-.7V72.934l-8.335-2.23h-.614l2.439-1.278-1.836-3.851-6.639,3.478.786,1.651h-4.706l-4.14,3.187-1.645-1.264-3.013,7.179h-1.836l-7.888,8.219V98.511l2.878,2.217,1.246,1.368-2.013-1.172,1.008,3.918,2.873-.693,6.547,7.19,1.857-.854.214.693-7.589,5.8-3.965,13.723,3.344.569-1.569,2.936-.283,2.846-.553,2.227-3.415-3.187.828,7.417,2-.672-.05,2.846,1.325.024,3.095-2.9-.548-.511,3.825-9.166.6-4.809-1.672-2.383-.085-1.087,5.507,4.79-1.4-11.483-2.989.669,4.8-3.714.278.9,4.322.4-4.452.923.18,3.058,1.495,2.666.46,6.132.156-.111.336,2.3,2.032,2.889.569,3.894.376,2.574.257-.026-.019.246-.016.182-.175,2.225-1.018,1.69.413,1.968,4.38-.164.172-2.177.619.468.177,2.135,7.631-.447-.188-2.248-3.661-2.2-.2-2.338-1.132-.138-1.762-12.073-5.388-1.214L128.465,125l3.714,2.545.91-6.69-1.484-.41.46-3.375,1.545.143,4.354-4.338,1.365.749,10.869,2.754,11.284-2.119-.31,1.362,18.154-2.611.778-3.333.907.659-.148,3.584,10.221,9.771-.68,1.965,8.679,4.1-5.833-8.785.124-.6,4.544,6.285,4.187-2.838,1.341,4.021-.413,3.267.1.14-3.55-.341.407,2.928,1.857-.13.069.505-1.256.524,3.391,3.627,3.124,9.919.418-.177.119.429,3.354,1.666.09.328,1.547-.056,2.793,1.838,6.489-3.031-2.148-1.455-5.29-6.2-1.629,7.272-1.394-5.039-.391.085-.325-5.269,2.106,1.225.709-.529-3.923-9.84-3.481-9.015-1.614-.056,1.045-1.841-.989-1.368,2.489-1.68,2.029-4.74,1.957.746,1.9-5.692.2,3.071,18.62,9.75.272-2.51,1.018,2.243.9-4.925,1.471.005.836,7.11,5.655,5.476-1.46.124L239.7,129.6l2.582,2.008,3.862-2.246.04.077.061-.135.966-.563-.529-.428,2.545-5.788-.928-12.848-.674-.542-.2.053-.1-5.216-7.11-12.424-.791,2.672-1.706-5.96L230.3,82.878l-6.608.2-.254-.2-2.759.153.889-4.883-.936-1.846.053-1.614-1.971-.733-2.333,1.545-1.156,2.918,1.923,3.19.807-.347,1.994,3.862-3.661,1.288.537-2.476-5.872-2.069-.005-.278,2.971-1.164-3.068-2.172.045.119-1.979.124.8-2.135-7.02-2.473-1.37,3.648-3.254-1.148-2.158,5.745-.209.1.011-6.15,1.294-1.664,2.719-1.823-17.072-3.933-1.249-.548-.6.656-1.063-.143L178.3,66.694l-6.044-.8-.72,2.27-7.944-1.3-3.642,3.41,1.976-3.164-17.72-3.33L134.039,66l4.325,3.381,2.674,0-.846.637-.143,1.124,3,0-.96,1.688L149,73.847l-3.664-4.362Zm-12.729.762,3.365,4.171-2.082.767V77.926h-1.283Zm5.616,6.962,2.33,2.886-6.663,1.143V82.806Zm5.253,5.764,3.55,1.331-2.777,3.3.249-1.37-1.513-.537Zm11.9,4.349.1-.91,7.454,1.516-.212,1.949h-3.822Zm66.738,21.611-2.111-.931-.484.159,1.14-8,2.558-1.267,1.481-1.931,1.063.328-1.2,1.8-.325.153Zm-3.722-7.645-.2,1.815-2.264-.6Zm-8.271,1.323-2.365-.241.553-5.079Zm-1.8-7.724-3.709-.378.122-1.418-3.918.135,2.648-1.619,5.2,2.135Zm3.375-7.78.7-3.859,2.812-1.415L221.436,92Zm16.694,2.233-2.852,1.4-1.235-1.783,1.64-.537.54.452Zm.992,2.444-.389-2.3,1,.243Zm4.592,27.7.077.14-.108-.032ZM200.3,103.992l1.3-.794.463,1.6-.624,4.3-1.852.2-.349.931-.116-.241ZM195.69,91.128l7.827,2.759-1.085,2.989-6.743-4.711Zm-52.444,6.147,2.627-.391,2.317.54-2.682,2.013-2.262-.77Zm-29.06,24.383,1.4.849-1.264.952Zm84.649-7.221-2.889-.087,2.727-2.64-.6,1.6Zm-22.116-10.274,1.939-2.677.294.942-1.981,2.643ZM167,100.452l1.643,3.859h2.143l-4.365,4.171Zm24.357-24.407-2.18,1.069.161-1.286ZM131.066,85.25l-7.1,5.859-5.478-10.726h5.523v6.282Zm-9.79,11.263v1.54l-1.161.891V96.514Zm5.261,4.687h3.857l.812,2.785,2.547-.944,1.137,2.87-2.788,1.034-.079-1.711-4.64,1.2.839-3.936Zm5.669,7.93.746,1,2.857,1.566-3.465.429ZM178,128.177l-1.423,9.554.963-.024.024,1.111.59-.008v3.878l-1.032,1.979v2.891l1.619.209,2.894-.984-.169.265,3.389.3L188.286,146l-4.037-4.19-.071-4.923-.862-.077.106,7.182-.561.878V138.5h-3.9l-.019-.82,1.362-.032.071-.484,3.275-1.376,2.529-5.007-3.764-1.582,5.565-2.4-8.227-10.475-.995,5.29-1.412.005-1.2,6.356Z" transform="translate(171.984 104.934)"></path></svg>