<svg xmlns="http://www.w3.org/2000/svg" width="812.488" height="442.263" viewBox="0 0 812.488 442.263"><path id="Trazado_2181" data-name="Trazado 2181" d="M642.194,386.288l17.592-1.23.544,7.813.079,1.111.944,13.492,5.366,10.252,1.08,15.456-7.192,1.628-19.027-6.185-.921-13.2-3.254,2.827-.905,12.939-40.057-2.8.953-13.63,19.2-13.292.99-14.167,18,1.52,5.916-4.782Zm23.286-48.664,6.018,2.452-6.517,30.845-26.492-7.33-14.065,1.664.659-18.875L619.934,333.4l.5-14.315,50.468-7.123ZM806.536,137.852l5.952,16.352-38.11,9.3L780,155.459l-15.36,7.865-3.75-8.351,31.862-18.157,5.58,5.933,3.342-7.165ZM12.381,124.444l-.367,2.324,3.521,8.731-.407.782-10.723-1.7L6.168,123.46Zm270.034,301.63,1.98-.069,13.054-18.81,4.407-.154-10.311-9.617L291,401.77l-17.691,11.7-4,17.982,12.381.217Zm61.6-142.08-2.589-.65.859,1.309-5.214,13.015.869,3.044,6.819-12.5,3.59.215-2.748-4.053.609-.19-.849.131Zm.185-1.274-.106,1.28,1.107.1ZM41.7,259.972l-5.651,3.542,8.207,2.41Zm60.078,9.631.065-7.325-7.657-3.506,2.114-2.725-7.638,3.994,5.725,12.852Zm381.288-12.079-2.437-2.272-10.183.356,8.916,12.272ZM407.28,249.2l-27.715.969,19.223,26.461-9.131,6.631,9.408,12.95L419.2,264.66l-11.236,4.211ZM272.9,263.4l8.745-9.377L262.017,230.63l-7.14,7.655,17.913,30.232.3.279Zm322.368-33.58-7.134,3.027,2.108,2.341Zm-59.684,32.114,7.05-19.31-2.308-12.835-5.785-5.4L535.4,258.4,510.948,247l.24,6.969-8.3,8.906.111,3.2-1.87.065,2.218,9.049-.867,16.558ZM356.862,260.4l14.151-10.282,12.441-35.227.423-.015-.021-.569-38.372,52.884-1.165,14.044Zm213.323-35.581-5.841-13.759-7.53,19.861,28.46,1.491ZM56.559,201.952,47.8,208.614,46.421,214.6Zm326.764-2.929-1.664,1.4,1.787,2.13Zm137.25,12.345L505.2,197.33l3.469,14.455ZM409.515,198.074l-22.694-1.985-3.456,2.9Zm-273.293.288-16.7-6.538,1.589,33.407Zm15.664-22.573-2.793,5.674.144,4.174Zm87.745-.594-17.125-3.93,16.458,15.349Zm-100.614,62,24.061-15.239,3.254-18.349,7.305-9.352,16.634-2.041,20.28-21.747L173.7,187.955l2.26,1.165-23.127,29.6-15.4,18.007-1.021,2.529ZM507.5,166.008l-8.043,2.3,7.277,2.706Zm101.323,6.21.642-9.172-4.338,7.813-11.8,4.4-11.387-10.617-7.319,19.308,24.564,6.066,15.779-6.7L602.612,221.97l15.668-16.744-.838-24.024,9.327-4.447,3.55,3.311,19.123-9.546-10.978,3.771Zm-593.2-18.107L8.2,156.333l.357,10.177Zm129.222-7.355-2.028,3.9,1.4-.05.154,4.376,2.508,3.869,7.042.256Zm318.622-2.729-29.2-4.357.986,4.759,31.712,11.8ZM407.18,160.9l15.966-7.847-.527-15.118-13.087-1.951,6.46,6.458L404.03,160.952l3.288,3.919Zm-48.425-12.846L336.7,132.778l-15.283,17.9ZM138.117,124.515l-.087-2.47-28.226.986-.031.446-1.636,3.433Zm262.227-3.279-5.11.446,2.895,2.893Zm226.765-13.394L588.1,120.1l22.881,21.336,1.057-15.107,13.715.957Zm-91.6-.646-7.966-.557,3.217,11.2-7.171,18.872,2.887,1.6ZM170.552,98.506l-2.612-3.413,1.28,5.589Zm74.923-23.417-8.353-1.759.192,5.535,7.53,7.021ZM342.32,83.1l-5.18-11.418-25.723,8.432-6.437-1.076,5.4,5.039ZM112.5,76.716l-.3-8.5-6.183,3.7.115,5.022Zm42.391,1.3-7.77-10.161,1.926-3.584-8.47,10.665-5.283.6.11,3.164ZM120.356,64.191l-.11-.788-1.4.842ZM245.671,52.84l-7.065.246-.129,4.242-1.893.613.156,4.478Zm48.975-9.06-8.2.284-11.578,6.884,9.179,8.56ZM230.728,24.674l-.417.135ZM217.953,0l36.659,24.784,26.24-4.324,10.538,8.478,13.655-.588.63-.936,35.195,24.526,22.573-.788.163-1.472,36.824,1.741,17.238-1.507L438.1,40.726l10.534-.921.669,7.646,8.3-12.508,18.137-1.77,55.521,17.5-14.686,17.69,10.971,38.274,2.706-38.685,17.3-15.039,48,3.358,35.683,30.413-.452,6.454,32.12,12.919-6.187,5.374,13.569,15.608-.409,5.839,9.7,2.781L690.391,149.8l33.227,9.527,1.072,8.8L697.035,160.2l-12.293,6.811-5.039-9.087,2.627-9.162-13.294-3.811-.871,12.431,15.27,14.236,7.4,41.4-.832.161-13.4,82.207-8.922,1.945.286,8.226-11.374.4-8.693,8.516-18.739.657-12.375-17.851-7.434.259-3.3,3.54-22.427-37.194,2.977-8.409,24.52-.855-27.743-8.057-.217-.644L532.772,291.29l-28.389,9.973,2.291,6.152-.6,1.424,23.584-.825.161,4.636-6.289.219.454,13.025-2.875,3.083.584,16.769,23.505-.821.2,5.818,12.568-2.871-1.242-23.692,10.517-1.955,1.611,30.73-41.691,34.666-1.017-19.377-6.346,2.466-6.554-15.126,2.066,6.982-8.266-.577-2.633,4.791,10.292,11.837-8.968,14.463,8.989,23.8-42.269-2.956-4.7-14.672,11.093-14.864,4.763.333,2.754,3.857L509.326,353.2l-1.274-9.616-16.4-37.851-4.405,1.547-21.564-1.128,4.044-11.316-23.6,17.146-38.489-.294-29.087-2.118-16.771-2.656-4.886-6.727-10.05,18.462-4.1-1.149,1.086,3.805-6.648.231,3.131,2.256-7.284,2.943-8.489,31.022-6.367,2.572-10.861,10.542,15.36-.536-10.8,36.354.507-.019,7.39,13.769.64,18.335-35.569,1.24-.682,2.247-38.3-.669.39-10.55,20.707.363-6.312-18.33-5.674,12.848,1.365,1.27-12.573.44-1.59-10.924,6.364-6.823,7.982-1.745,3.575,3.335-1.563-4.543,6.012-3,.584-5.533-33.14-15.443-1.837-6.4-3.027.867-3.285-3.561-8.013-8.159-5.187-18.093,2.037,1.13-7.9-8.793-7.079-63.5,31.545,15.326,1.149,25.4,7.886-5.5,13.4.832,2.591,36.849-20.563-2.3-.6,5.781,15.135,2.3,19.74,16.227,2.062-19.492-10.033-34.981,7.726-2.218,5.3,18.5,3.425-9.512-1.453.052L273.958,293.7l-58.383-21.349-11.73-26.619-4.472,4.8-16.233-15.137-7.84,14.5-41.72,22.715-18.508,20.751.763,16.511L71.543,321.617l-33.667-6.946L17.8,304.665l-6.694-8.318,11.928-5.31-3.953-8.877-7.63,3.4L3.8,263.038l12.172-5.418,2.729.8L5.23,228.4l.038-37-3.93-1.226L0,151.9l5.464-.188L2.848,140.148l12.283-3.681,3,13.238.16-.281,13.727,30.369,12.57,10.384,4.557-32.429,6.152.865,18,18.024,15.306-29,.671-19.218,3.617-.288-.386-.584,2.529-47.968,10.68-8.36-.976-4.613-2.433,2.46-19.323-9.01L75.327,23.271l1.449.5-.736-5.389,5.3-5.226,11.253-.938L99.24,32.537l-4.459.675-1.593,3.417,4.9,5.193L94.56,54.875l8.533,3.98-4.947-23.4L118.2,48.748l-.165-1.165L104.787,29.508l5.6-5.3,22.794,31.043,16.61,7.636,25.787-48.035L197.965,1.4l2.56,4.261Z"></path></svg>