<svg xmlns="http://www.w3.org/2000/svg" width="738.689" height="538.298" viewBox="0 0 738.689 538.298"><path id="Trazado_2179" data-name="Trazado 2179" d="M171.45,140.049l3.592,5.746L209,124.574l-5.911-4.295Zm35.091-45.162,8.635,5.383,7.838-14.031-7.706-7.032Zm7.541-29.076V76.675l8.006-.736V65.811Zm69.077-27.371,2.419,4.138,6.206-4.224-2.419-4.136ZM466.714,372.3l.3,17.278-10.063,5.809ZM220.92,371.77l3.333-3,4.444,7.111Zm83.858-3.863h.424v.68Zm-37.723-21.239h14.173l4.758,13.688-3.044,1.9-13.136-9.666-9.526,3.875Zm44.763,32.5,6.754-2.48-7.213-41.2,14.727,8.751-8.234,42.344-.935.75Zm-99.665-45.059,4.913-4.915v.012l20.357,4.7,6.076-3.146-4.5,4.5,21.225,21.223L241.2,364.225l-19.891-31.833-9.155,4.171Zm81.072-29.086,18.47,10.587,16.16-4.823-2.123,9.195-20.111,2.437-.6,3.067h-24.76l-1.312-7.924H269ZM422.6,300.884l5.964,2.139L425.99,324.03l19.823,17.056-10.332,5.163v24.6l-9.837,15.74v.065h-3.352l8.368-52.82-15.139,3.5Zm-212.436.135-.295-.124,11.608-4.1-3.676,26.987Zm147.27-12.549,22.882,4.637,4.356,6.97-23.933-4.654-3.464,17.821,8.621,17.988-3.172,16.315-8.083-1.571-3.079,15.83-8.9-18.949,2.673-13.756,2.635.355Zm28.34,11.82,5.334-3.333-7.449-35.064,20.121,18.069L397.415,292.8l13.24,5.236L392.533,301.6Zm-220.5-25.883,10.944-10.718,13.4-7.641,2.4,8.4-7.3,3.582L191.93,293.3l-5.345-2.262v-10.9H167.552l-5.489,2.233Zm327.57,11.37h13.833l-37.905-44.034L488,258.427l19.673,4.542,8.01-5-3.311,26.971,23.53,4.639-2.248,18.311Zm-76.94-42.518L403.7,223.711l29.744,6.867-15.883,18.733ZM31.92,216.187,35.1,214.5l12.219,3.735L31.92,231.617Zm19.22-16.643-1.331-2.5,6.689-3.554-1.221,6.347Zm33.846-19.2v3.16l-2.539,2.794H79.465Zm351.931-10.628h4.792l1.4,1.4-.473,1.269-5.942,3.861L434.78,173.3l-.289.187Zm-343.1,1.1-3.564-6.706,4.986,6.781,5.184-4.385-5.031,5.538H92.68Zm299.077.85,2.987-.925,8.285-9.208V172.6H411.5l.636.98-.705.458L399.8,172.552l-5.84,4.6Zm11-11.492,6.53-5.966v.786l-6.088,6.086Zm52.119-10,2.665-2.158,7.665,6.679-.473-.856,6.547-3.625-9.9,17.8-3.5-3.5h-3.625l-.247.383-3.048-4.693-2.6,1.689Zm156.973-2.376,12.841,3.352-.359,1.555-10.652-2.512,3.829,7.329-5.66,3.266Zm-217.256-4.358,3.17-.446,1.371,9.754Zm7.248-6.948h7.47l1.626,2.18h-1.652v6.61l-6.09.858Zm74.456,33.909,6.029-11.437-8.427-8.427,1.742-3.77h6.294l-3.894-10.436,10.473,7.61-7.486,36.751Zm-74.813-36.448.44-.583v.715l-.328.668Zm74.138-.762,2.127,5.4-3.384,6.082Zm83.31-2.19L562.4,127.9l.516.389v3.362h4.014v11.321l-7.533,3.382Zm30.946-18.927,7.753,7.755h-7.753ZM507.1,109.221l.389.267-.346,0Zm-58.985-3.437,14.42,17.808-14.42,11.679Zm207.523.041.764-.442,3.894,6.746-12.9,1.94Zm-176.874,9L492.873,103.4l-12.242,16.847L478,133.181l-.214-.579h-.968ZM536.8,105.7l4.715-7.887,4.373,5.237,1.206,8.58,8.845,13.625-9.362,3.352-26.56-19.3-4.187.059L524.1,107.3l3.829,5.08ZM359.969,96.639l8.786-1.549.189,1.062-8.572,1.595Zm30.665,1.9,7.8-5.459-1.019-2.938,2.671-1.335,9.367,14.5,10.445,5.915V114.8H403.522l-2.217-15.787-5.73,3.24ZM356.772,87.853l1.447,1.015.943,5.552Zm214.652,8.623,5.448-.764L575.72,86.7l15.031,9.886-1.909,5.742,1.28.116-.208.825h-5.942v1.763l4.652,4.65h-5.64v10.143H574.7Zm12.743-25.164,9.874.864,3.568.312L593.972,87.04l-3.55-8.272-3.4-4.045,1.585,1.2,6.276-3-.85-.742-8.181,1.149Zm60.945-2.417.037-.432,4.5,5.175-11.323,9.843,5.455,6.272,2.622.183-3.945,2.278,5.075,8.79L637.166,97.88,625.218,84.64l3.183-3.158,1.547.134ZM285.089,57.569l4.148,3.476-.778,2.714ZM329.082,53.8l.352,1.993L350.9,73.582l-.723,6.049-1.76-.518L339.337,69.6l-13.464,1.3-3.293-2.643-.2-5.536,1.455-5.074-4.179-1.2,9.177.744Zm.858-11.461,9.087,1.273-9.373,2.555ZM301.717,27.32l7.335,4.644-1.974,1.923-1.3-.371L303.4,31.138l-.13.13Zm36.3-.839-2.276-7.944,3.751-2.551-.44,5.99,2.423.295-2.7,4.631ZM346.723,0l-6.158,6.157-.342-.108-.247,3.37-1.518-2.6-9.008,6.127.283.485-.758-.42-7.783,14.041-.19-.1,2.019-11.3-10.057,1.677-11.732,4.02-.63,3.144-.711-1.8-3.688,5.7-6.844,5.11,5.459,3.894h2.329l-.952.952v4.7l-1.571,1.571-5.263-1.51-3.02,1.675-.306.171L280.895,47.8l.454-8.68L258.733,56.609l-.483,9.251,8.478,7.989,17.5.915,3.419-8.16-.685,2.386,3.1,5.589L322.932,77.9l-.006-.118,24.986,25.435,7.869-2.863,1.516,1.408-4.646,9.4,23.668,26.755,2.624,7.877,2.71-.381,1.009,2.074.31.636,3.782,7.755.306,7.372.988,2.029-8.637,5.177-2.258-2.582-11.512,6.9-.568-1.337-17.857,7.58-.5-.183-1.145.882-1.492.632.293.293L323.05,199.053l-.187-.3-28.66,22.46-3.511,1.029-5.783,4.855.577.947-2,1.567-3.663,1.233-.414-.711-2.415,1.663-22.925,7.726-6.685,5.127-.764-7.28L188.83,233.3l-.088-.511-58.659-41.456,2.343-3.747-3.588-2.245-2.738-5.359,9.542,1.681,3.651-20.708L122.42,172.77l-1.273-2.5-1.542-.367-8.592,13.749h-4.385v-8.246l12.17-13.454,1.587,3.928,44.8-24.1-22.961-5.33,46.941-13.462-2.9-10.1L126.561,130.01l2.832,3.625-.544,10.948L123.7,142.4l-.736-.713-.261.289-8.052-3.419-2.72,6.4,2.482,6.145-.98,1.076-9.974-13.568-19.7,16.667,5.4,7.351-11.938-1.4-12.445,6.616-1.907,10.07L61.112,174.6l-11.345,6.031-9.356,19.711L19.457,211.48l-1.363.226v.5L3,220.231l.389,4.413L0,227.175V241.9l13.823,6.814H29.2l-.067.954,39.857,2.789-.428,4.053,11.767,1.235,1.671.177,20.321,2.137,15.19,8.639,23.279,2.449,2.836-10.771-8.334-29.053-36.67-3.855h22.788V206.7l-4.752-4.75V191.072l9.725,6.076-.016,25.478,14.9-2.626,9.114,51.691-.943.536-28.047.34,9.061,21.341,20.824,15.153,4.24-10.495v25.889l36.362,25.235h20.276v-.285l3.914,6.263-10.874-.568,2.91,50.784,21.885-27.939,1.718,2.751,84.717,7.032-20.029,16.048-1.972,19.565-15.013,2.109-.365,7.258-49.757-29.9,4.311-2.932-5.73-9.8-14.7,10,5.73,9.8,5.149-3.505-1.186,7.5,60.393,36.289,6.59-10.97-7.57-4.546,11.166-1.571-1.873,18.558,3.221.831,5.454-11.264,29.117-8.323,9.6-49.405,71.742-33.314-12.849,81.125,16.94,2.683,3.032-19.127,1.608,1.608v24.216l-30.123,2.861,4.3-12.5-21.341-7.349,2.168-6.3-3.643-1.255-15.068,10.381-21.745,1.779-12.376,18.725-35,7.6,30.317,10.44,3.175-6.361,66.176-6.357,2.388-6.938-2.306,11.924-1.457-.839-63.346,49.651.475.607L293.6,525.186l-11.143,11.056,42.87,2.056,6.74-6.066-2.033-15.251,2.086,2.669,68.812-53.922-5.6-3.228,4-.685,4.931,9.968,15.357-8.953-2.044-4.134,11.96-2.046,17.075-41.413,3.716,1.868,12.142,9.251-14.939,2.1-.487,9.668,20.714-2.91-.76-5.4,5.638,4.295,6-22.391-5.968-20.863-.548-31.366,4.906-11.6,18,2.209,38.64-21.808.746-6.082,32.171-6.2-4.776-6.113,15.426-12.048,4.3-35.04-25.335-14.6-19.622-3.3,10.85-6.781,2.123-9.191-108.718-25.1L374.7,215.076l-13.352,8.346-49.24-.568,12.945-9.754-2.655-3.525-13.067,9.813,17.792-13.947-4.014-6.306,5.811,3.356,3.5-3.1.067-.717,9.511,5.489,1.08-1.87-2.537-1.461,3.032-5.253-.509-1.9,3.9-6.763,9.481,5.473,3.411-5.907-.116-.842-7.246-2.681,11.524-4.89,7.074,10.306,1.587,7.3,9.3-3.572,7.364.34,7.056-2.708-.2-1.027,4.436,2.567,16.186-10.51.46.7h7.773l26.164,7.661,2.388-1.182h31.9l-.754-1.638,1.326,1.257,67.673-16.329,2.828-5.909v3.59l24.084-7.484h7.184l4.224,4.226,13.943,4.858h3.694l7.091,5.862,56-6.956,10.695-11.054-21.079-2.71-13.01-8.59L635.675,155l-6.043-.214.141-.175,4.428-1.076,2.873-7.421,1.689-1.017,2.584.691,11.683-6.742,2.72,7.47,26.892.941.467-13.428,9.106,10.123,3.933-5.033,3.093,2.417.5,15.956-9.032-.949L682.5,163.2l8.25,6.025,8.979.624,2.164,9.244,6.9.727-6.777.118.764,43.74,3.309-1.406-1.192,1.194,5.956,5.954h7.722V244.2l2.007,2.749-9.964-3.022-1.1-15.732-6.918-1.791.522,20.406L729.3,271.857l1.921-15.64.613,1.76h3.9l2.963-4.287v-5.95l-5.493-4.4-5.673,5.673h1.188l2.121,6.1-5.994-.734-1.742-6.661-.878-.267v-4.466h5.954v-8.5l-8.6-11.579V194.892l-6.616-2.8v23.316l-2.861,2.863-.577-33.014,4.57-1.153-.866-12.59,4.859.079-.568-17.945,1.39-1.781,1.129-17.951-5.369-4.193-32.014,3.788.391.434-4.913-.173-.707-.024-8.623-.3-6.653-3.191-1.532-.055,4.88-11.192-1.29-2.243,9.271-10.265-3.164-.846,2.139-7.983L670.3,93.952h1.787V85.891l-4.016-.772v4.972l-3.073-5.33-3.525.438,6.859-5.964-4.856-8.376-18.214-3.625.2-2.307-46.931-4.106-26.994,8.586-8.491,7.127-.316.043-1.909-1.437-31.873,4.479.528,3.767L540.089,96.1l-1.925-.271L526.843,80.8l-25.818,1.011L493.5,87.48l-4.756-5.87-1.416,1.655-49.388-1.233-5.473,4.428,7,8.643h-8.2l.668-14.1L406.16,77.519,394.373,67.274l-4.316,1.673-2.082-6-17.107-16.72-13.584-7.686-7.405-.624,1.579,8.945L344.8,48.041l-1.009-5.723L339.8,43.4l-.862-3.474,5.485-9.9-1.889-1.047,3.134-5.385-.994-.941,3.356.408,1.043-14.247-2.349-.732Z"></path></svg>