<svg xmlns="http://www.w3.org/2000/svg" width="710.483" height="436.968" viewBox="0 0 710.483 436.968"><path id="Trazado_2233" data-name="Trazado 2233" d="M520.807,406.366v4.8h-9.132l-1.538,8,10.315,13.323v-7.452h12.626v-7l-1.6-1.6v-6.164H528.1v-3.913Zm-215.7-13.992,35.4,3.1.561-6.427-37.991-3.325Zm163.127,27.249,22.929,13.551,3-2.882-1.619,5.333,12.776,1.342.61-5.806-11.42-1.2,8.967-8.613L473.94,398.27l5.717-7.316-18.385-9.766Zm17.686-29.012-.258,4.912,10.891.569-3.093,7.232,25.314,5.813-21-29.2ZM253.965,319.319l-3.512,27.446,46.075,37.853,3.974-13-3.372-2.4,6.473.844,11.81,9,14.786-3.832,21.166,12.1-4.055-7.311,15.467,7.5,6.248-10.126L348.208,367.3l-4.186,6.785-3.238-5.845-4.5,1.775L299.91,343.09l-3.494,1.938-2.638-.807-.834,2.731-3.628,2.009-8.8-2.691-3.455,1.838-14.885-4.55,6.378-20.864-13-3.976Zm310.112-30.795-17.094,5.951v19.868l-14.841-7.084-.765,10.151L567.592,334.7l3.423-8.886-7.318-3.494H583.8v-7.989h11.33l-16.9,43.018h13.559v6.482l-3.577-3.581L575.167,373.3l6.05,4.179v8.7l-13.043,4.535v10.189h-8.408l3.014,8.21,31.44-5.5v-9.008l3.811,2.276,19.813-28.3,5.906-5.9V334.716L607.565,312.8H603.8l-6.185-19.144-3.368,3.368-8.5-8.5ZM85.534,254.291l-7.771,6.756-4.853-5.581L43.039,281.43,0,273.841l18,25.707L43.462,281.72l4.527,5.208,16.543-14.379,16.11,1.125,23.75-20.645-9.5-17.193Zm7.856,122.927,5.245.185-4.446,3.016Zm449.85-107.326h13.9l7.289-6.368,5.426,2.3L547.392,274.9Zm-18.2-8.2h1.59l1.279,1.2-.179.073-.8,3.411Zm-141.05-18.007,1.668-7.858,6.248,10.4L387.9,249.7Zm181.49,5.355-12.851-12.06v-6.2l2.357-.537,14.84,19.282Zm-99.936-32.77L466.979,207l1.324-.889,33.541,43.362-4,.1-4.529,7.454-5.8-18.782-6.77,10.82,3.012-18.121-4.883-8.125-7.877,2.8ZM215.116,201.152l3.606-3.409,4.661,10,4.35-4.348,3.885,3.885-.917,6.532Zm357.314-4.729.183.195-.258.083Zm-110.767-6.01,1.668-3.337.384,7.572Zm-81.182-.828,3.508-3.047h4.879l-1.615,10.437Zm-210.632,5.493,4.627-9.923,10.649,22.833L174.87,231.427l-2.219-.9,6.215-15.172-6.268,2.109Zm479.981-3.626.724-2.109,7.777-5.1,3.828-.313-9.048,8.969ZM247.089,178.22l3.744.527-2.292,16.305-1.452.421Zm370.448-20.625.633-.539,10.232,4.9.018,6.65Zm-425.98,7.165,10.592-11.5,6.84,11.009v5.705Zm96.356,1.824,1.5-10.659,24.005-3.8L316,168.447l-2.329,1.757ZM320.474,147.6l26.146,5.353-24.678,3.907Zm-65.184-1.051.726,4.576,13.3,2.323-14.139,4.814Zm420.068,13.482,2.78-4.814-3.51-2.931.35-2.39-1.991-1.149.82-1.422,2.127-3.683,4.285,9.968.732,1.7-3.606,6.242ZM283.7,131.4h2.916l-2.42,8.729L255.308,144.7,255.4,136l15.424-4.6h2.756l2.428,2.43Zm100.4,9.667,12.491-10.753.041,21.328Zm176.249-14.743,11.214-.5-7.33,3.785-.315,24.767-3.569.99Zm-89.972,46.659,6.8-13.6-19.1-36.077,13.929,7.637,1.08,14.021h-.433l.449.212.2,2.571,5.034,3.61v26.73ZM239.271,124.048l12.107-1.483v6.982H239.943Zm407.373,1.786-2.076-4.523,5.1.628.092.012,5.312.653,3.586,2.561,12.579,8.987-1.188,1.607-10.228-8.294-3.1.12-2.922.114-8.52.331-7.714.3ZM627.45,128.36l-1.615-4.846,1.94-6.787-.712-5.64,6.356,10.224-13.9,21.65-4.533,3.35ZM425.311,105.587l9.325-8.031.685-.039,10.26,1.474,1.832,1.324-14.255,7.972ZM248.48,96.6l7.46-8.583,10.4,6.276h-7.041l-5.4,10.972ZM599.652,86.409l1.021-.1.6,1.336L605.2,96.9l-7.979,1.141,2.215,11.629-4.586,5.105L582.725,92.256l6.329,2.135.637-7,8.554-.844.232.232ZM527.345,73.556l6.2,2.091V80.47H511.049l.033-.968,6.327-3.52-.58,1.918,9.994.543Zm43.561-31.735.165-.2,7.236.368-1.471,3.821h-1.009Zm-51.727-9.744,12.585.641.271,6.044ZM507.923,31.5l9.477.482-4.35,5.058ZM626.376,0l-1.4,8.009L593.646,2.154,589.225,13.63,560.65,10.421,488.289,29.3,473.717,42.065l8.993,5.328-24.033-3.272,9.624,7.793-3.533.75L458.7,62.016l-4.421-2.872-6.787,3.771-.209.323-16.813,9.136-2.154,8.117-120.953.9L296.823,94.613,291.36,114.3,277.134,95.256l3.933-2.034,7.195,6.254,16.04-18.45-52.536-3.909L242.77,87.464,238.6,80.792l-44.542,12.9-25.585,23.573-12.2,19.14-1.47,10.708,13.112-1.611.952,7.751-4.415-2.089-12.514,6.488-6.246,21.908L126.881,184.6l2.243,8.365-7.3,5.43,1.538,17.157-20.228,5.42,1.234,9.361,26.234-7.031,9.174-23-10.342,36.27,5.078,11.993-7.405-3.779-19.25,39.246L85.628,295.357l-.273,19.5,1.719,1.357,3.335,40.5L81.341,376.8l3.61.124-4.334,7.218L108.988,397.2l-8.9-20.067,15.977-8.841-3.9,7.922v13.352h29l-1.69-10.2h-1.44l-9.972-13.35H117.182l-.464.946-18.983-24.4L96.161,323.4l11.351,8.969-1.383-9.2L122.157,315l-1.224-15.227,27.09-5.194L178,270.742l-36.8-18.77,12.565-21.485,10.98-7.285-2.27,6.262,6.335,6.994.557,6.805,10.3,5.989,7.844,19.372,20.891-10.46,24.979-28.646,31.2-5.088,10.344,1.452,5.229,6.943,8.753,4.5-15.857-3.952L270.227,244.7l-15.945,5.524-4.653,18.666,15.27,16.223-1.845,7.407-4.255,2.556,32.538,30.441,9.071-1.2,12.215-48.99,6.7-4.029,3.785-15.182-25.239-6.292-6.862-11.42,8.241,4.24,10.041,1.409,6.15-43.761,3.952,24.952L333.687,209.8l2.992,5.436-.787-1.208-15.1,9.8-10.018,14.373,27.574,22.823,37.578,5.453,9.062-5.882,3.337,8.943,44.06,9.687,15.064,25.07,7.328,51,11.578-1.9-.319,2.861,10.026,23.624,11.68,1.924L498.852,371.3l-.088-65.235,11.377,8.448,17.035-19.744,35.237-14.24,18.674-18.442,4.59-10.81-6.323-.7,18.576-13.3,11.409,10.673,9.073-1.192,12.213-48.992,6.7-4.029-4.808-1.991,2.923-6.62-10.934-5.52,1.78-7.867,2.544-1.981,8.637.62-1.741,16.215,2.841,1.934,8.117,12.5,9.162,5.127L659.5,208.2l2.42-1.454,3.22,4.958,6.616,1.487,4-2.4,2.927.659,16.108-9.683.311-1.306-4.574-1.029-.289-13.551-13.516,2.329,13.425-6.551,5.2-2.536,4.531-8.519.435-.812-.069.889-.578,7.513,1.7,1.7,5.227-11.261,3.077-2.056.809-8.558-10-14.129L692.093,148l4.991-11.778-9.695-16.5,2.337-8.694L679.7,97.953,685.3,93l.647-30.773L664.969,32.073,653.85,38.312Z"></path></svg>