<svg xmlns="http://www.w3.org/2000/svg" width="481.28" height="319.712" viewBox="0 0 481.28 319.712"><path id="Trazado_2232" data-name="Trazado 2232" d="M159.239,297.677l-4.489-.3-.184,3.53-4.723,3.391-.177,3.4,9.983.523.17-3.225.8-.718.287,3.28,4.764,1.458,1.782-.436-.336-3.843-1.38-2.528-.294-3.354-.023-.276-.17-1.943-4.374.382-.181-.557Zm139.328-6.657-2.16,1.569,1.3,2-4.452,4.384,2.388,5.091,11.162,3.255-3.023-4.163,5.917-4.3V303.7l1.349,1.848v-2.3h2.21v-3.15l-3.191-4.3V285.406l-2.454-1.041v8.65l-.909.91-.253-.04-2.5-3.44-1.294.939,1.444-11.165-4.085-.444Zm-143.4-10.635-.062,3.565,1.338,3.21-.082,4.7,3.494-.474,6.627,1.708,1.487-7.7-1.508-.584,1.239-6.413Zm162.91,1.8.983-.017v7.706l-1.719,3.927v5.74l2.7.416,4.83-1.952-.282.522,5.655.6,5.727-2.666-6.738-8.321-.119-9.777-1.439-.156.177,14.269-.938,1.739V281.546h-6.517l-.071-4.084-2.34-.408Zm-11.74-14.405v.872l-1.794,2.991.1.31h4.023v-4.173Zm115.017,1.712-.06,3.456,3.146,2.614,3.352-3.238-.691-.012-1.719-5.239-2.263-.041Zm-104.762-6.657v12.027h3.885l3.232,3.232,7.076-2.723-1.552-1.667v-6.575h-4.253l-4.3-4.3ZM1.021,237.135l2.677.377.1-.2-.914-2.157.081-.582-1.552-.219Zm475.547-10.182,4.712-2.1-6.809-2.615ZM161.284,206.524h1.81l-.884-2.241.528-.529-1.455-.362ZM56.415,195.168v1.506h-1.3v2.37l-.616.616v2.691h4.858v2.866l3.967-5.124-.593-3.078H59.22v-1.847ZM339.1,141.553l1.213,2.182,3.348-2.079-.815-2.425Zm64.833-42.617,1.9,2.341,4.191-4.994-2.269-1.905ZM91.3,76.8l-1.206,2.238,1.429.13-1.73,2.21,3.726.826L93.54,76.6l-.529.676L92.861,75.9ZM43.257,48.584l-1.423,2.642,1.688.154-2.043,2.61,4.4.976.025-6.628-.624.8-.177-1.62Zm25.91,256.8,4.354-2.989.116-1.084,2.609,2.349-1.1.057-3.168,4.74-.493.025-.157,1.394H68.25Zm303.2-7.074,2.892-3.438-2.367-1.358,2.4-2.011.405.714-.039,6.974ZM218.539,276.921l2.733-2.548.032-.175.321.7-.771,2.689Zm-134-.637,1.242-3.261-.219-.322.648.15.336.075.042-.008.018.021.7,1-.9-.039-1.643,3.142Zm1.965-3.414-.276-.019.02-.319.3.341Zm140.309-.831h3.539l-1.45.95Zm218.881-3.433,1.061.771-1.112,1.529Zm-436.233.484,1.391-.907.662,1.471ZM22.539,268l1.883-1.026-.514.687,1.92.84.015,1.824-1.825.851Zm212-2.481,12.241,3.543,2.173-.444.074.686-6.779,3.069L236,268.338l-3.587,2.35Zm-116.992-.282,2.534-.132.615.555-.876,2.594ZM97.564,272.47l2.244-1.691-4.9-6.5,6.894-.361.257,4.894,2.779-1.1-4.876,7.941Zm208.9-9.452,3.069-.105-2.11,1.477ZM68.408,269.308l-4.59-7.447,1.744-1.938,4.988,5.738-2.136,2.372.071,1.342Zm78.34-10.249,1.762-.785-1.228,1.359Zm-13.378-1.872,1.465,1.318.629,3.185-1.67,4.837-8.111,7.564.144-4.125-.591-2.243.465-.024-.042-.8,2.03-2.253-.091-1.735,6.136,2.733Zm168.713,1.966-2.089-2.983,3.545,2.391-.328.792ZM86.5,268.663l9.224-13.184L92.779,264.3l-3.48,2.621-3.031,5.24Zm52.447-9.947,1.788-4.977,1.513,3.4,3.789,1.825Zm-126.8-3.341,2.151-1.7-2.469,3.192Zm83.067-3.491.407-.355.046.878Zm-65.29-1,4.187,1.555-3.645,6.754Zm66.556-.1,5.658.4-6.505.341Zm29.471-.205,3.889,3.427-2.962.155Zm-88.709-2.4.671-1.424-.616,2.463Zm258.712-2.333.046.234Zm-240.483-.523,4.28.9-.116,2.844ZM34.578,261.983l3.755-4.549,5.629-7.469-.567-.28,9.1-4.513-4.954,5.5-4.131.58-1.778,2.36L40.9,258.2l-5.923,3.9-.639.524Zm228,1.414-13.917-19.17,12.036,1.532,10.718,13.718-7.4,4.333ZM224.216,250H238.19v-7.1l10.374,1.32-16.1,12.075h-2.382Zm-99.822-6.621,1.992-.609-.169,1.252ZM2.059,242.533l1.838-.586-1.7,3.115Zm148.65,1.021,1.046-1.963-.12,2.285,7.386.388,2.717-.987-4.719,2.46-.9-.809-2.3,1.147.313,5.977-3.827,4.236,2.908-9.676-3.9,1.736-6.141-1.4,1.737-4.838,2.881,2.592Zm-114.677-4,2.313,3.036-1.755-.034-.64-.953-.058-1.089-.348.018Zm160.143,6.157-1.4-5.24,6.383-1.676v3.732l-.974,1.979h3.49l-3.2,2.985Zm114.213-8.15,2.311.044-1.117,1.656,3.073,4.627-7.7,6.427-2.224,5.369Zm68.651.556-6.591-.693,8.428-.589.257,3.663-1.858,1.589Zm-212.7,1.807.163-3.1,3.325.891-.231.862-.247.175.029.638-.165.615.209.361.108,2.428Zm-58.032-2.214-.266-1.18,7.288.957.924,3.023Zm-7.7,4.25,2.9-4.66-1.636-1.58,3.266.429.2,3.76-3.94,2.023.052.988Zm-16.883-6.721,5.556,3.706L80,239.765Zm-56.52-1.44,7.022-.368.033.613-7.452.727Zm360.265-1.218,1.795.954-6.786,5.806Zm-289.222-.358,1.27-.134-.537.842Zm250.891,10.43-.8-.8v-10.39h1.724l.523,7.49,4.535-.317L350,242.747Zm35.772-10.566.359-.675,1.483.788Zm-236.967-1.661,7.961-2.655-.253,4.846-3.418-.179-.2,3.765-3.857-3.472.209-.017-.218-1.239-.912.161.056.314-1.065-.958.811-.27.949.365Zm171.942,1.832V227.91l.357-.357,3.916,1.456v.615l-2.454,2.455-.159.453ZM41.556,226.595l.665.839-.322.548Zm280.342-.7,1.832-1.832.43,1.385V227.6Zm-106.9-4.109v4.9H210.26Zm-156.239.465-.073-1.377,2.087.4-.109,2.692ZM26.043,221.1l1.523-.948.111,2.114-1.583.082Zm57.527-1.064,1.34,2.818-7.945.381L75.6,222l1.606.24Zm264.768-.731.872-.014.525,7.514h-1.4ZM33.345,221.869l1.312-.172,2.061-2.691-.463.9,1.978,2.5-4.848.254Zm-3.8-2.955.032.2-.378.02Zm415.884,4.13.223-4.256.337.256.016,4.628Zm-203.561-5.45,1.086-.21,4.753,3.207,2.545-.5.227.235,4.423,4.582,1.9,5.1.992,1.027-3.362,2.627Zm-21.745-1.113-.547,3.143-4.046,1.606Zm78.494-.708-.839,9.318-3.029,4.018-1.072,5.045-.878-4.515,1.827-6,.632,1.358ZM58.481,217.049l.469-.161.013-1.056,1.758-.092-2.181,2.423Zm179.709-2.312h2.718l.42,2.165-1.037-1.327-2.1,1.468Zm-94.673-.246v-.458l1.03.634Zm118.858,3.791,11.224-4.649,5.808.523-11.979,9.36Zm-194.4-3.138,2.851-1.764,2.041-.108-2.57,3.963Zm369.387-2.394.165-.15,6.745,5.14-3.435-.18-4.458,2.961-4.451-.233.115-2.205-4.32-.227,4.7-3.072,4.817.253Zm-68.386,1.479,4.209-1.828,8.782,7.17-2.445,1.983-3.969-.407-1.839-3.829-4.5.315Zm-36.449-2,2.1,2.1h16.144l-2.439,2.1v-1.287h-6.873v2.332h-6.577Zm-16.962,8.907-.193-1.375-8.076-6.085,7.6-1.471,3.677,5.368v3.827h-2.654ZM135.857,206.677l1.9-.044.052.044,1.962,1.672-.246.471,1.985,2.365-.835,1.36.334-.092,1.013.637.015,1.68-4.3-.226v-.413h-1.881Zm103.07,4.444v-5.994H244.6l.263,1.348-4.157,6.162Zm120.137-6.213,1.305,1.394-2.9.2Zm-243.479,4.214-.9-3.152.73-2.543,1.166,2.6H119.5v-1.374h5.21v6.875l3.474.092,7.533,2.959-4.095,3.688-.506,9.642,1.986.1L130.99,235.8l-.725-.386,1.7-4.728-.85-2.775-2.9-9.48,3.578-4.467-13.9-4.116-2.612.3Zm315.673-6.232,14.973,3.6-8.008,4.257-1.747-6.566-2.362-.124-2.67,5.553-11.555.215-2.227-2.1,8.268,1.985Zm-295.5,2.044.275-2.087.176-.08.594,1.093.377.253v2.033Zm92.045,1.781,2.129-7.006-.053.271,7.812,10.09-4.252-3.622-.533,4.043h-3.421Zm178.056-1.8-1.125-7.1,8.943,6.987-8.238.323Zm-271.768-7.181.3.3ZM112.729,198.9l-.755-1.936.039-.761.741-.548,1.2,2.265-.632,1.53Zm-1.446-3.706,1.3.137-.958.737Zm-2.934-1.732,1.191,1.727-1.161,1.861.421,3.471-2.16.37.251.81-1.564-1.865-.267-4.9.712-.273,1.535,1.048Zm26.749.44v-.856l2.608.413v.889l-1.043,1.909-.522.714v-2.042h-.658Zm-40.117-8.046,1.659.262.446,3.177-.873,1.2v-2.411H94.981Zm-22.943,4.255,1.9-1.009,1.365-4.462-1.986-.608.067-.226H85.515l.09,1.38h.788l1.133-1.225v2.887l6.747,4.885-.978.068,3.7,6.821.446.3v2.632l3.392,1.723-.63,1.2.611.728v1.8h1.511l.221.263-.986,1.606.395-.108,4.181,2.612-2.195-.375.232,2.52-.1.47-.557.262-4.285.45-9.173-.274-.035.367-5.615.294-8.867-5.952-.153.236-3.4.206-1.164-.9,1.1-3.849-1.067-3.721,1.414-4.933-3.717-3.413-1.709-4.377,1.451,0,1.886,3.549,1.174.359Zm262.209-7.98,6.375,3.829,4.939-.507-7.462,4.937Zm-219.43-2.026.8-.724-.164-1.169h1.1v6.944l-1.039-.69-.694.369Zm33.43-1.519-1.365-.69,2.219-1.049L150.61,179Zm207.866,5.651-.49-5.623,2.131-1.931,1.931,4.124-.418,3.494-1.712.922Zm-237.2-7.992,3.353-.156.7.544h-3.987Zm-3.619.881h.477l1.354-1.353.3.256-2.085,1.437Zm28.2-5.532,3.006,1.535,2.381,3.4ZM117,170.751l.452,1.577-1.215,2.193h-.644Zm289.067,4.96,10.285-1.824-.443-3.192,3.757,3.758-7.893,10.1-.156,7.479-4.062.5-3.037,3.888-.738-4.658,6.748-3.607-.776-4.9-2.3.364Zm-77.223-5.165,1.291-.089,3.253,2.828,3.789-1.574-.959,5.161-3.809-2.288-.909.619.553,2.222Zm38.884-1.736,3.876,10.372-.209,1.676-7.79-5.332.409-3.428,1.276.768Zm-295.759.91-.194-1.381h1.3v8.2l-1.227-.816-1,.534-2.717-1.869-8.384,5.3-2.011-1.748,5.242-3.644,2.819,1.043Zm52.409,6.915.914-1.751,10.651-6.158-.477-1.663,1.094-.314,5.5,3.052.955,1.363-1.345-1.231-3-1.06-14.108,8.622Zm28.416,5.107-1.662-7.586-5.534-7.9,6.87,5.972.881-3.908,5.8-1.521-3.884,4.164,6.521,17.731-.615-.418-2.414,1.6h3.462l1.13,3.07v.405l-1.707,1.707,2.642,3.53v3.627l-1.545,1.544,1.545.383V202.21l1.739-1.739v-.255l.333.9,1.427.375,16.841-18.122,1.228-.043-7.045,12.2-2.84-1.64-8.468,7.942.282,2.684-.708.312-2.79-.693v5.691l4.149,2.831-7.149,4.732V220.1h8.127l1.783,17.028-2.106-2.657-2.426-.651.077-1.455-3.445-3.827,1.516-1.365-8.051-3.075.084-1.61-2.612-2.149,3.6-.661,3.457-2.287V206.524H151.67l-1.3-1.3h-1.021l.173-3.412,1.416-1.047-.293-.182-3.286,2.522,1.465.914-.145,1.131-.315.074h-2.5v.576l-.369.085-.064.877-1.572-1.873-.08-1.475h3.5v-3.923H151.9V194.41l6.861-4.54h-5.434l-1.427.65v-4.4l-4.5,1.118.613-2.028h1.373v-1.452l2.81,1.411Zm-11.25-13.865.975-1.917-.58,3.291Zm-65.677-1.86,3.961-.185.823.644H75.943ZM71.6,167.058h.563l1.6-1.6.357.3-2.464,1.694Zm70.149-4.155,1.311,1.14-.226.159-.271,1.537Zm-2.086-1.814.275.241Zm-66.051-1.561.534,1.862-1.435,2.59h-.761Zm8.714,6.949,1.08-2.068,10.234-5.918-.032.258,1.224-.2-.373.382-.578,1.634-11.336,6.929Zm20.771-7.6.115-.471.145.206.119.611Zm-6.724-.585,1.684-.28-1.354.827Zm14.354-2.09,3.7-.065-3.667,1.851Zm5.219-.093,6.77-.117-.407.262.335,1.173-5.371,1.539-.745-.8.54,1.888-1.129.325ZM408,154.764l1,.843-3.9.846Zm-305.331,1.647-.08-.278,1.15-2.264-.588,3.343Zm61.935,1.514,4.811-4.81,5.529,1.672v3.643l-8.637,5.021-2.164-2.017-2.769,2.969,1.153-8.752v2.275Zm42.151,9.529-.284-8.123-2.113-1.971.679-.5v-1.908l8.032-2.6.578,3.3-2.378.872.654,3.734h-1.687v8.835l-3.873,3.873,4.25,12.663-13.666-7.89-.908-.848,5.292-12.76,4.128,3.85Zm156.313-15.29,3.759,3.867,2.395-.685L367,158.405Zm13.9,3.84,2.277-4.1,6.188,3.431.342,1.192-1.743-.7-6.007.95Zm-138.982-5.512,13.784,6.966-17.048-3.144.51,2.623,3.98-.774,3.064,15.765-2.906.565-10.1-7.006v-5.872l2.183-4.99V153.4l.5.339Zm-180.54,7.57.808-3.236-2.266-2.054,1.367-8.291.65,3.33-.31.061,1.513.238v5.609h1.3l1.671,5.524L60.752,161.2,57.1,163.332l-.908-1.513,5.18-3.113-1.032-.257-1.956,1.175Zm-8.2-13.251,2.323-.385.486.809-1.876,1.126Zm167.471,1.623.645-.646v-2l5.464,3.728Zm172.058-2.8,1.182,6.909,3.918,3.287-6.035,3.149ZM66.2,142.342l4.367-.077-4.33,2.188Zm6.164-.107,7.993-.139-.481.311.4,1.383-6.342,1.819-.88-.951.639,2.228-1.335.383Zm337.512-.06,1.338-1.594,4,7.459-.322,6.291-5.753,1.249ZM57.456,143.866l-1.21-2.014.337-2.735,4,.492-.129,1.058.483.059-3.585,3.745Zm158.783-12.781v3.227l-7.268-3.078h-1.245ZM99.244,129.479l1,1.6-.12.827Zm150.631-4.737-6.419-2.624h8.573v3.5l-.319-.13-.433,8.283-1.91.658ZM52.64,110.788l1.185,1.895-.141.976Zm296.484,9.923,2.488-1.108-.655-8.755,3.359-1.495,1.335.834,6.776-.546,8.017,5.01-16.6,6.127-.033-.62-2.624,1.222Zm-128.748-8.03.047-3.8h2.807L226.348,112h6.344l1.641-1.64-1.272,6.614,1.013,1.309ZM236.693,108l1.891,1.891,3.832-1.221v1.288h-7.681Zm122.083-.631,2.31-1.028-1.013,2ZM182.129,136.906l-1.2-13.677.332-.31,3-10.627-.119-6.823,13.192,12.739,2.91,8.928,4.242,4.1H200.21V144.8h4.054v5.75l-2.2-.862.474-.527-12.01-6.387-3.685-8.471-1.762.531.776,6.411Zm66.68-30.186,2.988-.886,3.4-3.394-1.17,3.823,2.608,9.731-3.456,1.728v-1.738l-1.4-1.4v-5.4h-2.962Zm-42.058,9.168.885-1.364L208,96.456l6.223,6.223v6l-3.278,3.278.222.3,18.694,4.572,4.887,11.516-4.191,1.161-3.769-8.879-7.727,1.8-2.822-2.856v5.478Zm-33.527-17.41L168.554,91l15.935,10.348-6.384-2.5-5.22.091Zm91.788,64.566h4.326V118.627l-4.207-1.046,3.116-2.215,3.72-26.752,6.5,13.046-1.658-1.118,2.554,21.659.3.2-.426-.074,2.039,16,4.99,8.619-3.044,1.143-3.058-1.721-3.107,2.175-5.32,9.511-.893,5.069,23.9,4.214,1.011,1.446,5.295.932-12.906,2.51-4.826-6.846-6.185,1.2.565,2.908-11.021,2.141ZM87.7,91.066l-.615-2.707.747-.053-.185.955.3.192.193,2.758-.645.742.212,3.034-1.079.075Zm-10.109-4.2-.145-.493L78.5,85.21,78.435,87.1l-.192.254ZM83.29,85l.122-.616,2.168-.306,1.138,1.233Zm3.625.33,2.015-2.675-.546,2.81Zm-10.223-4.08,1.9,1.1-.046,1.366ZM258.669,69.91l-.655-1.512,6.6.531.13,3.729-2.561,6.236-8.609,7.634,1.881,7.018-7.385-2.225.247-.1-6.839-11.005.426-10.584,16.2,3.149ZM39.008,65.425l-.726-3.2.883-.062-.219,1.127.351.227.227,3.256-.762.877.251,3.582-1.275.088ZM255.2,61.886l2.7,2.7-.471,2.451ZM27.071,60.466l-.171-.583,1.241-1.372-.075,2.235-.227.3Zm6.728-2.2.144-.727,2.56-.359,1.343,1.457Zm4.281.391,2.38-3.159-.645,3.317ZM26.008,53.836l2.248,1.3L28.2,56.746ZM273.21,40.71l1.285-2.785,4.645,0-.829,2.509-2.8,2.581ZM272.1,9.459l10.257,16.415,1.407-1.937L279.14,37.923l-3.9-10.446h-.929l1.737,4.412L263.966,53.608l-2.585-2.586h-2.676L253.8,58.658l-.4-.931-4.935-.959-13.69,9.148-2.375-6.059-.912.195-8.105-7.106-6.156,1.309-1.209-3.289.892.486,6.267-4.724-4.73-6.277,1.852-1.4-.808-1.072-5.3.052-.634-11.318-2.953-.621.57,10.858-4.679-2.629-7.22,3L187.683,32.7l6.722,8.92,2.155-1.22,15.555,8.45,2.873,7.893.995-.286-1.289,5.081,1.8,8.448,17.881-3.8-5.694,3.8,9.835,3.782-.221,2.783-.871-.688L235.8,89.085l-.339,2.754-1.243.333-2.169.582-.888-20.675,2.308.661L231.638,71.3H218.157L212.231,95h-3.814l3.08-4.742,2.409-17.121-3.053.649-.765-3.593-6.059-3.935-9.27,14.274,3.793,3.3L195.2,87.69l-.383-.159-1.372-4.213-.315-.274-1.8,2.766-.093,4.081,8.429,16.05-1.72.653-5.773-11L181.734,92.9l-1.283,1.923L171.538,92.2l-.457-2.149L167.3,89.006l-.831-1.329,1.461-.337-2-5.634-8.461-3.7,2.472,5.225,1.5,1.344-.555.348,3.065,4.9-9.123-1.087-1.125,2.8,11.839,1.452.092-.472L169.69,99l-.474.009,7.368,23.135-3.575,2.287,3.253,3.161,1.631-1.524.577,6.585-1.832-2.128-5.321,1.681-1.358-1.359-2.011.6.932,8.573-2.961.1-.274-2.607L165.1,132.3l-.136-1.283-8.679-7.546,9.8-11.27-12.379-1.43-3.348-2.911,2.09-2.4-7.789-2.548.486,6.939,10.231,8.893-6.2,7.127-3.852.269-1.833,2.108,9.046,14.48-2.075,2.857-12.882-10.538-2.18,2.507-6.16-6.38,1.686-.954-6.325-8.393-3.313,4.294,1.759,13.006,1.9,5.106,5.067,5.246,2.835-2,.812-1.827.715.253.788,11.277.188.163-9.417-3.423-2.117,1.367-.022-1.241L112.875,143.3l-3.307.092.084,4.858-1.727-6.27,3.9.407-2.784-8.317-4.555-4.377,2.133-2.771-2.059-3.568,1.413-1.594-4.753.442,2.36-1.6-4.9-14.271.075-1.331-3.213-4.53.685.272L91.751,90.2l.311-1.595-.412-1.839.772-2.146-.075-1.447-3.32-.645.6-.8-3.088-2.327L85.9,79.5,85.14,77.6l2.906,2.348-.911-5.319,1.423-2.192-2.443-1.587-.629.5.328,1.9-.318.8.95.616-1.7.489-.367.663,1.472.816-.812.7-.209-.519L82.95,77.876l-1.013-1.115-1.015-4.293-.42.154.695,2.942-.639,1.372-.087-1.895L79.852,75l.723-.219L79.9,72.692l-1.738.683.607,1.866.673,6.4-.365.052.219-.635-2.554-1.475-.565.98-.654-.867-1.685,1.27,1.006-1.848-3.065.34.03.876,1.49,1.39,2.369,3.144-1.125,3.05,1.8.211-.018,2.632-3.255,4.322.694,1.2,2.711-3.6.3-.043-.414,4.477L74.7,98.457l-.2-.122-.032-1.177-1.346-.215.043,1.291-.847.238.56,2.689,1.688-.473-.044-1.627.467,2.027,2.559-.3L78.7,98.94l-.014-.315,4.187.018,2.153-1.062,3.422,12.548,2.09,1.358,4.831-3.942.79-1.217L88.01,99.506l1.272-1.96-1.186-.5,3.711-.259-.127.336.894,2.167,2.591,1.027,1.252,7.282-2.8,4.077,1.432,4.594-.291,1.3-2.016-4.262-2.476,4.667,3.67,19.033,2.812,1.784,2.175-.9.792-3.087L99.1,139l-.672-.226-.465.5L95.78,139l-1.375,1.075-.455-.057-.181,1.477,1.446,1.851-.037.3L84.15,139.644l-2.5,1.614-.026-1.465L68.737,127.1l-3.905.11.1,5.735-2.039-7.4,4.6.481L64.206,116.2l-5.38-5.169,2.52-3.273-2.432-4.214,1.668-1.881-5.613.521,2.787-1.894L51.972,83.443l.088-1.572-3.795-5.348.811.32L43.792,64.4l.365-1.883L43.67,60.35l.914-2.535L44.5,56.107l-3.92-.762.707-.939-3.646-2.747-.752.1-.9-2.235,3.43,2.771L38.34,46.019l1.681-2.588-2.885-1.873-.743.6L36.78,44.4l-.376.94,1.122.729-2.011.577-.434.784,1.737.963-.958.828-.246-.612L33.4,49.849l-1.2-1.315L31,43.463l-.5.183.82,3.473-.755,1.621-.1-2.237-.729-.054.852-.259-.8-2.465-2.053.808.716,2.205L29.25,54.3l-.431.059.261-.749-3.016-1.741-.669,1.157L24.623,52l-1.988,1.5,1.187-2.181-3.62.4.035,1.035L22,54.392l2.8,3.714-1.328,3.6,2.121.248-.021,3.108-3.846,5.1.821,1.419,3.2-4.248.358-.049-.489,5.286-1.96,1.578-.232-.146-.038-1.39-1.59-.252.051,1.525-1,.28.661,3.176,1.993-.56-.054-1.92L24,77.259l3.02-.356,1.363-2.181-.017-.371,4.945.02,2.543-1.253,4.041,14.819,2.468,1.6,5.706-4.655L49,83.45l-9.623-8.057,1.5-2.314-1.4-.593,4.381-.308-.15.4,1.056,2.559,3.06,1.212,1.478,8.6-3.313,4.816,1.691,5.423-.343,1.543-2.382-5.033L42.03,97.205l4.334,22.476,3.32,2.107,2.569-1.059.935-3.644-.715,4.941-.793-.266-.549.59-2.58-.317L46.926,123.3l-.538-.066-.214,1.744,1.709,2.187-.339,2.756.68,1.531-3.709,7.761,2.169.406-.7,5.73,1.444-.24-.44.452L45.3,150.329l-.629,7.719,3.288,8.2,2.166,15.411,1.1-.155L52,186.813l-.328.126,1.83,9.355,2.611-.038-.9-2.344,2.84-1.091-.132-4.122,2.426-.931,1.813,1.239,1.2-2.7,1.436,2.082-1.371,2.2,2.139,17.63-2.743.5-9.233-6.011-4.313,1.485-.656-1.048-5.513,3.445L36.9,218.658,32.73,216.83,26.921,209.2l-1.37,1.345,3.377,4.442.046.289-5.049-3.222,1.333,5.8-2.142-.954.822-3.264-1.243-1.273.381-.857,1.107-.188-1.742-5.028-2.8.283-1.3,1.323.206,1.339-.362-.119,2.062,9.122,4.85,2.16.6-.624.263,1.144L23.34,223.05l-.322,12.095-.9.087-.083,4.787L18.351,247.3,13.794,242.9l-1.536-.19-.994,8.093-3.173-2.53L4.5,240.841l-.8-3.283-3.042.97.7,2.866L0,241.465l.5,9.523.983.287.151,9.209L5.117,267.9l-.682-.188-3.006,1.4,2,5.572,1.884-.879L6.337,276l-2.946,1.373,1.7,2.042,5.042,2.4,8.411,1.582,10.974-3.115-.262-4.105,4.517-5.247L44.06,265.1l1.889-3.644,4.106,3.7,1.092-1.212,3.036,6.576,14.625,5.059.391,7.465.362-.017-.811,2.38-1.4-4.58-1.913.586,2.649,8.663-.428,4.862-4.984-3.953-3.778-.508.124-1.441,5.128.483-.8-9.161L60,280.2l-1.938,1.4-.4-6.316-7.919-3.679,2.037,15.775,2,2.155-.513-.273,1.371,4.482,2.03,2,.833.872.75-.228.484,1.587,8.317,3.7-.122,1.38-1.484.771.41,1.125-.9-.816-1.98.471L61.43,306.33l.443,2.711L65,308.877l-.345-.31,1.357-3.222,1.651,4.534H62.506l-.051,2.629h9.536l.16-.562L81,311.481l-.239-4.562-2.025-3.388,2.53-9.1-3.821.2,2.657-2.672,1.575-.668,1.978-7.759,1.8-.764-.79-.547,1.655-.087-.287-.941,1.026.267,2.421-4.639,1.246,1.653,4.185.588,7.251.4,9.582-.094,5.8-4.371-.957,2.835,5.372.187,1.09-.4,4.247,9.35.359,2.388-5.56,8.906-.7-.948-1.186-.061-2.7,3.747,1.234,3.631,10.534.553-2.341-5.884,2.17-3.64-2.612-2.9.633-1.2,2.06.106-.544-1.729,1.7,3.736,1.57-.64.336,4.818,10.227-8.811-.535-7.642-2.609.531.412,5.893-3.115.77-.076-1.448-5.847.308-.218-4.172.7-.779-.171-3.241,1.565-.081-.06-1.153-5.867.307.142-.356-.6-1.52,7.023-2.607,12.344-11.512.058.16,6.94,1.885-6.1.319-.7,2.105,5.744,9.16.806-.9,1.85-.1,3.159,4.39,4.661-.244,2.126-2.157,2.83-.15-.107-2.046,2.213-.522,1.452-10.011,1.16,25.853,6.889,5.112,26.645,6.4-1.636-10.7,6.229-5.809,2.249,14.213,25.787,1.547,16.908-4.891,3.83-2.632,24.235-.535V261.241l-3.315-3.315,5.6-4.374-1.2-1.068,1.029-24.228L287,239.087l6.619,9.946-1.506,1.492,6.1,27.67,5.508-3.858-.978-3.293-.612-.357,8.872-6.212-1.1-1.576,12.482-.43-.8-15.874,1.6-2.365h6.643l-3.6,1.789-4.333.324,1.3,5.646-.792,4.214.99,4.282,15.62-.809-1.3-3.069,4.2,4.419-2.568,2.515.62,32.774,3.178,3.795-4.079,1.663-2.832,15.083L352,319.712l2.79-4.218,1.732.181,3.393-4.954-6.082-7.71,2.475-2-4.507-5.566-3.28-.344-.7-.862.73-3.086,4.957-6.026-.6,4.925,2.558.314,1.857-15.121-2.686.72-.859,7-3.213-7.216.69-4.907,2.044,2.15,4.067.427,2.9-27.605,7.6.8,5.966,16.069-.965.39-2.641-6.628-2.716,5.234,1.848,4.135,4.1.275,2.232,1.962,3.016-.743-.314.911-9.067,4.423-2.718-.935,1.029,1.1-.457,1.328,3,1.034,2.086,4.276-.926,2.69.793,1.627.983,2.015-.478,1.073,1.643,2.894-5.108-.448.246,11.025-1.831,2.089-1.759,6.566,14.259,3.821.515-5.239-.709-.19-2.577-6.457,4.262,3.387,1.526,11.992,4.4-9.888-2.046-1.254-.187-22.052,1.048-.511,1.916-12.441.8.355,3.214-18.23,3.283-6.173-1.6-10.765-1.326-.706,1.262-7.092,2.377.392,3.774-31.533,2.989,8.827-1.389.055-.1.886,3.2,1.027,3.3,7.424,13.482.706L431.588,230.9l-.8,6.494,6.844,5.69-.371,3.026-1.563,1.22,7.255,5.289-4.636.734,1.153,7.281,2.771-.974.278.2-3.487,2.35,2.577,2.668-10.277,9.925-4.067-1.783-2.139,5.957,4.352,1.908,1.837-5.112,1.123,1.163,10.236,2.1,2.846-2.749.086-3.96,2.528.717,5.6-11.454-5.823-4.229.413-.825,1.752,1.276,3.539-.916,2.192-17.848,1.069.947.693-.368-1.66-1.418.164-1.33,2.462-1.924.761-6.2-4.61-.565.233-12.206.22.067.6,4.251,18.449,10.121-1.359-9.67-3.771.529-1.98-3.476-7.569-.248-.2-1.429.572-.3.726-8.776-4.1-1.254-8.1-39.566-5.986-3.126L440,162.912v-9.96l-1.562-1.562v-3.47l-3.531-3.531h-4.453v-2.105l-2.893-1.453-6.718-3.645h-6.785l1.068-1.271-22.087.278-4.083,4.866.231-3.3-17.422-6.289-13.8,1.611-8.436,3.322-2.99,3.114,4.616,2.56-.911,1.644-1.094-2.232-2.121,2.438-.563.04-.214.014-13.574.951-10.105,16.977.632,9.029,4.09-.286-4.663,2.173-1.819-3.9-.076,2.4L308.357,178.2l-11.613,2.808-6.794,11.553,3.1-15.348,13.4-5.066-.881-1.64,6.108,1.077-3.458-4.938,2.291-13,7.371,1.3,1.029-5.834-7.371-1.3.857-4.859,4.64-.246,2.21,4.336,3.578,1.161,15.484-11.771-3.5-3.491,12.809,4.161,1.526-4.7,5.174-2.634-.122-2.3,3.691,2.4,2.634-4.057,4.983,1,20.322,1.547.227.108.194-.076,1,.076-.128-.417,7.535-2.952,12.418.284.264-1.821-15.21-.343-.1-.782-3.341.41-7.023-4.105-.131.94-6.366-4.134,1.231-.864-9.32-5.825-.8-3.446,7.1,2.076,6.081-3.4-.061.289,18.931,4.024-.6-3.413H402v-5.3h-2.963V100.8l-2.236,3.932-13.392-2.846,4.281-2.4-.4-1.063-4.212.68-8.015-6.5-15.668,6.977-24.152-14-16.969,7.554,7.793,7.491,4.49,10.082,5.652-2.517,3.336-5.922,5.175-2.3,1.14,2.565,5.023-2.237-3.551,6.189-5.6,2.493,1.184,2.658-.687,1.789,6.389,7.117-5.378-1.747-1.67,5.139-6.877,3.5-1.322,4.07-1.387-1.381-1.412-2.77-2.455,1.252-5.536-1.8,5.144-19.079-2.7-3.782-6.427,1.6,1.453-1.443-1.7-2.77-3.973,3.944.974,1.079-10.14,2.528-7.487,18.88-3-5.428-.654-1.181,1.19-10.458-.39-2.127-.745-4.059-2.825.142-.264-7.57,2.961-.1-.059-1.714-2.414-1.655h1.786V88.785l4.723-1.876,1.65-9.481h11.7l.689-5.229H296.895L285.606,87.318l-2.591-5.391-9.805-2.242.773-5.567-2.794-4.66,5.445.436-1.654-14.524,3.2-6.074.252.117,3.959-3.15L281.765,35.8,285.666,24l-1.454-.684.219-.3L274.876,7.724ZM237.3,0V10.989l-3.8,3.8,1.876,1.875-.894,4.13L223.652,32.8,229.281,40l-1.694,1.842,4.269,5.465,7.742.951,1.141-9.295-3.725.218L234.3,35.7l3.8-5.889-3.183-4.073,3.363-2.628-1.918-1.192,1.065.285,1-4.615h1.534v6.97l1.715,2.347V23.984h2.806v-4l-4.055-5.457V1.321Z"></path></svg>