<svg xmlns="http://www.w3.org/2000/svg" width="440.291" height="510.087" viewBox="0 0 440.291 510.087"><path id="Trazado_2236" data-name="Trazado 2236" d="M107.127,499.5l-2.039,10.587h23.3V499.5ZM32.473,411.154l5.683,6.295,9.494-9.437-4.549-7.4Zm-13.792-64-4.36,1.689,4.308,22.3,5.992-1.548,7.628,33.053,11.424-4.711-.382-1.673,12.861-15.2L53.229,368.4,47.9,367.147l-.23-13.186,3.864-9.28-.178-10.315L15.1,328.6ZM0,170.378l11.9,50.1,11.272-4.664-12.13,9.5,4.637,23.992L7.6,250.584l2.881,18.194,6.859,4.988.507,3.2-2.327,1.542,1.945,3.89-3.785,37.183,3.268,4.669,14.048-11.361,10.043,4.021,2.013-12.051H58.117l-6.028-22.1-9.646,5.725L30.831,271.9l2.029-2.787,14.116,1.934,25.707-29.958L41.246,214.457,29.6,220.271l-3.158-5.809,14.592-6.039L20.322,175.862l15.549,12.469-3.639-20.824-6.018,2.2v-8.878h-4L19.946,163.1v-7.916L7.889,141.12ZM321.4,458.485l7.759,1.354-9.845,2.442ZM134.857,433.337l2.311-7.586-.235-.941,1.26,2.269-2.259,7.884Zm207.169-11.46,12.966.235-18.414,9.212Zm-208.042-8.883,5.16-8.585,1.182.34L135.835,420.4Zm-56.345-8.533,18.022-5.171L84.514,405.4Zm57.981-7.7-7.1-6.891,16.443-4.716,15.784,18.811Zm-1.082-55.581h22.016l2.306-2.306h2.557l.512.685-4.679,3.926-.523-.57-23.276,3.126ZM336.73,357.528l24.745-25.55,10.315-1.9-2.274,5.913-24.107,13.06,14.059,18.084-.842,3.027Zm-1.37-41.622,2.614-7.78,12.851,6.284-6.206,2.51Zm-106.708-13,9.908-4.543-.978,3.017-5.448,3.817ZM196.66,277.583l8.114,16.223,10.138,10.922-5.924,2.781L197,290.387l-5.15,2.682Zm-45.967-4.021,19.015-5.453-3.576,7.968H150.693ZM406.27,254.406l16.317-2.876-6.269,15.334-6.865,2.975Zm-106.29,1.072,14.88-16.019,6.588,9.3-16.411,8.37Zm.225,69.468,6.028-13.055-28.761-4.449,37.434-12.15,3.811-11.727,8.867-4.512L333,262.389l-4.392-9.432,32.87-38.506-5.735-7.827,9.374-5.709,10.99,9.317-7.591,4.219-13.923,23.02L353,233.9l-5.584-2.138L322.07,297.79l1.218,42.516,3.377,11.408-5-2.886-2.588,4.486.246,7.743-6.974-4.36-9.223.742-6.535-4.083,2.023-3.241-6.342-3.963,9.683-.7,7.069,4.418,2.1-3.357,2.546-.586,3.294-13.118-3.472-2.164-9.374,7.4Zm-6.849-120.14,2.368-.962-5.369-5.364V187.652l23.381,23.94Zm-162.5-17.19,19.674,7.748,24.975,1.673v5.1l-4.737-3.9-16.987,8.287Zm79.124,55.252V179.982l11.434,9.944-4.585.418,1.982,19.146-8.161,6.446,6.133,12.041-15.951,36.179.685-2.2h-7.591Zm18.461-67.47,4.522,13.478-6.148.559ZM73.2,178.377v-6.608H87.542L80.1,156.586l8.36,2.855L98.678,175.8l-7-1.621-11.6.769L74.283,179Zm146.9-29.989,2.708,9.63-6.98,3.194Zm45.554-.826,4.434-5.1,11.439-.8,1.6,18.032Zm-56.083-5.877,7.163-5.286,1.783,6.337ZM69.661,135.291H79.694l-4.758,10.76Zm110.452-13.029,9.939-3.79.413,11.706ZM46.495,118.514l.5-2.368,2.865.094,4.538,1.652-4.5,1.642ZM184.651,100.2l4.758-.167.23,6.582Zm-100-8.4.941-2.1,7.184,5.061Zm40.89-2.274,10.117,1.176-.235,2.713-14.106,14.529ZM61.725,45.888,50.416,29.147l3.67,1.046L67.444,44.262l-4,3.78,4.742,3.55L57.495,66.074ZM75.924,0l-6.06,5.762L67,3.038,61.081,4.9,46.976,8.872,36.456,25.148l5.9,1.689L30.993,31.631,19.946,53.725l-3.236,46.808L9.73,119.721,15.5,146.877l12,4.46,2.337-1.49v4.679l7.492,6,2.049-2.044v27.966l3.273,3.289,2.515,4.381,8.632,6.159,15.209,5.73L90.569,203.8l1.71-9.73L104.058,178.5l-3.252-16.281-8.82-13.792,17.5-8.867.444-14.08-7.408-17.494-5.165.188-4.115-4.418L57.84,116.642l1.511-4.156,27.778-12.95,8.208,2.985-3.069-3.4,1.37-3.754,12.877,9.071,9.86,46.73L125.823,133l11.445.345-6.828,3.754-18.126,31.207,7.424,1.673,2.828,10.8-8.151-6.724-7.393,2.473L85.011,262.06l8.757,11.863,7.612,4.486L84.122,283.36,71.229,322.342,81.56,332.929,70.1,392.97l.444-.136,3.184,11.094-9.51-1.3-9.51,64.375,8.773,8.051,8.8,11.2,8.025-2V485.9L68.526,498.057v11.591h33V498.643l3.649-3.775.936,3.743,12.36-3.079.084.324,37.314,4.878-1.1-4.407-6.687,1.668-14.623-25.383,18.084-14.064-3.754-5.678,23.977-30.245,16.2.125-4.047-6.352,16.621-13.944-8.6-14.817,4.329-8.025-6.222-7.408,19.59-16.438-14.174-16.892h8.24v-9.5l-6.624-19.015-5.762-5.756v-6.049l12.877,18.388,47.739,1.459-5.594-7.983,7,4.867,13.081-4.251L265.2,324.736,284.991,337.1l2.588,37.889L309,388.379l2.525-14.487,7.806-12.5.873,26.837-3.529,6.107-19.7-10.033L295.8,388.4l-7.241,2.358,1.161,11.565,2.672,1.354,3.879-1.26,1.02,27.757-3.973,3.508.439.23-11.094,3.231,2.379,10.89,14.263-4.151-2.384-10.9-2.055.6,8.564-7.853-4.627-2.358.136-3.424,9.343-3.038-.146-10.666,5.9-4.653-2.52,28.7,5.573-1.5,1.574,5.887-.486-.167-9.641,17.541L303.4,450.2l-7.32,13.3,4.679,16.453,13.369-3.759,8.768,2.51,3.885,12.605,14.451,4.146,13.092-11.481,5.73,1.642,1.877,3.393,24.662-24.583-.685-7.121.685-22.868-15.58-12.046,16.1.293.063-29.085,1.715,1.338.946-6.1-2.645-1.344.005-2.117,12.814-17.013,1.652-34.386-17.447-19.026,1.375-3.069-6.07-1.9-8.485-2.656v-6.75h14.921l-1.657,1.678.5,3.132,5.4-.857,2.9,18.32,18.294-2.9,14.587-52.654,5.6-1.663-2.421-15.272,6.7-1.182,4.428-43.253-11.507-30.517L416.429,158.1l-8.794-5.04-3.2,11.967-3.921-1.051V149.162L385.844,134.5l-36.206-5.171L347.51,142.71l-14.158,6.446L335.36,137.1h-5.385l8.3-6.718-25.833-2.713,7.638,9.432H307.018l-4-7.863-51.6,4.465L237,119.659l-10.477.732-.157-4.611L180.928,73.044l-2.672,18.942-2.5-3.221-3.874-24.149L141.351,37.162l-4.517,1.2L118.765,24.588,103.017,39.311l3.905-14.838h6.645V22.6L94.511,4.491H90.255L85.539,0Z"></path></svg>